<svg width="375" height="272" viewBox="0 0 375 272" fill="none" xmlns="http://www.w3.org/2000/svg">
<rect width="375" height="264" fill="#F4F6F7"/>
<g filter="url(#filter0_d_1092_17651)">
<rect x="133" width="109" height="128" rx="12" fill="white"/>
<path d="M150.903 15.1748C152.427 15.1748 153.628 15.6729 154.507 16.6689C155.386 17.6602 155.825 19.0078 155.825 20.7119C155.825 22.416 155.386 23.7661 154.507 24.7622C153.628 25.7583 152.427 26.2563 150.903 26.2563C149.375 26.2563 148.169 25.7607 147.285 24.7695C146.406 23.7734 145.967 22.4209 145.967 20.7119C145.967 19.0078 146.409 17.6602 147.292 16.6689C148.181 15.6729 149.385 15.1748 150.903 15.1748ZM150.903 16.7056C149.907 16.7056 149.114 17.0669 148.523 17.7896C147.937 18.5122 147.644 19.4863 147.644 20.7119C147.644 21.9375 147.935 22.9141 148.516 23.6416C149.097 24.3643 149.893 24.7256 150.903 24.7256C151.904 24.7256 152.695 24.3643 153.276 23.6416C153.857 22.9141 154.148 21.9375 154.148 20.7119C154.148 19.4814 153.857 18.5073 153.276 17.7896C152.695 17.0669 151.904 16.7056 150.903 16.7056ZM161.547 24.7622V19.2617C160.761 19.2812 160.136 19.5352 159.672 20.0234C159.208 20.5117 158.976 21.1733 158.976 22.0083C158.976 22.8481 159.206 23.5122 159.665 24.0005C160.129 24.4839 160.756 24.7378 161.547 24.7622ZM164.96 24.0005C165.424 23.5073 165.656 22.8433 165.656 22.0083C165.656 21.1733 165.424 20.5142 164.96 20.0308C164.496 19.5425 163.869 19.2861 163.078 19.2617V24.7622C163.869 24.7427 164.496 24.4888 164.96 24.0005ZM161.547 26.1025C160.278 26.0781 159.264 25.6997 158.508 24.9673C157.751 24.23 157.372 23.2437 157.372 22.0083C157.372 20.7778 157.751 19.7964 158.508 19.064C159.269 18.3267 160.282 17.9458 161.547 17.9214V15.3872H163.085V17.9214C164.355 17.9458 165.365 18.3267 166.117 19.064C166.874 19.7964 167.253 20.7803 167.253 22.0156C167.253 23.2461 166.874 24.23 166.117 24.9673C165.361 25.6997 164.35 26.0781 163.085 26.1025V28.6514H161.547V26.1025ZM172.425 26.1538C171.253 26.1538 170.333 25.7852 169.664 25.0479C168.995 24.3105 168.661 23.2974 168.661 22.0083C168.661 20.7241 168.995 19.7134 169.664 18.9761C170.338 18.2388 171.258 17.8701 172.425 17.8701C173.587 17.8701 174.503 18.2388 175.172 18.9761C175.846 19.7134 176.183 20.7241 176.183 22.0083C176.183 23.2974 175.848 24.3105 175.179 25.0479C174.51 25.7852 173.592 26.1538 172.425 26.1538ZM172.425 24.7549C173.104 24.7549 173.629 24.5156 174 24.0371C174.376 23.5537 174.564 22.8774 174.564 22.0083C174.564 21.144 174.376 20.4727 174 19.9941C173.629 19.5107 173.104 19.269 172.425 19.269C171.742 19.269 171.214 19.5083 170.843 19.9868C170.472 20.4653 170.287 21.1392 170.287 22.0083C170.287 22.8823 170.472 23.5586 170.843 24.0371C171.214 24.5156 171.742 24.7549 172.425 24.7549ZM182.117 17.8921C183.133 17.8921 183.938 18.2632 184.534 19.0054C185.13 19.7427 185.427 20.7437 185.427 22.0083C185.427 23.2729 185.13 24.2764 184.534 25.0186C183.943 25.7607 183.142 26.1318 182.132 26.1318C181.565 26.1318 181.067 26.0146 180.637 25.7803C180.208 25.541 179.888 25.2114 179.678 24.7915H179.553V28.6514H177.979V18.0239H179.495V19.3423H179.612C179.851 18.8882 180.193 18.5342 180.637 18.2803C181.082 18.0215 181.575 17.8921 182.117 17.8921ZM181.67 24.7183C182.339 24.7183 182.862 24.479 183.238 24.0005C183.618 23.5171 183.809 22.853 183.809 22.0083C183.809 21.1636 183.618 20.502 183.238 20.0234C182.862 19.5449 182.342 19.3057 181.677 19.3057C181.013 19.3057 180.488 19.5498 180.103 20.0381C179.717 20.5215 179.524 21.1807 179.524 22.0156C179.524 22.8457 179.717 23.5049 180.103 23.9932C180.488 24.4766 181.011 24.7183 181.67 24.7183ZM188.762 26H187.231V18.0239H189.208L191.779 23.7295H191.904L194.482 18.0239H196.408V26H194.87V20.4995H194.731L192.394 25.6777H191.237L188.901 20.4995H188.762V26ZM200.153 26H198.592V18.0239H200.153V23.5098H200.277L203.954 18.0239H205.514V26H203.954V20.4849H203.837L200.153 26ZM213.645 18.0239V19.3496H211.133V26H209.559V19.3496H207.046V18.0239H213.645ZM218.21 21.7886H216.753V24.6743H218.21C218.689 24.6743 219.07 24.5425 219.353 24.2788C219.641 24.0151 219.785 23.666 219.785 23.2314C219.785 22.7969 219.641 22.4478 219.353 22.1841C219.065 21.9204 218.684 21.7886 218.21 21.7886ZM215.178 26V18.0239H216.753V20.4702H218.327C219.25 20.4702 219.985 20.7192 220.532 21.2173C221.079 21.7153 221.352 22.3867 221.352 23.2314C221.352 24.0762 221.079 24.75 220.532 25.2529C219.985 25.751 219.25 26 218.327 26H215.178ZM148.142 40.5137H147.783V44H146.208V36.0239H147.783V39.2612H148.135L151.013 36.0239H152.866L149.431 39.73L153.013 44H151.05L148.142 40.5137ZM158.588 35.8921C159.604 35.8921 160.409 36.2632 161.005 37.0054C161.601 37.7427 161.899 38.7437 161.899 40.0083C161.899 41.2729 161.601 42.2764 161.005 43.0186C160.414 43.7607 159.614 44.1318 158.603 44.1318C158.036 44.1318 157.538 44.0146 157.109 43.7803C156.679 43.541 156.359 43.2114 156.149 42.7915H156.025V46.6514H154.45V36.0239H155.966V37.3423H156.083C156.323 36.8882 156.664 36.5342 157.109 36.2803C157.553 36.0215 158.046 35.8921 158.588 35.8921ZM158.141 42.7183C158.81 42.7183 159.333 42.479 159.709 42.0005C160.09 41.5171 160.28 40.853 160.28 40.0083C160.28 39.1636 160.09 38.502 159.709 38.0234C159.333 37.5449 158.813 37.3057 158.149 37.3057C157.485 37.3057 156.96 37.5498 156.574 38.0381C156.188 38.5215 155.995 39.1807 155.995 40.0156C155.995 40.8457 156.188 41.5049 156.574 41.9932C156.96 42.4766 157.482 42.7183 158.141 42.7183ZM168.382 37.7744C168.031 37.3984 167.564 37.2104 166.983 37.2104C166.402 37.2104 165.924 37.3984 165.548 37.7744C165.172 38.1504 164.962 38.6509 164.918 39.2759H168.946C168.927 38.646 168.739 38.1455 168.382 37.7744ZM168.939 41.8467H170.455C170.274 42.5645 169.879 43.1284 169.269 43.5386C168.663 43.9487 167.906 44.1538 166.998 44.1538C165.855 44.1538 164.955 43.7876 164.295 43.0552C163.641 42.3179 163.314 41.312 163.314 40.0376C163.314 38.7632 163.646 37.75 164.31 36.998C164.974 36.2461 165.868 35.8701 166.991 35.8701C168.099 35.8701 168.968 36.2266 169.598 36.9395C170.233 37.6523 170.55 38.6362 170.55 39.8911V40.4404H164.918V40.5283C164.942 41.2314 165.145 41.7881 165.526 42.1982C165.907 42.6084 166.412 42.8135 167.042 42.8135C168.004 42.8135 168.636 42.4912 168.939 41.8467ZM177.363 42.6743V37.3496H174.558L174.339 40.3525C174.256 41.3535 174.048 42.0859 173.716 42.5498V42.6743H177.363ZM172.793 46.0874H171.328V42.6743H171.973C172.5 42.3521 172.808 41.5513 172.896 40.272L173.189 36.0239H178.931V42.6743H180.176V46.0874H178.718V44H172.793V46.0874ZM183.093 44H181.533V36.0239H183.093V41.5098H183.217L186.894 36.0239H188.454V44H186.894V38.4849H186.777L183.093 44ZM196.586 36.0239V37.3496H194.073V44H192.499V37.3496H189.987V36.0239H196.586Z" fill="#282B2E"/>
<rect x="190" y="76" width="40" height="40" rx="20" fill="#F4F6F7"/>
<path fill-rule="evenodd" clip-rule="evenodd" d="M203 105H217C218.105 105 219 104.105 219 103V89C219 87.8954 218.105 87 217 87H203C201.895 87 201 87.8954 201 89V90V102V103C201 104.105 201.895 105 203 105ZM206.5 91C205.672 91 205 91.6716 205 92.5C205 93.3284 205.672 94 206.5 94C207.328 94 208 93.3284 208 92.5C208 91.6716 207.328 91 206.5 91ZM213.5 98C212.672 98 212 98.6716 212 99.5C212 100.328 212.672 101 213.5 101C214.328 101 215 100.328 215 99.5C215 98.6716 214.328 98 213.5 98ZM214.707 92.7071L206.707 100.707L205.293 99.2929L213.293 91.2929L214.707 92.7071Z" fill="#A7B1BA"/>
</g>
<g filter="url(#filter1_d_1092_17651)">
<rect x="16" width="109" height="128" rx="12" fill="white"/>
<path d="M33.9033 15.1748C35.4268 15.1748 36.6279 15.6729 37.5068 16.6689C38.3857 17.6602 38.8252 19.0078 38.8252 20.7119C38.8252 22.416 38.3857 23.7661 37.5068 24.7622C36.6279 25.7583 35.4268 26.2563 33.9033 26.2563C32.375 26.2563 31.1689 25.7607 30.2852 24.7695C29.4062 23.7734 28.9668 22.4209 28.9668 20.7119C28.9668 19.0078 29.4087 17.6602 30.2925 16.6689C31.1812 15.6729 32.3848 15.1748 33.9033 15.1748ZM33.9033 16.7056C32.9072 16.7056 32.1138 17.0669 31.5229 17.7896C30.937 18.5122 30.644 19.4863 30.644 20.7119C30.644 21.9375 30.9346 22.9141 31.5156 23.6416C32.0967 24.3643 32.8926 24.7256 33.9033 24.7256C34.9043 24.7256 35.6953 24.3643 36.2764 23.6416C36.8574 22.9141 37.1479 21.9375 37.1479 20.7119C37.1479 19.4814 36.8574 18.5073 36.2764 17.7896C35.6953 17.0669 34.9043 16.7056 33.9033 16.7056ZM46.7078 18.0239V19.3496H44.1955V26H42.6208V19.3496H40.1086V18.0239H46.7078ZM50.1738 22.5137H49.8149V26H48.2402V18.0239H49.8149V21.2612H50.1665L53.0449 18.0239H54.8979L51.4629 21.73L55.0444 26H53.0815L50.1738 22.5137ZM60.6198 17.8921C61.6355 17.8921 62.4411 18.2632 63.0368 19.0054C63.6325 19.7427 63.9304 20.7437 63.9304 22.0083C63.9304 23.2729 63.6325 24.2764 63.0368 25.0186C62.446 25.7607 61.6452 26.1318 60.6345 26.1318C60.0681 26.1318 59.57 26.0146 59.1404 25.7803C58.7107 25.541 58.3908 25.2114 58.1809 24.7915H58.0564V28.6514H56.4817V18.0239H57.9978V19.3423H58.115C58.3542 18.8882 58.696 18.5342 59.1404 18.2803C59.5847 18.0215 60.0779 17.8921 60.6198 17.8921ZM60.1731 24.7183C60.842 24.7183 61.3645 24.479 61.7404 24.0005C62.1213 23.5171 62.3117 22.853 62.3117 22.0083C62.3117 21.1636 62.1213 20.502 61.7404 20.0234C61.3645 19.5449 60.8445 19.3057 60.1804 19.3057C59.5163 19.3057 58.9914 19.5498 58.6057 20.0381C58.2199 20.5215 58.0271 21.1807 58.0271 22.0156C58.0271 22.8457 58.2199 23.5049 58.6057 23.9932C58.9914 24.4766 59.5139 24.7183 60.1731 24.7183ZM72.9482 26V18.0239H74.5229V26H72.9482ZM68.7661 21.7886H67.3086V24.6743H68.7661C69.2446 24.6743 69.6255 24.5425 69.9087 24.2788C70.1967 24.0151 70.3408 23.666 70.3408 23.2314C70.3408 22.7969 70.1967 22.4478 69.9087 22.1841C69.6206 21.9204 69.2397 21.7886 68.7661 21.7886ZM65.7338 26V18.0239H67.3086V20.4702H68.8833C69.8061 20.4702 70.541 20.7192 71.0879 21.2173C71.6347 21.7153 71.9082 22.3867 71.9082 23.2314C71.9082 24.0762 71.6347 24.75 71.0879 25.2529C70.541 25.751 69.8061 26 68.8833 26H65.7338ZM82.6472 18.0239V19.3496H80.135V26H78.5603V19.3496H76.048V18.0239H82.6472ZM87.2119 21.7886H85.7543V24.6743H87.2119C87.6904 24.6743 88.0712 24.5425 88.3544 24.2788C88.6425 24.0151 88.7866 23.666 88.7866 23.2314C88.7866 22.7969 88.6425 22.4478 88.3544 22.1841C88.0663 21.9204 87.6855 21.7886 87.2119 21.7886ZM84.1796 26V18.0239H85.7543V20.4702H87.329C88.2519 20.4702 88.9868 20.7192 89.5336 21.2173C90.0805 21.7153 90.3539 22.3867 90.3539 23.2314C90.3539 24.0762 90.0805 24.75 89.5336 25.2529C88.9868 25.751 88.2519 26 87.329 26H84.1796ZM32.5044 37.2324H30.7686V39.2979H32.3286C33.2661 39.2979 33.7349 38.9512 33.7349 38.2578C33.7349 37.9355 33.6299 37.6841 33.4199 37.5034C33.2148 37.3228 32.9097 37.2324 32.5044 37.2324ZM32.4385 40.4551H30.7686V42.7915H32.6362C33.1001 42.7915 33.4541 42.6914 33.6982 42.4912C33.9424 42.291 34.0645 42.0029 34.0645 41.627C34.0645 40.8457 33.5225 40.4551 32.4385 40.4551ZM29.2085 44V36.0239H32.8047C33.5811 36.0239 34.1865 36.207 34.6211 36.5732C35.0605 36.9346 35.2803 37.4277 35.2803 38.0527C35.2803 38.458 35.1509 38.8218 34.8921 39.144C34.6382 39.4663 34.3184 39.6641 33.9326 39.7373V39.8618C34.4453 39.9204 34.8579 40.1206 35.1704 40.4624C35.4829 40.7993 35.6392 41.2119 35.6392 41.7002C35.6392 42.4033 35.3901 42.9624 34.8921 43.3774C34.394 43.7925 33.7104 44 32.8413 44H29.2085ZM39.4128 40.5137H39.0539V44H37.4792V36.0239H39.0539V39.2612H39.4055L42.2839 36.0239H44.137L40.7019 39.73L44.2834 44H42.3205L39.4128 40.5137ZM47.7495 40.3525C47.7104 40.9531 47.6421 41.4707 47.5444 41.9053C47.4468 42.335 47.3027 42.7207 47.1123 43.0625C46.9267 43.3994 46.6802 43.6533 46.3725 43.8242C46.0649 43.9951 45.6963 44.0806 45.2666 44.0806C45.0566 44.0806 44.876 44.0513 44.7246 43.9927V42.5205C44.8564 42.5596 44.998 42.5791 45.1494 42.5791C45.5156 42.5791 45.7842 42.3813 45.9551 41.9858C46.1308 41.5903 46.2456 41.019 46.2993 40.272L46.5776 36.0239H52.0708V44H50.4961V37.3496H47.9692L47.7495 40.3525ZM56.8698 42.8062C57.4607 42.8062 57.9514 42.6401 58.342 42.3081C58.7375 41.9761 58.9353 41.561 58.9353 41.063V40.3965L56.987 40.521C56.4402 40.5552 56.0373 40.6675 55.7785 40.8579C55.5197 41.0483 55.3904 41.3193 55.3904 41.6709C55.3904 42.0225 55.5271 42.3008 55.8005 42.5059C56.0739 42.7061 56.4304 42.8062 56.8698 42.8062ZM56.467 44.1318C55.6858 44.1318 55.0461 43.9146 54.5481 43.48C54.0549 43.0405 53.8083 42.4619 53.8083 41.7441C53.8083 41.0312 54.0647 40.4722 54.5774 40.0669C55.0901 39.6567 55.8225 39.4224 56.7746 39.3638L58.9353 39.2393V38.5508C58.9353 38.126 58.7961 37.8013 58.5178 37.5767C58.2395 37.3472 57.8342 37.2324 57.302 37.2324C56.8625 37.2324 56.4963 37.3105 56.2033 37.4668C55.9153 37.6182 55.7273 37.8354 55.6394 38.1187H54.1159C54.1941 37.4351 54.5285 36.8906 55.1194 36.4854C55.7151 36.0752 56.467 35.8701 57.3752 35.8701C58.3713 35.8701 59.1404 36.1069 59.6823 36.5806C60.2292 37.0493 60.5027 37.7061 60.5027 38.5508V44H58.9865V42.8794H58.862C58.6228 43.2798 58.2932 43.5898 57.8733 43.8096C57.4582 44.0244 56.9895 44.1318 56.467 44.1318ZM67.726 42.6743V37.3496H64.9209L64.7011 40.3525C64.6181 41.3535 64.4106 42.0859 64.0786 42.5498V42.6743H67.726ZM63.1557 46.0874H61.6909V42.6743H62.3354C62.8628 42.3521 63.1704 41.5513 63.2583 40.272L63.5512 36.0239H69.2934V42.6743H70.5385V46.0874H69.081V44H63.1557V46.0874ZM77.3168 44H75.7568V36.0239H77.3168V41.5098H77.4413L81.1181 36.0239H82.6782V44H81.1181V38.4849H81.0009L77.3168 44ZM87.0231 40.3525C86.9841 40.9531 86.9157 41.4707 86.818 41.9053C86.7204 42.335 86.5763 42.7207 86.3859 43.0625C86.2004 43.3994 85.9538 43.6533 85.6462 43.8242C85.3386 43.9951 84.9699 44.0806 84.5402 44.0806C84.3303 44.0806 84.1496 44.0513 83.9982 43.9927V42.5205C84.1301 42.5596 84.2717 42.5791 84.423 42.5791C84.7892 42.5791 85.0578 42.3813 85.2287 41.9858C85.4045 41.5903 85.5192 41.019 85.5729 40.272L85.8512 36.0239H91.3444V44H89.7697V37.3496H87.2429L87.0231 40.3525ZM95.0888 44H93.5287V36.0239H95.0888V41.5098H95.2133L98.8901 36.0239H100.45V44H98.8901V38.4849H98.7729L95.0888 44ZM35.9688 56.6313H34.438C34.3403 56.2261 34.1279 55.8989 33.8008 55.6499C33.4785 55.4009 33.0635 55.2764 32.5557 55.2764C31.8965 55.2764 31.3765 55.5156 30.9956 55.9941C30.6196 56.4727 30.4316 57.1367 30.4316 57.9863C30.4316 58.8457 30.6196 59.522 30.9956 60.0151C31.3765 60.5034 31.8965 60.7476 32.5557 60.7476C33.0586 60.7476 33.4712 60.6353 33.7935 60.4106C34.1206 60.186 34.3354 59.8613 34.438 59.4365H35.9688C35.8662 60.2568 35.5146 60.916 34.9141 61.4141C34.3135 61.9072 33.5298 62.1538 32.563 62.1538C31.4009 62.1538 30.4854 61.7852 29.8164 61.0479C29.1523 60.3057 28.8203 59.2852 28.8203 57.9863C28.8203 56.707 29.1523 55.7012 29.8164 54.9688C30.4805 54.2363 31.3936 53.8701 32.5557 53.8701C33.5273 53.8701 34.311 54.124 34.9067 54.6318C35.5073 55.1396 35.8613 55.8062 35.9688 56.6313ZM43.8806 62H42.3059V58.6675H42.1814C41.698 59.0923 41.0632 59.3047 40.2771 59.3047C39.3494 59.3047 38.6243 59.041 38.1018 58.5137C37.5842 57.9814 37.3254 57.271 37.3254 56.3823V54.0239H38.9001V56.2798C38.9001 56.7729 39.0344 57.1611 39.303 57.4443C39.5764 57.7275 39.967 57.8691 40.4748 57.8691C41.2561 57.8691 41.8664 57.6445 42.3059 57.1953V54.0239H43.8806V62ZM50.7378 55.7744C50.3862 55.3984 49.9199 55.2104 49.3388 55.2104C48.7578 55.2104 48.2793 55.3984 47.9033 55.7744C47.5273 56.1504 47.3174 56.6509 47.2734 57.2759H51.3017C51.2822 56.646 51.0942 56.1455 50.7378 55.7744ZM51.2944 59.8467H52.8105C52.6299 60.5645 52.2344 61.1284 51.624 61.5386C51.0185 61.9487 50.2617 62.1538 49.3535 62.1538C48.2109 62.1538 47.31 61.7876 46.6509 61.0552C45.9966 60.3179 45.6694 59.312 45.6694 58.0376C45.6694 56.7632 46.0014 55.75 46.6655 54.998C47.3296 54.2461 48.2231 53.8701 49.3462 53.8701C50.4546 53.8701 51.3237 54.2266 51.9536 54.9395C52.5884 55.6523 52.9057 56.6362 52.9057 57.8911V58.4404H47.2734V58.5283C47.2978 59.2314 47.5005 59.7881 47.8813 60.1982C48.2622 60.6084 48.7676 60.8135 49.3974 60.8135C50.3594 60.8135 50.9917 60.4912 51.2944 59.8467ZM47.7861 52.9326C47.5078 52.9326 47.2734 52.8398 47.083 52.6543C46.8974 52.4639 46.8047 52.2295 46.8047 51.9512C46.8047 51.6729 46.8974 51.4385 47.083 51.248C47.2734 51.0576 47.5078 50.9624 47.7861 50.9624C48.0596 50.9624 48.289 51.0576 48.4746 51.248C48.665 51.4385 48.7602 51.6729 48.7602 51.9512C48.7602 52.2295 48.665 52.4639 48.4746 52.6543C48.289 52.8398 48.0596 52.9326 47.7861 52.9326ZM51.602 52.6543C51.4165 52.8398 51.187 52.9326 50.9136 52.9326C50.6401 52.9326 50.4082 52.8398 50.2178 52.6543C50.0273 52.4639 49.9321 52.2295 49.9321 51.9512C49.9321 51.6729 50.0273 51.4385 50.2178 51.248C50.4082 51.0576 50.6401 50.9624 50.9136 50.9624C51.187 50.9624 51.4165 51.0576 51.602 51.248C51.7925 51.4385 51.8877 51.6729 51.8877 51.9512C51.8877 52.2295 51.7925 52.4639 51.602 52.6543ZM60.1438 54.0239V55.3496H57.6316V62H56.0569V55.3496H53.5446V54.0239H60.1438Z" fill="#282B2E"/>
<rect x="73" y="76" width="40" height="40" rx="20" fill="#F4F6F7"/>
<path fill-rule="evenodd" clip-rule="evenodd" d="M82 89C82 87.8954 82.8954 87 84 87H102C103.105 87 104 87.8954 104 89V101C104 102.105 103.105 103 102 103V104C102 104.552 101.552 105 101 105H100C99.4477 105 99 104.552 99 104V103H87V104C87 104.552 86.5523 105 86 105H85C84.4477 105 84 104.552 84 104L84 103C82.8954 103 82 102.105 82 101V89ZM87 92C87.5523 92 88 92.4477 88 93V97C88 97.5523 87.5523 98 87 98C86.4477 98 86 97.5523 86 97V93C86 92.4477 86.4477 92 87 92ZM94 95C94 93.8954 94.8954 93 96 93C97.1046 93 98 93.8954 98 95C98 96.1046 97.1046 97 96 97C94.8954 97 94 96.1046 94 95ZM96 91C93.7909 91 92 92.7909 92 95C92 97.2091 93.7909 99 96 99C98.2091 99 100 97.2091 100 95C100 92.7909 98.2091 91 96 91Z" fill="#A7B1BA"/>
</g>
<g filter="url(#filter2_d_1092_17651)">
<rect x="250" width="109" height="128" rx="12" fill="white"/>
<path d="M267.903 15.1748C269.427 15.1748 270.628 15.6729 271.507 16.6689C272.386 17.6602 272.825 19.0078 272.825 20.7119C272.825 22.416 272.386 23.7661 271.507 24.7622C270.628 25.7583 269.427 26.2563 267.903 26.2563C266.375 26.2563 265.169 25.7607 264.285 24.7695C263.406 23.7734 262.967 22.4209 262.967 20.7119C262.967 19.0078 263.409 17.6602 264.292 16.6689C265.181 15.6729 266.385 15.1748 267.903 15.1748ZM267.903 16.7056C266.907 16.7056 266.114 17.0669 265.523 17.7896C264.937 18.5122 264.644 19.4863 264.644 20.7119C264.644 21.9375 264.935 22.9141 265.516 23.6416C266.097 24.3643 266.893 24.7256 267.903 24.7256C268.904 24.7256 269.695 24.3643 270.276 23.6416C270.857 22.9141 271.148 21.9375 271.148 20.7119C271.148 19.4814 270.857 18.5073 270.276 17.7896C269.695 17.0669 268.904 16.7056 267.903 16.7056ZM278.547 24.7622V19.2617C277.761 19.2812 277.136 19.5352 276.672 20.0234C276.208 20.5117 275.976 21.1733 275.976 22.0083C275.976 22.8481 276.206 23.5122 276.665 24.0005C277.129 24.4839 277.756 24.7378 278.547 24.7622ZM281.96 24.0005C282.424 23.5073 282.656 22.8433 282.656 22.0083C282.656 21.1733 282.424 20.5142 281.96 20.0308C281.496 19.5425 280.869 19.2861 280.078 19.2617V24.7622C280.869 24.7427 281.496 24.4888 281.96 24.0005ZM278.547 26.1025C277.278 26.0781 276.264 25.6997 275.508 24.9673C274.751 24.23 274.372 23.2437 274.372 22.0083C274.372 20.7778 274.751 19.7964 275.508 19.064C276.269 18.3267 277.282 17.9458 278.547 17.9214V15.3872H280.085V17.9214C281.355 17.9458 282.365 18.3267 283.117 19.064C283.874 19.7964 284.253 20.7803 284.253 22.0156C284.253 23.2461 283.874 24.23 283.117 24.9673C282.361 25.6997 281.35 26.0781 280.085 26.1025V28.6514H278.547V26.1025ZM289.425 26.1538C288.253 26.1538 287.333 25.7852 286.664 25.0479C285.995 24.3105 285.661 23.2974 285.661 22.0083C285.661 20.7241 285.995 19.7134 286.664 18.9761C287.338 18.2388 288.258 17.8701 289.425 17.8701C290.587 17.8701 291.503 18.2388 292.172 18.9761C292.846 19.7134 293.183 20.7241 293.183 22.0083C293.183 23.2974 292.848 24.3105 292.179 25.0479C291.51 25.7852 290.592 26.1538 289.425 26.1538ZM289.425 24.7549C290.104 24.7549 290.629 24.5156 291 24.0371C291.376 23.5537 291.564 22.8774 291.564 22.0083C291.564 21.144 291.376 20.4727 291 19.9941C290.629 19.5107 290.104 19.269 289.425 19.269C288.742 19.269 288.214 19.5083 287.843 19.9868C287.472 20.4653 287.287 21.1392 287.287 22.0083C287.287 22.8823 287.472 23.5586 287.843 24.0371C288.214 24.5156 288.742 24.7549 289.425 24.7549ZM299.117 17.8921C300.133 17.8921 300.938 18.2632 301.534 19.0054C302.13 19.7427 302.427 20.7437 302.427 22.0083C302.427 23.2729 302.13 24.2764 301.534 25.0186C300.943 25.7607 300.142 26.1318 299.132 26.1318C298.565 26.1318 298.067 26.0146 297.637 25.7803C297.208 25.541 296.888 25.2114 296.678 24.7915H296.553V28.6514H294.979V18.0239H296.495V19.3423H296.612C296.851 18.8882 297.193 18.5342 297.637 18.2803C298.082 18.0215 298.575 17.8921 299.117 17.8921ZM298.67 24.7183C299.339 24.7183 299.862 24.479 300.238 24.0005C300.618 23.5171 300.809 22.853 300.809 22.0083C300.809 21.1636 300.618 20.502 300.238 20.0234C299.862 19.5449 299.342 19.3057 298.677 19.3057C298.013 19.3057 297.488 19.5498 297.103 20.0381C296.717 20.5215 296.524 21.1807 296.524 22.0156C296.524 22.8457 296.717 23.5049 297.103 23.9932C297.488 24.4766 298.011 24.7183 298.67 24.7183ZM305.762 26H304.231V18.0239H306.208L308.779 23.7295H308.904L311.482 18.0239H313.408V26H311.87V20.4995H311.731L309.394 25.6777H308.237L305.901 20.4995H305.762V26ZM317.153 26H315.592V18.0239H317.153V23.5098H317.277L320.954 18.0239H322.514V26H320.954V20.4849H320.837L317.153 26ZM330.645 18.0239V19.3496H328.133V26H326.559V19.3496H324.046V18.0239H330.645ZM335.21 21.7886H333.753V24.6743H335.21C335.689 24.6743 336.07 24.5425 336.353 24.2788C336.641 24.0151 336.785 23.666 336.785 23.2314C336.785 22.7969 336.641 22.4478 336.353 22.1841C336.065 21.9204 335.684 21.7886 335.21 21.7886ZM332.178 26V18.0239H333.753V20.4702H335.327C336.25 20.4702 336.985 20.7192 337.532 21.2173C338.079 21.7153 338.352 22.3867 338.352 23.2314C338.352 24.0762 338.079 24.75 337.532 25.2529C336.985 25.751 336.25 26 335.327 26H332.178ZM265.142 40.5137H264.783V44H263.208V36.0239H264.783V39.2612H265.135L268.013 36.0239H269.866L266.431 39.73L270.013 44H268.05L265.142 40.5137ZM275.588 35.8921C276.604 35.8921 277.409 36.2632 278.005 37.0054C278.601 37.7427 278.899 38.7437 278.899 40.0083C278.899 41.2729 278.601 42.2764 278.005 43.0186C277.414 43.7607 276.614 44.1318 275.603 44.1318C275.036 44.1318 274.538 44.0146 274.109 43.7803C273.679 43.541 273.359 43.2114 273.149 42.7915H273.025V46.6514H271.45V36.0239H272.966V37.3423H273.083C273.323 36.8882 273.664 36.5342 274.109 36.2803C274.553 36.0215 275.046 35.8921 275.588 35.8921ZM275.141 42.7183C275.81 42.7183 276.333 42.479 276.709 42.0005C277.09 41.5171 277.28 40.853 277.28 40.0083C277.28 39.1636 277.09 38.502 276.709 38.0234C276.333 37.5449 275.813 37.3057 275.149 37.3057C274.485 37.3057 273.96 37.5498 273.574 38.0381C273.188 38.5215 272.995 39.1807 272.995 40.0156C272.995 40.8457 273.188 41.5049 273.574 41.9932C273.96 42.4766 274.482 42.7183 275.141 42.7183ZM285.382 37.7744C285.031 37.3984 284.564 37.2104 283.983 37.2104C283.402 37.2104 282.924 37.3984 282.548 37.7744C282.172 38.1504 281.962 38.6509 281.918 39.2759H285.946C285.927 38.646 285.739 38.1455 285.382 37.7744ZM285.939 41.8467H287.455C287.274 42.5645 286.879 43.1284 286.269 43.5386C285.663 43.9487 284.906 44.1538 283.998 44.1538C282.855 44.1538 281.955 43.7876 281.295 43.0552C280.641 42.3179 280.314 41.312 280.314 40.0376C280.314 38.7632 280.646 37.75 281.31 36.998C281.974 36.2461 282.868 35.8701 283.991 35.8701C285.099 35.8701 285.968 36.2266 286.598 36.9395C287.233 37.6523 287.55 38.6362 287.55 39.8911V40.4404H281.918V40.5283C281.942 41.2314 282.145 41.7881 282.526 42.1982C282.907 42.6084 283.412 42.8135 284.042 42.8135C285.004 42.8135 285.636 42.4912 285.939 41.8467ZM294.363 42.6743V37.3496H291.558L291.339 40.3525C291.256 41.3535 291.048 42.0859 290.716 42.5498V42.6743H294.363ZM289.793 46.0874H288.328V42.6743H288.973C289.5 42.3521 289.808 41.5513 289.896 40.272L290.189 36.0239H295.931V42.6743H297.176V46.0874H295.718V44H289.793V46.0874ZM300.093 44H298.533V36.0239H300.093V41.5098H300.217L303.894 36.0239H305.454V44H303.894V38.4849H303.777L300.093 44ZM313.586 36.0239V37.3496H311.073V44H309.499V37.3496H306.987V36.0239H313.586ZM320.37 44V40.543H316.693V44H315.118V36.0239H316.693V39.2173H320.37V36.0239H321.937V44H320.37ZM324.846 46.8931C324.573 46.8931 324.356 46.8809 324.195 46.8564V45.5015C324.307 45.521 324.478 45.5308 324.707 45.5308C325.083 45.5308 325.383 45.4453 325.608 45.2744C325.833 45.1035 326.013 44.8179 326.15 44.4175L326.267 44.0293L323.382 36.0239H325.095L327.095 42.3594H327.219L329.212 36.0239H330.882L327.908 44.3296C327.566 45.2964 327.173 45.9653 326.729 46.3364C326.289 46.7075 325.662 46.8931 324.846 46.8931ZM338.918 44.1538C337.853 44.1538 336.997 43.8364 336.347 43.2017C335.698 42.562 335.329 41.6758 335.241 40.543H333.893V44H332.319V36.0239H333.893V39.2173H335.27C335.397 38.1675 335.781 37.3472 336.42 36.7563C337.065 36.1655 337.897 35.8701 338.918 35.8701C340.065 35.8701 340.969 36.2388 341.628 36.9761C342.292 37.7085 342.624 38.7192 342.624 40.0083C342.624 41.3022 342.292 42.3179 341.628 43.0552C340.969 43.7876 340.065 44.1538 338.918 44.1538ZM337.38 42.0371C337.741 42.5156 338.254 42.7549 338.918 42.7549C339.582 42.7549 340.095 42.5156 340.456 42.0371C340.817 41.5586 340.998 40.8823 340.998 40.0083C340.998 39.1392 340.817 38.4653 340.456 37.9868C340.095 37.5083 339.582 37.269 338.918 37.269C338.254 37.269 337.741 37.5083 337.38 37.9868C337.018 38.4653 336.838 39.1392 336.838 40.0083C336.838 40.8823 337.018 41.5586 337.38 42.0371ZM265.142 58.5137H264.783V62H263.208V54.0239H264.783V57.2612H265.135L268.013 54.0239H269.866L266.431 57.73L270.013 62H268.05L265.142 58.5137ZM273.816 60.8062C274.406 60.8062 274.897 60.6401 275.288 60.3081C275.683 59.9761 275.881 59.561 275.881 59.063V58.3965L273.933 58.521C273.386 58.5552 272.983 58.6675 272.724 58.8579C272.466 59.0483 272.336 59.3193 272.336 59.6709C272.336 60.0225 272.473 60.3008 272.746 60.5059C273.02 60.7061 273.376 60.8062 273.816 60.8062ZM273.413 62.1318C272.632 62.1318 271.992 61.9146 271.494 61.48C271.001 61.0405 270.754 60.4619 270.754 59.7441C270.754 59.0312 271.01 58.4722 271.523 58.0669C272.036 57.6567 272.768 57.4224 273.72 57.3638L275.881 57.2393V56.5508C275.881 56.126 275.742 55.8013 275.464 55.5767C275.185 55.3472 274.78 55.2324 274.248 55.2324C273.808 55.2324 273.442 55.3105 273.149 55.4668C272.861 55.6182 272.673 55.8354 272.585 56.1187H271.062C271.14 55.4351 271.474 54.8906 272.065 54.4854C272.661 54.0752 273.413 53.8701 274.321 53.8701C275.317 53.8701 276.086 54.1069 276.628 54.5806C277.175 55.0493 277.448 55.7061 277.448 56.5508V62H275.932V60.8794H275.808C275.569 61.2798 275.239 61.5898 274.819 61.8096C274.404 62.0244 273.935 62.1318 273.413 62.1318ZM283.727 53.8921C284.743 53.8921 285.548 54.2632 286.144 55.0054C286.74 55.7427 287.038 56.7437 287.038 58.0083C287.038 59.2729 286.74 60.2764 286.144 61.0186C285.553 61.7607 284.752 62.1318 283.742 62.1318C283.175 62.1318 282.677 62.0146 282.248 61.7803C281.818 61.541 281.498 61.2114 281.288 60.7915H281.164V64.6514H279.589V54.0239H281.105V55.3423H281.222C281.461 54.8882 281.803 54.5342 282.248 54.2803C282.692 54.0215 283.185 53.8921 283.727 53.8921ZM283.28 60.7183C283.949 60.7183 284.472 60.479 284.848 60.0005C285.228 59.5171 285.419 58.853 285.419 58.0083C285.419 57.1636 285.228 56.502 284.848 56.0234C284.472 55.5449 283.952 55.3057 283.288 55.3057C282.624 55.3057 282.099 55.5498 281.713 56.0381C281.327 56.5215 281.134 57.1807 281.134 58.0156C281.134 58.8457 281.327 59.5049 281.713 59.9932C282.099 60.4766 282.621 60.7183 283.28 60.7183ZM294.305 54.0239V55.3496H291.793V62H290.218V55.3496H287.706V54.0239H294.305ZM296.636 64.8931C296.362 64.8931 296.145 64.8809 295.984 64.8564V63.5015C296.096 63.521 296.267 63.5308 296.497 63.5308C296.873 63.5308 297.173 63.4453 297.397 63.2744C297.622 63.1035 297.803 62.8179 297.939 62.4175L298.057 62.0293L295.171 54.0239H296.885L298.884 60.3594H299.009L301.001 54.0239H302.671L299.697 62.3296C299.355 63.2964 298.962 63.9653 298.518 64.3364C298.079 64.7075 297.451 64.8931 296.636 64.8931Z" fill="#282B2E"/>
<rect x="307" y="76" width="40" height="40" rx="20" fill="#F4F6F7"/>
<path fill-rule="evenodd" clip-rule="evenodd" d="M316 95C316 93.8954 316.895 93 318 93L330 93C331.105 93 332 93.8954 332 95V103C332 104.105 331.105 105 330 105H318C316.895 105 316 104.105 316 103V95ZM326.586 96.9685C326.844 96.6451 326.792 96.1731 326.469 95.9144C326.145 95.6556 325.673 95.7081 325.414 96.0315L321.414 101.032C321.156 101.355 321.208 101.827 321.531 102.086C321.855 102.344 322.327 102.292 322.586 101.969L326.586 96.9685ZM322 97C322 97.5523 321.552 98 321 98C320.448 98 320 97.5523 320 97C320 96.4477 320.448 96 321 96C321.552 96 322 96.4477 322 97ZM328 101C328 101.552 327.552 102 327 102C326.448 102 326 101.552 326 101C326 100.448 326.448 100 327 100C327.552 100 328 100.448 328 101ZM322 89C322 87.8954 322.895 87 324 87H336C337.105 87 338 87.8954 338 89V97C338 98.1046 337.105 99 336 99H334L334 93C334 91.8954 333.105 91 332 91L322 91V89Z" fill="#A7B1BA"/>
</g>
<g filter="url(#filter3_d_1092_17651)">
<rect x="16" y="136" width="167.5" height="128" rx="12" fill="white"/>
<path d="M36.4888 162V154.207H36.3643L30.9956 162H29.3989V151.431H31.0249V159.246H31.1494L36.5181 151.431H38.1147V162H36.4888ZM45.7336 162V158.543H42.0569V162H40.4822V154.024H42.0569V157.217H45.7336V154.024H47.301V162H45.7336ZM52.7812 155.232H51.0454V157.298H52.6054C53.5429 157.298 54.0117 156.951 54.0117 156.258C54.0117 155.936 53.9067 155.684 53.6968 155.503C53.4917 155.323 53.1865 155.232 52.7812 155.232ZM52.7153 158.455H51.0454V160.792H52.9131C53.3769 160.792 53.7309 160.691 53.9751 160.491C54.2192 160.291 54.3413 160.003 54.3413 159.627C54.3413 158.846 53.7993 158.455 52.7153 158.455ZM49.4853 162V154.024H53.0815C53.8579 154.024 54.4634 154.207 54.8979 154.573C55.3374 154.935 55.5571 155.428 55.5571 156.053C55.5571 156.458 55.4277 156.822 55.1689 157.144C54.915 157.466 54.5952 157.664 54.2095 157.737V157.862C54.7221 157.92 55.1347 158.121 55.4472 158.462C55.7597 158.799 55.916 159.212 55.916 159.7C55.916 160.403 55.667 160.962 55.1689 161.377C54.6709 161.792 53.9873 162 53.1181 162H49.4853ZM62.3484 155.774C61.9968 155.398 61.5305 155.21 60.9494 155.21C60.3684 155.21 59.8899 155.398 59.5139 155.774C59.1379 156.15 58.9279 156.651 58.884 157.276H62.9123C62.8928 156.646 62.7048 156.146 62.3484 155.774ZM62.905 159.847H64.4211C64.2404 160.564 63.8449 161.128 63.2346 161.539C62.6291 161.949 61.8723 162.154 60.9641 162.154C59.8215 162.154 58.9206 161.788 58.2614 161.055C57.6071 160.318 57.28 159.312 57.28 158.038C57.28 156.763 57.612 155.75 58.2761 154.998C58.9402 154.246 59.8337 153.87 60.9568 153.87C62.0652 153.87 62.9343 154.227 63.5642 154.939C64.1989 155.652 64.5163 156.636 64.5163 157.891V158.44H58.884V158.528C58.9084 159.231 59.1111 159.788 59.4919 160.198C59.8728 160.608 60.3781 160.813 61.008 160.813C61.9699 160.813 62.6023 160.491 62.905 159.847ZM73.0654 156.631H71.5346C71.437 156.226 71.2246 155.899 70.8974 155.65C70.5752 155.401 70.1601 155.276 69.6523 155.276C68.9931 155.276 68.4731 155.516 68.0922 155.994C67.7163 156.473 67.5283 157.137 67.5283 157.986C67.5283 158.846 67.7163 159.522 68.0922 160.015C68.4731 160.503 68.9931 160.748 69.6523 160.748C70.1552 160.748 70.5678 160.635 70.8901 160.411C71.2172 160.186 71.4321 159.861 71.5346 159.437H73.0654C72.9629 160.257 72.6113 160.916 72.0107 161.414C71.4101 161.907 70.6264 162.154 69.6596 162.154C68.4975 162.154 67.582 161.785 66.913 161.048C66.249 160.306 65.917 159.285 65.917 157.986C65.917 156.707 66.249 155.701 66.913 154.969C67.5771 154.236 68.4902 153.87 69.6523 153.87C70.624 153.87 71.4077 154.124 72.0034 154.632C72.604 155.14 72.958 155.806 73.0654 156.631ZM80.3767 154.024V155.35H77.8645V162H76.2897V155.35H73.7775V154.024H80.3767ZM83.4692 162H81.9091V154.024H83.4692V159.51H83.5937L87.2705 154.024H88.8305V162H87.2705V156.485H87.1533L83.4692 162ZM95.153 153.892C96.1686 153.892 96.9743 154.263 97.57 155.005C98.1657 155.743 98.4636 156.744 98.4636 158.008C98.4636 159.273 98.1657 160.276 97.57 161.019C96.9792 161.761 96.1784 162.132 95.1677 162.132C94.6012 162.132 94.1032 162.015 93.6735 161.78C93.2438 161.541 92.924 161.211 92.714 160.792H92.5895V164.651H91.0148V154.024H92.5309V155.342H92.6481C92.8874 154.888 93.2292 154.534 93.6735 154.28C94.1179 154.021 94.611 153.892 95.153 153.892ZM94.7062 160.718C95.3752 160.718 95.8976 160.479 96.2736 160C96.6545 159.517 96.8449 158.853 96.8449 158.008C96.8449 157.164 96.6545 156.502 96.2736 156.023C95.8976 155.545 95.3776 155.306 94.7136 155.306C94.0495 155.306 93.5246 155.55 93.1388 156.038C92.7531 156.521 92.5602 157.181 92.5602 158.016C92.5602 158.846 92.7531 159.505 93.1388 159.993C93.5246 160.477 94.0471 160.718 94.7062 160.718ZM103.643 162.154C102.472 162.154 101.551 161.785 100.882 161.048C100.213 160.311 99.8788 159.297 99.8788 158.008C99.8788 156.724 100.213 155.713 100.882 154.976C101.556 154.239 102.476 153.87 103.643 153.87C104.806 153.87 105.721 154.239 106.39 154.976C107.064 155.713 107.401 156.724 107.401 158.008C107.401 159.297 107.066 160.311 106.397 161.048C105.728 161.785 104.81 162.154 103.643 162.154ZM103.643 160.755C104.322 160.755 104.847 160.516 105.218 160.037C105.594 159.554 105.782 158.877 105.782 158.008C105.782 157.144 105.594 156.473 105.218 155.994C104.847 155.511 104.322 155.269 103.643 155.269C102.96 155.269 102.433 155.508 102.061 155.987C101.69 156.465 101.505 157.139 101.505 158.008C101.505 158.882 101.69 159.559 102.061 160.037C102.433 160.516 102.96 160.755 103.643 160.755ZM112.493 155.232H110.757V157.298H112.317C113.255 157.298 113.723 156.951 113.723 156.258C113.723 155.936 113.618 155.684 113.408 155.503C113.203 155.323 112.898 155.232 112.493 155.232ZM112.427 158.455H110.757V160.792H112.625C113.089 160.792 113.443 160.691 113.687 160.491C113.931 160.291 114.053 160.003 114.053 159.627C114.053 158.846 113.511 158.455 112.427 158.455ZM109.197 162V154.024H112.793C113.569 154.024 114.175 154.207 114.61 154.573C115.049 154.935 115.269 155.428 115.269 156.053C115.269 156.458 115.139 156.822 114.881 157.144C114.627 157.466 114.307 157.664 113.921 157.737V157.862C114.434 157.92 114.846 158.121 115.159 158.462C115.471 158.799 115.628 159.212 115.628 159.7C115.628 160.403 115.379 160.962 114.881 161.377C114.382 161.792 113.699 162 112.83 162H109.197ZM120.082 160.806C120.673 160.806 121.164 160.64 121.555 160.308C121.95 159.976 122.148 159.561 122.148 159.063V158.396L120.2 158.521C119.653 158.555 119.25 158.667 118.991 158.858C118.732 159.048 118.603 159.319 118.603 159.671C118.603 160.022 118.74 160.301 119.013 160.506C119.287 160.706 119.643 160.806 120.082 160.806ZM119.68 162.132C118.898 162.132 118.259 161.915 117.761 161.48C117.267 161.041 117.021 160.462 117.021 159.744C117.021 159.031 117.277 158.472 117.79 158.067C118.303 157.657 119.035 157.422 119.987 157.364L122.148 157.239V156.551C122.148 156.126 122.009 155.801 121.73 155.577C121.452 155.347 121.047 155.232 120.515 155.232C120.075 155.232 119.709 155.311 119.416 155.467C119.128 155.618 118.94 155.835 118.852 156.119H117.329C117.407 155.435 117.741 154.891 118.332 154.485C118.928 154.075 119.68 153.87 120.588 153.87C121.584 153.87 122.353 154.107 122.895 154.581C123.442 155.049 123.715 155.706 123.715 156.551V162H122.199V160.879H122.075C121.835 161.28 121.506 161.59 121.086 161.81C120.671 162.024 120.202 162.132 119.68 162.132ZM131.803 154.024V155.35H129.291V162H127.716V155.35H125.204V154.024H131.803ZM136.368 157.789H134.91V160.674H136.368C136.846 160.674 137.227 160.542 137.51 160.279C137.798 160.015 137.942 159.666 137.942 159.231C137.942 158.797 137.798 158.448 137.51 158.184C137.222 157.92 136.841 157.789 136.368 157.789ZM133.335 162V154.024H134.91V156.47H136.485C137.408 156.47 138.142 156.719 138.689 157.217C139.236 157.715 139.51 158.387 139.51 159.231C139.51 160.076 139.236 160.75 138.689 161.253C138.142 161.751 137.408 162 136.485 162H133.335ZM35.9688 174.631H34.438C34.3403 174.226 34.1279 173.899 33.8008 173.65C33.4785 173.401 33.0635 173.276 32.5557 173.276C31.8965 173.276 31.3765 173.516 30.9956 173.994C30.6196 174.473 30.4316 175.137 30.4316 175.986C30.4316 176.846 30.6196 177.522 30.9956 178.015C31.3765 178.503 31.8965 178.748 32.5557 178.748C33.0586 178.748 33.4712 178.635 33.7935 178.411C34.1206 178.186 34.3354 177.861 34.438 177.437H35.9688C35.8662 178.257 35.5146 178.916 34.9141 179.414C34.3135 179.907 33.5298 180.154 32.563 180.154C31.4009 180.154 30.4854 179.785 29.8164 179.048C29.1523 178.306 28.8203 177.285 28.8203 175.986C28.8203 174.707 29.1523 173.701 29.8164 172.969C30.4805 172.236 31.3936 171.87 32.5557 171.87C33.5273 171.87 34.311 172.124 34.9067 172.632C35.5073 173.14 35.8613 173.806 35.9688 174.631ZM41.8079 171.892C42.8235 171.892 43.6291 172.263 44.2248 173.005C44.8205 173.743 45.1184 174.744 45.1184 176.008C45.1184 177.273 44.8205 178.276 44.2248 179.019C43.634 179.761 42.8332 180.132 41.8225 180.132C41.2561 180.132 40.758 180.015 40.3284 179.78C39.8987 179.541 39.5788 179.211 39.3689 178.792H39.2444V182.651H37.6697V172.024H39.1858V173.342H39.303C39.5422 172.888 39.884 172.534 40.3284 172.28C40.7727 172.021 41.2659 171.892 41.8079 171.892ZM41.3611 178.718C42.03 178.718 42.5525 178.479 42.9285 178C43.3093 177.517 43.4997 176.853 43.4997 176.008C43.4997 175.164 43.3093 174.502 42.9285 174.023C42.5525 173.545 42.0325 173.306 41.3684 173.306C40.7043 173.306 40.1794 173.55 39.7937 174.038C39.4079 174.521 39.2151 175.181 39.2151 176.016C39.2151 176.846 39.4079 177.505 39.7937 177.993C40.1794 178.477 40.7019 178.718 41.3611 178.718ZM51.602 173.774C51.2505 173.398 50.7842 173.21 50.2031 173.21C49.6221 173.21 49.1435 173.398 48.7676 173.774C48.3916 174.15 48.1816 174.651 48.1377 175.276H52.166C52.1465 174.646 51.9585 174.146 51.602 173.774ZM52.1587 177.847H53.6748C53.4941 178.564 53.0986 179.128 52.4883 179.539C51.8828 179.949 51.126 180.154 50.2178 180.154C49.0752 180.154 48.1743 179.788 47.5151 179.055C46.8608 178.318 46.5337 177.312 46.5337 176.038C46.5337 174.763 46.8657 173.75 47.5298 172.998C48.1938 172.246 49.0874 171.87 50.2104 171.87C51.3188 171.87 52.188 172.227 52.8179 172.939C53.4526 173.652 53.77 174.636 53.77 175.891V176.44H48.1377V176.528C48.1621 177.231 48.3647 177.788 48.7456 178.198C49.1264 178.608 49.6318 178.813 50.2617 178.813C51.2236 178.813 51.8559 178.491 52.1587 177.847ZM60.5832 178.674V173.35H57.778L57.5583 176.353C57.4753 177.354 57.2678 178.086 56.9358 178.55V178.674H60.5832ZM56.0129 182.087H54.5481V178.674H55.1926C55.7199 178.352 56.0276 177.551 56.1154 176.272L56.4084 172.024H62.1506V178.674H63.3957V182.087H61.9382V180H56.0129V182.087ZM71.5127 174.631H69.9819C69.8842 174.226 69.6718 173.899 69.3447 173.65C69.0224 173.401 68.6074 173.276 68.0996 173.276C67.4404 173.276 66.9204 173.516 66.5395 173.994C66.1635 174.473 65.9755 175.137 65.9755 175.986C65.9755 176.846 66.1635 177.522 66.5395 178.015C66.9204 178.503 67.4404 178.748 68.0996 178.748C68.6025 178.748 69.0151 178.635 69.3374 178.411C69.6645 178.186 69.8794 177.861 69.9819 177.437H71.5127C71.4101 178.257 71.0586 178.916 70.458 179.414C69.8574 179.907 69.0737 180.154 68.1069 180.154C66.9448 180.154 66.0293 179.785 65.3603 179.048C64.6963 178.306 64.3642 177.285 64.3642 175.986C64.3642 174.707 64.6963 173.701 65.3603 172.969C66.0244 172.236 66.9375 171.87 68.0996 171.87C69.0713 171.87 69.8549 172.124 70.4506 172.632C71.0512 173.14 71.4052 173.806 71.5127 174.631ZM78.8239 172.024V173.35H76.3117V180H74.737V173.35H72.2248V172.024H78.8239ZM83.6523 173.232H81.9164V175.298H83.4765C84.414 175.298 84.8828 174.951 84.8828 174.258C84.8828 173.936 84.7778 173.684 84.5678 173.503C84.3627 173.323 84.0576 173.232 83.6523 173.232ZM83.5864 176.455H81.9164V178.792H83.7841C84.248 178.792 84.602 178.691 84.8461 178.491C85.0903 178.291 85.2123 178.003 85.2123 177.627C85.2123 176.846 84.6704 176.455 83.5864 176.455ZM80.3564 180V172.024H83.9526C84.7289 172.024 85.3344 172.207 85.769 172.573C86.2084 172.935 86.4282 173.428 86.4282 174.053C86.4282 174.458 86.2988 174.822 86.04 175.144C85.7861 175.466 85.4663 175.664 85.0805 175.737V175.862C85.5932 175.92 86.0058 176.121 86.3183 176.462C86.6308 176.799 86.7871 177.212 86.7871 177.7C86.7871 178.403 86.538 178.962 86.04 179.377C85.5419 179.792 84.8583 180 83.9892 180H80.3564ZM91.2419 178.806C91.8327 178.806 92.3234 178.64 92.714 178.308C93.1096 177.976 93.3073 177.561 93.3073 177.063V176.396L91.3591 176.521C90.8122 176.555 90.4094 176.667 90.1506 176.858C89.8918 177.048 89.7624 177.319 89.7624 177.671C89.7624 178.022 89.8991 178.301 90.1725 178.506C90.446 178.706 90.8024 178.806 91.2419 178.806ZM90.839 180.132C90.0578 180.132 89.4181 179.915 88.9201 179.48C88.4269 179.041 88.1804 178.462 88.1804 177.744C88.1804 177.031 88.4367 176.472 88.9494 176.067C89.4621 175.657 90.1945 175.422 91.1467 175.364L93.3073 175.239V174.551C93.3073 174.126 93.1681 173.801 92.8898 173.577C92.6115 173.347 92.2062 173.232 91.674 173.232C91.2346 173.232 90.8683 173.311 90.5754 173.467C90.2873 173.618 90.0993 173.835 90.0114 174.119H88.488C88.5661 173.435 88.9006 172.891 89.4914 172.485C90.0871 172.075 90.839 171.87 91.7472 171.87C92.7433 171.87 93.5124 172.107 94.0544 172.581C94.6012 173.049 94.8747 173.706 94.8747 174.551V180H93.3586V178.879H93.2341C92.9948 179.28 92.6652 179.59 92.2453 179.81C91.8303 180.024 91.3615 180.132 90.839 180.132Z" fill="#282B2E"/>
<path d="M30.3804 233H29.2314V223.84H34.665V224.881H30.3804V233ZM40.4142 232.175C39.8514 232.805 39.0833 233.121 38.11 233.121C37.1367 233.121 36.3665 232.805 35.7994 232.175C35.2366 231.54 34.9552 230.675 34.9552 229.579C34.9552 228.478 35.2366 227.613 35.7994 226.982C36.3623 226.352 37.1324 226.037 38.11 226.037C39.0875 226.037 39.8577 226.352 40.4205 226.982C40.9834 227.613 41.2648 228.478 41.2648 229.579C41.2648 230.675 40.9812 231.54 40.4142 232.175ZM36.6119 231.47C36.9632 231.915 37.4625 232.137 38.11 232.137C38.7574 232.137 39.2568 231.915 39.608 231.47C39.9593 231.022 40.1349 230.391 40.1349 229.579C40.1349 228.766 39.9593 228.138 39.608 227.693C39.2568 227.245 38.7574 227.021 38.11 227.021C37.4625 227.021 36.9632 227.245 36.6119 227.693C36.2607 228.138 36.0851 228.766 36.0851 229.579C36.0851 230.391 36.2607 231.022 36.6119 231.47ZM47.5344 226.157V227.071H45.3127V233H44.221V227.071H41.9993V226.157H47.5344ZM53.9183 232.175C53.3555 232.805 52.5875 233.121 51.6141 233.121C50.6408 233.121 49.8707 232.805 49.3036 232.175C48.7408 231.54 48.4594 230.675 48.4594 229.579C48.4594 228.478 48.7408 227.613 49.3036 226.982C49.8664 226.352 50.6366 226.037 51.6141 226.037C52.5917 226.037 53.3619 226.352 53.9247 226.982C54.4875 227.613 54.7689 228.478 54.7689 229.579C54.7689 230.675 54.4854 231.54 53.9183 232.175ZM50.1161 231.47C50.4673 231.915 50.9667 232.137 51.6141 232.137C52.2616 232.137 52.761 231.915 53.1122 231.47C53.4634 231.022 53.639 230.391 53.639 229.579C53.639 228.766 53.4634 228.138 53.1122 227.693C52.761 227.245 52.2616 227.021 51.6141 227.021C50.9667 227.021 50.4673 227.245 50.1161 227.693C49.7649 228.138 49.5892 228.766 49.5892 229.579C49.5892 230.391 49.7649 231.022 50.1161 231.47ZM59.2866 227.071H57.6172V229.001H59.1089C59.9679 229.001 60.3975 228.675 60.3975 228.023C60.3975 227.727 60.3044 227.494 60.1182 227.325C59.9362 227.156 59.659 227.071 59.2866 227.071ZM59.2041 229.915H57.6172V232.086H59.4136C59.8325 232.086 60.1499 231.995 60.3657 231.813C60.5858 231.627 60.6958 231.36 60.6958 231.013C60.6958 230.637 60.571 230.359 60.3213 230.182C60.0759 230.004 59.7035 229.915 59.2041 229.915ZM56.5254 233V226.157H59.4263C60.0653 226.157 60.5667 226.316 60.9307 226.633C61.2946 226.946 61.4766 227.372 61.4766 227.909C61.4766 228.248 61.3687 228.557 61.1528 228.836C60.9413 229.111 60.6768 229.282 60.3594 229.35V229.452C60.791 229.511 61.1359 229.687 61.3941 229.979C61.6522 230.266 61.7813 230.618 61.7813 231.032C61.7813 231.633 61.5739 232.111 61.1592 232.467C60.7445 232.822 60.1711 233 59.439 233H56.5254ZM69.5553 233V226.157H70.6471V233H69.5553ZM66.0133 229.268H64.6613V232.086H66.0133C66.4619 232.086 66.8195 231.959 67.0861 231.705C67.3569 231.447 67.4923 231.104 67.4923 230.677C67.4923 230.249 67.3569 229.909 67.0861 229.655C66.8195 229.397 66.4619 229.268 66.0133 229.268ZM63.5695 233V226.157H64.6613V228.354H66.0133C66.7962 228.354 67.4204 228.563 67.8859 228.982C68.3514 229.401 68.5841 229.966 68.5841 230.677C68.5841 231.388 68.3514 231.953 67.8859 232.372C67.4204 232.791 66.7962 233 66.0133 233H63.5695ZM75.4822 227.001C74.9363 227.001 74.4877 227.186 74.1365 227.554C73.7853 227.922 73.5885 228.409 73.5462 229.014H77.3167C77.304 228.409 77.1305 227.922 76.7962 227.554C76.4619 227.186 76.0239 227.001 75.4822 227.001ZM77.2849 231.229H78.3767C78.2117 231.821 77.8753 232.285 77.3675 232.619C76.8639 232.953 76.2397 233.121 75.4949 233.121C74.547 233.121 73.7958 232.803 73.2415 232.168C72.6871 231.529 72.4099 230.668 72.4099 229.585C72.4099 228.506 72.6892 227.645 73.2478 227.001C73.8064 226.358 74.5554 226.037 75.4949 226.037C76.4174 226.037 77.1432 226.343 77.6721 226.957C78.2011 227.571 78.4656 228.411 78.4656 229.477V229.896H73.5462V229.947C73.5758 230.624 73.7662 231.161 74.1175 231.559C74.4729 231.957 74.9405 232.156 75.5203 232.156C76.4047 232.156 76.9929 231.847 77.2849 231.229ZM32.418 242.037C33.2897 242.037 33.9858 242.358 34.5063 243.001C35.0311 243.645 35.2935 244.504 35.2935 245.579C35.2935 246.649 35.0311 247.508 34.5063 248.156C33.9816 248.799 33.2855 249.121 32.418 249.121C31.9313 249.121 31.4997 249.021 31.123 248.822C30.7464 248.619 30.465 248.336 30.2788 247.972H30.1772V251.285H29.0854V242.157H30.1265V243.3H30.228C30.4481 242.906 30.7507 242.597 31.1357 242.373C31.5251 242.149 31.9525 242.037 32.418 242.037ZM32.1577 248.137C32.784 248.137 33.2749 247.91 33.6304 247.458C33.9858 247.005 34.1636 246.378 34.1636 245.579C34.1636 244.779 33.9858 244.153 33.6304 243.7C33.2791 243.247 32.7904 243.021 32.1641 243.021C31.5462 243.021 31.0553 243.251 30.6914 243.712C30.3275 244.169 30.1455 244.792 30.1455 245.579C30.1455 246.361 30.3254 246.984 30.6851 247.445C31.049 247.906 31.5399 248.137 32.1577 248.137ZM39.7921 243.001C39.2462 243.001 38.7977 243.186 38.4464 243.554C38.0952 243.922 37.8984 244.409 37.8561 245.014H41.6266C41.6139 244.409 41.4404 243.922 41.1061 243.554C40.7718 243.186 40.3338 243.001 39.7921 243.001ZM41.5949 247.229H42.6866C42.5216 247.821 42.1852 248.285 41.6774 248.619C41.1738 248.953 40.5496 249.121 39.8048 249.121C38.8569 249.121 38.1058 248.803 37.5514 248.168C36.997 247.529 36.7199 246.668 36.7199 245.585C36.7199 244.506 36.9991 243.645 37.5577 243.001C38.1163 242.358 38.8654 242.037 39.8048 242.037C40.7273 242.037 41.4531 242.343 41.9821 242.957C42.511 243.571 42.7755 244.411 42.7755 245.477V245.896H37.8561V245.947C37.8857 246.624 38.0761 247.161 38.4274 247.559C38.7828 247.957 39.2505 248.156 39.8302 248.156C40.7146 248.156 41.3029 247.847 41.5949 247.229ZM44.532 249V242.157H45.6238V248.086H48.2136V242.157H49.3054V248.086H51.8953V242.157H52.9871V249H44.532ZM57.8158 243.001C57.2699 243.001 56.8213 243.186 56.4701 243.554C56.1189 243.922 55.9221 244.409 55.8798 245.014H59.6503C59.6376 244.409 59.4641 243.922 59.1298 243.554C58.7955 243.186 58.3575 243.001 57.8158 243.001ZM59.6185 247.229H60.7103C60.5453 247.821 60.2089 248.285 59.7011 248.619C59.1975 248.953 58.5733 249.121 57.8285 249.121C56.8806 249.121 56.1294 248.803 55.5751 248.168C55.0207 247.529 54.7435 246.668 54.7435 245.585C54.7435 244.506 55.0228 243.645 55.5814 243.001C56.14 242.358 56.889 242.037 57.8285 242.037C58.751 242.037 59.4768 242.343 60.0057 242.957C60.5347 243.571 60.7992 244.411 60.7992 245.477V245.896H55.8798V245.947C55.9094 246.624 56.0998 247.161 56.4511 247.559C56.8065 247.957 57.2741 248.156 57.8539 248.156C58.7383 248.156 59.3265 247.847 59.6185 247.229ZM67.0625 249V245.902H63.6475V249H62.5557V242.157H63.6475V244.988H67.0625V242.157H68.1543V249H67.0625ZM71.339 249H70.2472V242.157H71.339V247.261H71.4406L74.8493 242.157H75.9411V249H74.8493V243.896H74.7477L71.339 249ZM80.3953 245.636H81.6839V243.071H80.3953C79.9425 243.071 79.5828 243.19 79.3162 243.427C79.0496 243.66 78.9163 243.983 78.9163 244.398C78.9163 244.762 79.0517 245.06 79.3225 245.293C79.5934 245.521 79.9509 245.636 80.3953 245.636ZM81.6839 249V246.55H80.5095L78.7639 249H77.4627L79.3733 246.347C78.8909 246.211 78.5121 245.974 78.2371 245.636C77.962 245.297 77.8245 244.893 77.8245 244.423C77.8245 243.721 78.0551 243.169 78.5164 242.767C78.9819 242.36 79.6082 242.157 80.3953 242.157H82.7757V249H81.6839Z" fill="#A7B1BA"/>
<rect x="131.5" y="212" width="40" height="40" rx="20" fill="#F4F6F7"/>
<path d="M145.5 239H142.5C142.235 239 141.98 238.895 141.793 238.707C141.605 238.52 141.5 238.265 141.5 238L141.5 233C141.5 232.735 141.605 232.48 141.793 232.293C141.98 232.105 142.235 232 142.5 232H145.5C145.765 232 146.02 232.105 146.207 232.293C146.395 232.48 146.5 232.735 146.5 233V238C146.5 238.265 146.395 238.52 146.207 238.707C146.02 238.895 145.765 239 145.5 239ZM159.5 239H156.5C156.235 239 155.98 238.895 155.793 238.707C155.605 238.52 155.5 238.265 155.5 238V225C155.5 224.735 155.605 224.48 155.793 224.293C155.98 224.105 156.235 224 156.5 224H159.5C159.765 224 160.02 224.105 160.207 224.293C160.395 224.48 160.5 224.735 160.5 225V238C160.5 238.265 160.395 238.52 160.207 238.707C160.02 238.895 159.765 239 159.5 239ZM152.5 239H149.5C149.235 239 148.98 238.895 148.793 238.707C148.605 238.52 148.5 238.265 148.5 238V229C148.5 228.735 148.605 228.48 148.793 228.293C148.98 228.105 149.235 228 149.5 228H152.5C152.765 228 153.02 228.105 153.207 228.293C153.395 228.48 153.5 228.735 153.5 229V238C153.5 238.265 153.395 238.52 153.207 238.707C153.02 238.895 152.765 239 152.5 239Z" fill="#A7B1BA"/>
</g>
<g filter="url(#filter4_d_1092_17651)">
<rect x="191.5" y="136" width="167.5" height="128" rx="12" fill="white"/>
<path d="M209.403 151.175C210.927 151.175 212.128 151.673 213.007 152.669C213.886 153.66 214.325 155.008 214.325 156.712C214.325 158.416 213.886 159.766 213.007 160.762C212.128 161.758 210.927 162.256 209.403 162.256C207.875 162.256 206.669 161.761 205.785 160.77C204.906 159.773 204.467 158.421 204.467 156.712C204.467 155.008 204.909 153.66 205.792 152.669C206.681 151.673 207.885 151.175 209.403 151.175ZM209.403 152.706C208.407 152.706 207.614 153.067 207.023 153.79C206.437 154.512 206.144 155.486 206.144 156.712C206.144 157.938 206.435 158.914 207.016 159.642C207.597 160.364 208.393 160.726 209.403 160.726C210.404 160.726 211.195 160.364 211.776 159.642C212.357 158.914 212.648 157.938 212.648 156.712C212.648 155.481 212.357 154.507 211.776 153.79C211.195 153.067 210.404 152.706 209.403 152.706ZM220.047 160.762V155.262C219.261 155.281 218.636 155.535 218.172 156.023C217.708 156.512 217.476 157.173 217.476 158.008C217.476 158.848 217.706 159.512 218.165 160C218.629 160.484 219.256 160.738 220.047 160.762ZM223.46 160C223.924 159.507 224.156 158.843 224.156 158.008C224.156 157.173 223.924 156.514 223.46 156.031C222.996 155.542 222.369 155.286 221.578 155.262V160.762C222.369 160.743 222.996 160.489 223.46 160ZM220.047 162.103C218.778 162.078 217.764 161.7 217.008 160.967C216.251 160.23 215.872 159.244 215.872 158.008C215.872 156.778 216.251 155.796 217.008 155.064C217.769 154.327 218.782 153.946 220.047 153.921V151.387H221.585V153.921C222.855 153.946 223.865 154.327 224.617 155.064C225.374 155.796 225.753 156.78 225.753 158.016C225.753 159.246 225.374 160.23 224.617 160.967C223.861 161.7 222.85 162.078 221.585 162.103V164.651H220.047V162.103ZM230.925 162.154C229.753 162.154 228.833 161.785 228.164 161.048C227.495 160.311 227.161 159.297 227.161 158.008C227.161 156.724 227.495 155.713 228.164 154.976C228.838 154.239 229.758 153.87 230.925 153.87C232.087 153.87 233.003 154.239 233.672 154.976C234.346 155.713 234.683 156.724 234.683 158.008C234.683 159.297 234.348 160.311 233.679 161.048C233.01 161.785 232.092 162.154 230.925 162.154ZM230.925 160.755C231.604 160.755 232.129 160.516 232.5 160.037C232.876 159.554 233.064 158.877 233.064 158.008C233.064 157.144 232.876 156.473 232.5 155.994C232.129 155.511 231.604 155.269 230.925 155.269C230.242 155.269 229.714 155.508 229.343 155.987C228.972 156.465 228.787 157.139 228.787 158.008C228.787 158.882 228.972 159.559 229.343 160.037C229.714 160.516 230.242 160.755 230.925 160.755ZM240.617 153.892C241.633 153.892 242.438 154.263 243.034 155.005C243.63 155.743 243.927 156.744 243.927 158.008C243.927 159.273 243.63 160.276 243.034 161.019C242.443 161.761 241.642 162.132 240.632 162.132C240.065 162.132 239.567 162.015 239.137 161.78C238.708 161.541 238.388 161.211 238.178 160.792H238.053V164.651H236.479V154.024H237.995V155.342H238.112C238.351 154.888 238.693 154.534 239.137 154.28C239.582 154.021 240.075 153.892 240.617 153.892ZM240.17 160.718C240.839 160.718 241.362 160.479 241.738 160C242.118 159.517 242.309 158.853 242.309 158.008C242.309 157.164 242.118 156.502 241.738 156.023C241.362 155.545 240.842 155.306 240.177 155.306C239.513 155.306 238.988 155.55 238.603 156.038C238.217 156.521 238.024 157.181 238.024 158.016C238.024 158.846 238.217 159.505 238.603 159.993C238.988 160.477 239.511 160.718 240.17 160.718ZM247.262 162H245.731V154.024H247.708L250.279 159.729H250.404L252.982 154.024H254.908V162H253.37V156.5H253.231L250.894 161.678H249.737L247.401 156.5H247.262V162ZM258.653 162H257.092V154.024H258.653V159.51H258.777L262.454 154.024H264.014V162H262.454V156.485H262.337L258.653 162ZM272.145 154.024V155.35H269.633V162H268.059V155.35H265.546V154.024H272.145ZM276.71 157.789H275.253V160.674H276.71C277.189 160.674 277.57 160.542 277.853 160.279C278.141 160.015 278.285 159.666 278.285 159.231C278.285 158.797 278.141 158.448 277.853 158.184C277.565 157.92 277.184 157.789 276.71 157.789ZM273.678 162V154.024H275.253V156.47H276.827C277.75 156.47 278.485 156.719 279.032 157.217C279.579 157.715 279.852 158.387 279.852 159.231C279.852 160.076 279.579 160.75 279.032 161.253C278.485 161.751 277.75 162 276.827 162H273.678ZM209.792 178.674V173.35H206.986L206.767 176.353C206.684 177.354 206.476 178.086 206.144 178.55V178.674H209.792ZM205.221 182.087H203.756V178.674H204.401C204.928 178.352 205.236 177.551 205.324 176.272L205.617 172.024H211.359V178.674H212.604V182.087H211.146V180H205.221V182.087ZM218.641 173.774C218.289 173.398 217.823 173.21 217.242 173.21C216.661 173.21 216.182 173.398 215.806 173.774C215.43 174.15 215.22 174.651 215.177 175.276H219.205C219.185 174.646 218.997 174.146 218.641 173.774ZM219.198 177.847H220.714C220.533 178.564 220.137 179.128 219.527 179.539C218.922 179.949 218.165 180.154 217.257 180.154C216.114 180.154 215.213 179.788 214.554 179.055C213.9 178.318 213.573 177.312 213.573 176.038C213.573 174.763 213.905 173.75 214.569 172.998C215.233 172.246 216.126 171.87 217.249 171.87C218.358 171.87 219.227 172.227 219.857 172.939C220.491 173.652 220.809 174.636 220.809 175.891V176.44H215.177V176.528C215.201 177.231 215.404 177.788 215.784 178.198C216.165 178.608 216.671 178.813 217.301 178.813C218.262 178.813 218.895 178.491 219.198 177.847ZM224.407 178.066C224.788 178.525 225.325 178.755 226.018 178.755C226.711 178.755 227.246 178.525 227.622 178.066C228.003 177.607 228.193 176.958 228.193 176.118C228.193 175.317 228.003 174.697 227.622 174.258C227.246 173.818 226.711 173.599 226.018 173.599C225.325 173.599 224.788 173.818 224.407 174.258C224.031 174.697 223.843 175.317 223.843 176.118C223.843 176.958 224.031 177.607 224.407 178.066ZM223.506 173.738H223.63C223.879 173.274 224.228 172.91 224.678 172.646C225.127 172.378 225.671 172.244 226.311 172.244C227.366 172.244 228.213 172.59 228.853 173.284C229.497 173.972 229.819 174.91 229.819 176.096C229.819 177.356 229.48 178.347 228.801 179.07C228.127 179.792 227.205 180.154 226.033 180.154C224.807 180.154 223.865 179.753 223.206 178.953C222.551 178.152 222.224 176.956 222.224 175.364C222.224 174.373 222.292 173.521 222.429 172.808C222.571 172.09 222.8 171.47 223.118 170.947C223.44 170.425 223.865 170.029 224.392 169.761C224.924 169.492 225.574 169.343 226.34 169.314L227.212 169.277C227.583 169.258 227.942 169.216 228.289 169.153C228.635 169.089 228.887 169.033 229.043 168.984C229.199 168.931 229.282 168.899 229.292 168.889V170.281C229.258 170.305 229.199 170.339 229.116 170.383C229.033 170.422 228.821 170.481 228.479 170.559C228.142 170.632 227.749 170.679 227.3 170.698L226.428 170.728C225.92 170.747 225.488 170.825 225.132 170.962C224.78 171.099 224.495 171.301 224.275 171.57C224.055 171.838 223.887 172.144 223.77 172.485C223.657 172.827 223.569 173.245 223.506 173.738ZM236.31 173.774C235.959 173.398 235.492 173.21 234.911 173.21C234.33 173.21 233.852 173.398 233.476 173.774C233.1 174.15 232.89 174.651 232.846 175.276H236.874C236.855 174.646 236.667 174.146 236.31 173.774ZM236.867 177.847H238.383C238.202 178.564 237.807 179.128 237.197 179.539C236.591 179.949 235.834 180.154 234.926 180.154C233.783 180.154 232.883 179.788 232.223 179.055C231.569 178.318 231.242 177.312 231.242 176.038C231.242 174.763 231.574 173.75 232.238 172.998C232.902 172.246 233.796 171.87 234.919 171.87C236.027 171.87 236.896 172.227 237.526 172.939C238.161 173.652 238.478 174.636 238.478 175.891V176.44H232.846V176.528C232.87 177.231 233.073 177.788 233.454 178.198C233.835 178.608 234.34 178.813 234.97 178.813C235.932 178.813 236.564 178.491 236.867 177.847ZM245.716 172.024V173.35H243.204V180H241.629V173.35H239.117V172.024H245.716ZM250.362 180.154C249.19 180.154 248.269 179.785 247.6 179.048C246.931 178.311 246.597 177.297 246.597 176.008C246.597 174.724 246.931 173.713 247.6 172.976C248.274 172.239 249.195 171.87 250.362 171.87C251.524 171.87 252.439 172.239 253.108 172.976C253.782 173.713 254.119 174.724 254.119 176.008C254.119 177.297 253.784 178.311 253.115 179.048C252.446 179.785 251.529 180.154 250.362 180.154ZM250.362 178.755C251.04 178.755 251.565 178.516 251.936 178.037C252.312 177.554 252.5 176.877 252.5 176.008C252.5 175.144 252.312 174.473 251.936 173.994C251.565 173.511 251.04 173.269 250.362 173.269C249.678 173.269 249.151 173.508 248.779 173.987C248.408 174.465 248.223 175.139 248.223 176.008C248.223 176.882 248.408 177.559 248.779 178.037C249.151 178.516 249.678 178.755 250.362 178.755ZM259.211 173.232H257.475V175.298H259.035C259.973 175.298 260.441 174.951 260.441 174.258C260.441 173.936 260.336 173.684 260.126 173.503C259.921 173.323 259.616 173.232 259.211 173.232ZM259.145 176.455H257.475V178.792H259.343C259.807 178.792 260.161 178.691 260.405 178.491C260.649 178.291 260.771 178.003 260.771 177.627C260.771 176.846 260.229 176.455 259.145 176.455ZM255.915 180V172.024H259.511C260.288 172.024 260.893 172.207 261.328 172.573C261.767 172.935 261.987 173.428 261.987 174.053C261.987 174.458 261.857 174.822 261.599 175.144C261.345 175.466 261.025 175.664 260.639 175.737V175.862C261.152 175.92 261.564 176.121 261.877 176.462C262.189 176.799 262.346 177.212 262.346 177.7C262.346 178.403 262.097 178.962 261.599 179.377C261.101 179.792 260.417 180 259.548 180H255.915ZM264.691 182.893C264.418 182.893 264.2 182.881 264.039 182.856V181.501C264.152 181.521 264.322 181.531 264.552 181.531C264.928 181.531 265.228 181.445 265.453 181.274C265.677 181.104 265.858 180.818 265.995 180.417L266.112 180.029L263.226 172.024H264.94L266.94 178.359H267.064L269.056 172.024H270.726L267.753 180.33C267.411 181.296 267.018 181.965 266.573 182.336C266.134 182.708 265.507 182.893 264.691 182.893ZM278.836 180.154C277.771 180.154 276.914 179.836 276.265 179.202C275.616 178.562 275.247 177.676 275.159 176.543H273.811V180H272.237V172.024H273.811V175.217H275.188C275.315 174.167 275.699 173.347 276.338 172.756C276.983 172.166 277.815 171.87 278.836 171.87C279.983 171.87 280.887 172.239 281.546 172.976C282.21 173.708 282.542 174.719 282.542 176.008C282.542 177.302 282.21 178.318 281.546 179.055C280.887 179.788 279.983 180.154 278.836 180.154ZM277.298 178.037C277.659 178.516 278.172 178.755 278.836 178.755C279.5 178.755 280.013 178.516 280.374 178.037C280.735 177.559 280.916 176.882 280.916 176.008C280.916 175.139 280.735 174.465 280.374 173.987C280.013 173.508 279.5 173.269 278.836 173.269C278.172 173.269 277.659 173.508 277.298 173.987C276.936 174.465 276.756 175.139 276.756 176.008C276.756 176.882 276.936 177.559 277.298 178.037ZM290.141 176.514H289.782V180H288.207V172.024H289.782V175.261H290.133L293.012 172.024H294.865L291.43 175.73L295.011 180H293.048L290.141 176.514ZM298.814 178.806C299.405 178.806 299.896 178.64 300.286 178.308C300.682 177.976 300.88 177.561 300.88 177.063V176.396L298.931 176.521C298.384 176.555 297.982 176.667 297.723 176.858C297.464 177.048 297.335 177.319 297.335 177.671C297.335 178.022 297.471 178.301 297.745 178.506C298.018 178.706 298.375 178.806 298.814 178.806ZM298.411 180.132C297.63 180.132 296.99 179.915 296.492 179.48C295.999 179.041 295.753 178.462 295.753 177.744C295.753 177.031 296.009 176.472 296.522 176.067C297.034 175.657 297.767 175.422 298.719 175.364L300.88 175.239V174.551C300.88 174.126 300.74 173.801 300.462 173.577C300.184 173.347 299.778 173.232 299.246 173.232C298.807 173.232 298.441 173.311 298.148 173.467C297.86 173.618 297.672 173.835 297.584 174.119H296.06C296.138 173.435 296.473 172.891 297.064 172.485C297.659 172.075 298.411 171.87 299.319 171.87C300.316 171.87 301.085 172.107 301.627 172.581C302.173 173.049 302.447 173.706 302.447 174.551V180H300.931V178.879H300.806C300.567 179.28 300.237 179.59 299.818 179.81C299.402 180.024 298.934 180.132 298.411 180.132ZM308.725 171.892C309.741 171.892 310.547 172.263 311.142 173.005C311.738 173.743 312.036 174.744 312.036 176.008C312.036 177.273 311.738 178.276 311.142 179.019C310.552 179.761 309.751 180.132 308.74 180.132C308.174 180.132 307.676 180.015 307.246 179.78C306.816 179.541 306.496 179.211 306.287 178.792H306.162V182.651H304.587V172.024H306.103V173.342H306.221C306.46 172.888 306.802 172.534 307.246 172.28C307.69 172.021 308.183 171.892 308.725 171.892ZM308.279 178.718C308.948 178.718 309.47 178.479 309.846 178C310.227 177.517 310.417 176.853 310.417 176.008C310.417 175.164 310.227 174.502 309.846 174.023C309.47 173.545 308.95 173.306 308.286 173.306C307.622 173.306 307.097 173.55 306.711 174.038C306.326 174.521 306.133 175.181 306.133 176.016C306.133 176.846 306.326 177.505 306.711 177.993C307.097 178.477 307.62 178.718 308.279 178.718ZM319.303 172.024V173.35H316.791V180H315.216V173.35H312.704V172.024H319.303ZM321.634 182.893C321.361 182.893 321.143 182.881 320.982 182.856V181.501C321.095 181.521 321.265 181.531 321.495 181.531C321.871 181.531 322.171 181.445 322.396 181.274C322.62 181.104 322.801 180.818 322.938 180.417L323.055 180.029L320.169 172.024H321.883L323.883 178.359H324.007L325.999 172.024H327.669L324.696 180.33C324.354 181.296 323.961 181.965 323.516 182.336C323.077 182.708 322.45 182.893 321.634 182.893Z" fill="#282B2E"/>
<path d="M205.874 227.865H206.141L209.987 223.84H211.422L207.125 228.252L211.79 233H210.279L206.141 228.779H205.874V233H204.731V223.84H205.874V227.865ZM215.394 227.001C214.848 227.001 214.399 227.186 214.048 227.554C213.697 227.922 213.5 228.409 213.458 229.014H217.228C217.215 228.409 217.042 227.922 216.708 227.554C216.373 227.186 215.935 227.001 215.394 227.001ZM217.196 231.229H218.288C218.123 231.821 217.787 232.285 217.279 232.619C216.775 232.953 216.151 233.121 215.406 233.121C214.458 233.121 213.707 232.803 213.153 232.168C212.599 231.529 212.321 230.668 212.321 229.585C212.321 228.506 212.601 227.645 213.159 227.001C213.718 226.358 214.467 226.037 215.406 226.037C216.329 226.037 217.055 226.343 217.584 226.957C218.113 227.571 218.377 228.411 218.377 229.477V229.896H213.458V229.947C213.487 230.624 213.678 231.161 214.029 231.559C214.384 231.957 214.852 232.156 215.432 232.156C216.316 232.156 216.904 231.847 217.196 231.229ZM220.134 233V226.157H221.225V232.086H223.815V226.157H224.907V232.086H227.497V226.157H228.589V233H220.134ZM232.008 231.483C232.368 231.919 232.876 232.137 233.532 232.137C234.188 232.137 234.693 231.919 235.049 231.483C235.408 231.047 235.588 230.433 235.588 229.642C235.588 228.889 235.408 228.307 235.049 227.896C234.693 227.482 234.188 227.274 233.532 227.274C232.876 227.274 232.368 227.482 232.008 227.896C231.653 228.307 231.475 228.889 231.475 229.642C231.475 230.433 231.653 231.047 232.008 231.483ZM231.278 227.56H231.38C231.6 227.175 231.905 226.868 232.294 226.64C232.683 226.411 233.151 226.297 233.697 226.297C234.606 226.297 235.336 226.597 235.887 227.198C236.441 227.795 236.718 228.61 236.718 229.642C236.718 230.721 236.433 231.572 235.861 232.194C235.294 232.812 234.518 233.121 233.532 233.121C232.503 233.121 231.714 232.778 231.164 232.092C230.618 231.403 230.345 230.368 230.345 228.988C230.345 228.332 230.377 227.753 230.44 227.249C230.508 226.745 230.62 226.278 230.777 225.846C230.938 225.41 231.147 225.051 231.405 224.767C231.663 224.484 231.991 224.259 232.389 224.094C232.791 223.925 233.261 223.828 233.798 223.802L234.484 223.771C234.801 223.754 235.108 223.715 235.404 223.656C235.705 223.593 235.92 223.538 236.052 223.491C236.187 223.44 236.259 223.411 236.267 223.402V224.38C236.238 224.405 236.189 224.439 236.121 224.481C236.054 224.52 235.872 224.577 235.576 224.653C235.279 224.725 234.932 224.769 234.535 224.786L233.836 224.818C233.388 224.839 233.009 224.913 232.7 225.04C232.391 225.163 232.141 225.347 231.951 225.592C231.761 225.838 231.615 226.115 231.513 226.424C231.412 226.733 231.333 227.111 231.278 227.56ZM239.128 230.931C239.23 231.316 239.435 231.612 239.744 231.819C240.053 232.027 240.442 232.13 240.912 232.13C241.483 232.13 241.953 231.929 242.321 231.527C242.689 231.125 242.897 230.59 242.943 229.921H239.757V229.007H242.924C242.861 228.402 242.645 227.92 242.277 227.56C241.909 227.2 241.454 227.021 240.912 227.021C240.434 227.021 240.04 227.137 239.731 227.37C239.423 227.598 239.222 227.892 239.128 228.252H238.024C238.125 227.613 238.43 227.084 238.938 226.665C239.45 226.246 240.108 226.037 240.912 226.037C241.873 226.037 242.641 226.356 243.216 226.995C243.792 227.634 244.08 228.487 244.08 229.553C244.08 230.641 243.79 231.506 243.21 232.149C242.634 232.793 241.866 233.114 240.906 233.114C240.102 233.114 239.446 232.913 238.938 232.511C238.43 232.105 238.125 231.578 238.024 230.931H239.128ZM247.226 229.883H246.928V233H245.836V226.157H246.928V229.02H247.226L249.937 226.157H251.263L248.128 229.382L251.384 233H249.968L247.226 229.883ZM259.594 233.209C258.904 233.209 258.303 233.032 257.791 232.676C257.279 232.317 256.879 231.8 256.592 231.127C256.295 230.433 256.147 229.583 256.147 228.576C256.147 227.001 256.454 225.783 257.068 224.919C257.681 224.056 258.549 223.625 259.67 223.625C260.449 223.625 261.107 223.84 261.644 224.272C262.186 224.699 262.529 225.281 262.673 226.018H261.498C261.376 225.59 261.149 225.254 260.819 225.008C260.493 224.763 260.106 224.64 259.658 224.64C258.913 224.64 258.333 224.962 257.918 225.605C257.508 226.248 257.288 227.179 257.258 228.398H257.36C257.584 227.954 257.91 227.609 258.337 227.363C258.765 227.114 259.251 226.989 259.797 226.989C260.669 226.989 261.388 227.279 261.955 227.858C262.523 228.434 262.806 229.166 262.806 230.055C262.806 230.977 262.506 231.735 261.905 232.327C261.304 232.915 260.534 233.209 259.594 233.209ZM258.102 231.591C258.5 232.001 258.993 232.207 259.581 232.207C260.17 232.207 260.661 232.006 261.054 231.604C261.452 231.197 261.651 230.694 261.651 230.093C261.651 229.466 261.458 228.959 261.073 228.569C260.692 228.176 260.199 227.979 259.594 227.979C258.989 227.979 258.49 228.174 258.096 228.563C257.707 228.952 257.512 229.45 257.512 230.055C257.512 230.668 257.709 231.18 258.102 231.591ZM267.413 224.297C267.777 224.708 267.959 225.237 267.959 225.884C267.959 226.532 267.777 227.063 267.413 227.478C267.049 227.888 266.581 228.093 266.01 228.093C265.438 228.093 264.969 227.888 264.601 227.478C264.237 227.063 264.055 226.532 264.055 225.884C264.055 225.241 264.237 224.714 264.601 224.304C264.969 223.889 265.438 223.682 266.01 223.682C266.581 223.682 267.049 223.887 267.413 224.297ZM266.01 227.281C266.289 227.281 266.513 227.154 266.683 226.9C266.856 226.642 266.943 226.303 266.943 225.884C266.943 225.457 266.858 225.118 266.689 224.869C266.524 224.619 266.298 224.494 266.01 224.494C265.726 224.494 265.498 224.621 265.324 224.875C265.155 225.125 265.07 225.461 265.07 225.884C265.07 226.307 265.155 226.646 265.324 226.9C265.498 227.154 265.726 227.281 266.01 227.281ZM265.908 233H264.74L268.238 228.227L271.45 223.84H272.605L269.05 228.703L265.908 233ZM272.713 229.363C273.077 229.773 273.259 230.302 273.259 230.95C273.259 231.597 273.077 232.128 272.713 232.543C272.349 232.953 271.881 233.159 271.31 233.159C270.739 233.159 270.269 232.953 269.901 232.543C269.537 232.128 269.355 231.597 269.355 230.95C269.355 230.306 269.537 229.78 269.901 229.369C270.269 228.954 270.739 228.747 271.31 228.747C271.881 228.747 272.349 228.952 272.713 229.363ZM271.31 232.346C271.589 232.346 271.814 232.219 271.983 231.965C272.156 231.707 272.243 231.369 272.243 230.95C272.243 230.522 272.159 230.184 271.989 229.934C271.824 229.684 271.598 229.56 271.31 229.56C271.027 229.56 270.798 229.687 270.625 229.94C270.455 230.19 270.371 230.527 270.371 230.95C270.371 231.373 270.455 231.711 270.625 231.965C270.798 232.219 271.027 232.346 271.31 232.346ZM207.918 242.037C208.79 242.037 209.486 242.358 210.006 243.001C210.531 243.645 210.793 244.504 210.793 245.579C210.793 246.649 210.531 247.508 210.006 248.156C209.482 248.799 208.785 249.121 207.918 249.121C207.431 249.121 207 249.021 206.623 248.822C206.246 248.619 205.965 248.336 205.779 247.972H205.677V251.285H204.585V242.157H205.626V243.3H205.728C205.948 242.906 206.251 242.597 206.636 242.373C207.025 242.149 207.452 242.037 207.918 242.037ZM207.658 248.137C208.284 248.137 208.775 247.91 209.13 247.458C209.486 247.005 209.664 246.378 209.664 245.579C209.664 244.779 209.486 244.153 209.13 243.7C208.779 243.247 208.29 243.021 207.664 243.021C207.046 243.021 206.555 243.251 206.191 243.712C205.827 244.169 205.646 244.792 205.646 245.579C205.646 246.361 205.825 246.984 206.185 247.445C206.549 247.906 207.04 248.137 207.658 248.137ZM212.893 251.476C212.719 251.476 212.556 251.463 212.404 251.438V250.504C212.514 250.526 212.666 250.536 212.861 250.536C213.178 250.536 213.43 250.451 213.616 250.282C213.807 250.113 213.974 249.823 214.118 249.413L214.245 249.006L211.712 242.157H212.893L214.772 247.788H214.873L216.746 242.157H217.907L215.235 249.419C214.943 250.21 214.632 250.75 214.302 251.038C213.972 251.33 213.502 251.476 212.893 251.476ZM220.673 247.483C221.033 247.919 221.541 248.137 222.197 248.137C222.852 248.137 223.358 247.919 223.714 247.483C224.073 247.047 224.253 246.433 224.253 245.642C224.253 244.889 224.073 244.307 223.714 243.896C223.358 243.482 222.852 243.274 222.197 243.274C221.541 243.274 221.033 243.482 220.673 243.896C220.318 244.307 220.14 244.889 220.14 245.642C220.14 246.433 220.318 247.047 220.673 247.483ZM219.943 243.56H220.045C220.265 243.175 220.569 242.868 220.959 242.64C221.348 242.411 221.816 242.297 222.362 242.297C223.271 242.297 224.001 242.597 224.552 243.198C225.106 243.795 225.383 244.61 225.383 245.642C225.383 246.721 225.097 247.572 224.526 248.194C223.959 248.812 223.183 249.121 222.197 249.121C221.168 249.121 220.379 248.778 219.829 248.092C219.283 247.403 219.01 246.368 219.01 244.988C219.01 244.332 219.042 243.753 219.105 243.249C219.173 242.745 219.285 242.278 219.442 241.846C219.602 241.41 219.812 241.051 220.07 240.767C220.328 240.484 220.656 240.259 221.054 240.094C221.456 239.925 221.926 239.828 222.463 239.802L223.149 239.771C223.466 239.754 223.773 239.715 224.069 239.656C224.37 239.593 224.585 239.538 224.717 239.491C224.852 239.44 224.924 239.411 224.932 239.402V240.38C224.903 240.405 224.854 240.439 224.786 240.481C224.719 240.52 224.537 240.577 224.24 240.653C223.944 240.725 223.597 240.769 223.199 240.786L222.501 240.818C222.053 240.839 221.674 240.913 221.365 241.04C221.056 241.163 220.806 241.347 220.616 241.592C220.426 241.838 220.28 242.115 220.178 242.424C220.076 242.733 219.998 243.111 219.943 243.56ZM228.72 245.998C228.69 246.391 228.648 246.738 228.593 247.039C228.538 247.339 228.46 247.62 228.358 247.883C228.261 248.145 228.138 248.361 227.99 248.53C227.846 248.695 227.666 248.824 227.451 248.917C227.235 249.011 226.987 249.057 226.708 249.057C226.551 249.057 226.418 249.034 226.308 248.987V247.984C226.41 248.018 226.524 248.035 226.651 248.035C226.972 248.035 227.211 247.862 227.368 247.515C227.529 247.163 227.633 246.649 227.679 245.972L227.946 242.157H232.421V249H231.329V243.071H228.936L228.72 245.998ZM236.869 245.636H238.157V243.071H236.869C236.416 243.071 236.056 243.19 235.79 243.427C235.523 243.66 235.39 243.983 235.39 244.398C235.39 244.762 235.525 245.06 235.796 245.293C236.067 245.521 236.424 245.636 236.869 245.636ZM238.157 249V246.55H236.983L235.237 249H233.936L235.847 246.347C235.364 246.211 234.986 245.974 234.71 245.636C234.435 245.297 234.298 244.893 234.298 244.423C234.298 243.721 234.528 243.169 234.99 242.767C235.455 242.36 236.082 242.157 236.869 242.157H239.249V249H238.157ZM242.434 249H241.342V242.157H242.669L245.119 247.464H245.22L247.677 242.157H248.953V249H247.855V244.131H247.734L245.569 248.81H244.719L242.554 244.131H242.434V249ZM252.144 249H251.052V242.157H252.144V247.261H252.245L255.654 242.157H256.746V249H255.654V243.896H255.553L252.144 249Z" fill="#A7B1BA"/>
<rect x="307" y="212" width="40" height="40" rx="20" fill="#F4F6F7"/>
<path fill-rule="evenodd" clip-rule="evenodd" d="M316 231C316 229.895 316.895 229 318 229L330 229C331.105 229 332 229.895 332 231V239C332 240.105 331.105 241 330 241H318C316.895 241 316 240.105 316 239V231ZM326 238L320 238C319.448 238 319 237.552 319 237C319 236.448 319.448 236 320 236L326 236C326.552 236 327 236.448 327 237C327 237.552 326.552 238 326 238ZM322 225C322 223.895 322.895 223 324 223H336C337.105 223 338 223.895 338 225V233C338 234.105 337.105 235 336 235H334L334 229C334 227.895 333.105 227 332 227L322 227V225Z" fill="#A7B1BA"/>
</g>
<defs>
<filter id="filter0_d_1092_17651" x="129" y="0" width="117" height="136" filterUnits="userSpaceOnUse" color-interpolation-filters="sRGB">
<feFlood flood-opacity="0" result="BackgroundImageFix"/>
<feColorMatrix in="SourceAlpha" type="matrix" values="0 0 0 0 0 0 0 0 0 0 0 0 0 0 0 0 0 0 127 0" result="hardAlpha"/>
<feOffset dy="4"/>
<feGaussianBlur stdDeviation="2"/>
<feColorMatrix type="matrix" values="0 0 0 0 0 0 0 0 0 0 0 0 0 0 0 0 0 0 0.05 0"/>
<feBlend mode="multiply" in2="BackgroundImageFix" result="effect1_dropShadow_1092_17651"/>
<feBlend mode="normal" in="SourceGraphic" in2="effect1_dropShadow_1092_17651" result="shape"/>
</filter>
<filter id="filter1_d_1092_17651" x="12" y="0" width="117" height="136" filterUnits="userSpaceOnUse" color-interpolation-filters="sRGB">
<feFlood flood-opacity="0" result="BackgroundImageFix"/>
<feColorMatrix in="SourceAlpha" type="matrix" values="0 0 0 0 0 0 0 0 0 0 0 0 0 0 0 0 0 0 127 0" result="hardAlpha"/>
<feOffset dy="4"/>
<feGaussianBlur stdDeviation="2"/>
<feColorMatrix type="matrix" values="0 0 0 0 0 0 0 0 0 0 0 0 0 0 0 0 0 0 0.05 0"/>
<feBlend mode="multiply" in2="BackgroundImageFix" result="effect1_dropShadow_1092_17651"/>
<feBlend mode="normal" in="SourceGraphic" in2="effect1_dropShadow_1092_17651" result="shape"/>
</filter>
<filter id="filter2_d_1092_17651" x="246" y="0" width="117" height="136" filterUnits="userSpaceOnUse" color-interpolation-filters="sRGB">
<feFlood flood-opacity="0" result="BackgroundImageFix"/>
<feColorMatrix in="SourceAlpha" type="matrix" values="0 0 0 0 0 0 0 0 0 0 0 0 0 0 0 0 0 0 127 0" result="hardAlpha"/>
<feOffset dy="4"/>
<feGaussianBlur stdDeviation="2"/>
<feColorMatrix type="matrix" values="0 0 0 0 0 0 0 0 0 0 0 0 0 0 0 0 0 0 0.05 0"/>
<feBlend mode="multiply" in2="BackgroundImageFix" result="effect1_dropShadow_1092_17651"/>
<feBlend mode="normal" in="SourceGraphic" in2="effect1_dropShadow_1092_17651" result="shape"/>
</filter>
<filter id="filter3_d_1092_17651" x="12" y="136" width="175.5" height="136" filterUnits="userSpaceOnUse" color-interpolation-filters="sRGB">
<feFlood flood-opacity="0" result="BackgroundImageFix"/>
<feColorMatrix in="SourceAlpha" type="matrix" values="0 0 0 0 0 0 0 0 0 0 0 0 0 0 0 0 0 0 127 0" result="hardAlpha"/>
<feOffset dy="4"/>
<feGaussianBlur stdDeviation="2"/>
<feColorMatrix type="matrix" values="0 0 0 0 0 0 0 0 0 0 0 0 0 0 0 0 0 0 0.05 0"/>
<feBlend mode="multiply" in2="BackgroundImageFix" result="effect1_dropShadow_1092_17651"/>
<feBlend mode="normal" in="SourceGraphic" in2="effect1_dropShadow_1092_17651" result="shape"/>
</filter>
<filter id="filter4_d_1092_17651" x="187.5" y="136" width="175.5" height="136" filterUnits="userSpaceOnUse" color-interpolation-filters="sRGB">
<feFlood flood-opacity="0" result="BackgroundImageFix"/>
<feColorMatrix in="SourceAlpha" type="matrix" values="0 0 0 0 0 0 0 0 0 0 0 0 0 0 0 0 0 0 127 0" result="hardAlpha"/>
<feOffset dy="4"/>
<feGaussianBlur stdDeviation="2"/>
<feColorMatrix type="matrix" values="0 0 0 0 0 0 0 0 0 0 0 0 0 0 0 0 0 0 0.05 0"/>
<feBlend mode="multiply" in2="BackgroundImageFix" result="effect1_dropShadow_1092_17651"/>
<feBlend mode="normal" in="SourceGraphic" in2="effect1_dropShadow_1092_17651" result="shape"/>
</filter>
</defs>
</svg>
