<svg width="14" height="15" viewBox="0 0 14 15" fill="none" xmlns="http://www.w3.org/2000/svg">
<g id="crown">
<path id="Vector" d="M13.528 5.37528L11.5046 11.573C11.4843 11.6355 11.4501 11.6926 11.4047 11.74C11.3592 11.7875 11.3037 11.8241 11.2422 11.8472C11.1807 11.8702 11.1148 11.8792 11.0493 11.8733C10.9839 11.8674 10.9206 11.8468 10.8642 11.8131C10.8516 11.8054 9.45328 10.9999 6.9989 10.9999C4.54453 10.9999 3.14617 11.8054 3.1325 11.8136C3.07612 11.847 3.01296 11.8673 2.94769 11.873C2.88242 11.8787 2.8167 11.8697 2.75539 11.8466C2.69408 11.8235 2.63874 11.7869 2.59345 11.7396C2.54817 11.6922 2.51409 11.6353 2.49375 11.573L0.471404 5.37364C0.430657 5.24954 0.427517 5.11616 0.462379 4.99028C0.497242 4.8644 0.56855 4.75164 0.667334 4.66618C0.766118 4.58072 0.887967 4.52639 1.01755 4.51C1.14714 4.49362 1.27868 4.51592 1.39562 4.57411L4.14039 5.94129L6.43289 2.13176C6.49182 2.03405 6.575 1.95322 6.67436 1.89711C6.77372 1.84101 6.88589 1.81152 7 1.81152C7.11411 1.81152 7.22628 1.84101 7.32564 1.89711C7.425 1.95322 7.50818 2.03405 7.56711 2.13176L9.85961 5.94129L12.6055 4.57411C12.7225 4.51584 12.8543 4.49356 12.984 4.5101C13.1137 4.52664 13.2356 4.58125 13.3343 4.66703C13.4331 4.75281 13.5041 4.86592 13.5386 4.99207C13.5731 5.11822 13.5694 5.25176 13.528 5.37582V5.37528Z" fill="#212121"/>
</g>
</svg>
