<svg width="375" height="88" viewBox="0 0 375 88" fill="none" xmlns="http://www.w3.org/2000/svg">
<g id="navbars / standart-new">
<rect width="375" height="88" fill="white"/>
<g id="status-bar / X or newer">
<g id="status-bar / x">
<g id="icons">
<g id="battery">
<rect id="border" opacity="0.35" x="336.833" y="17.834" width="21" height="10.3333" rx="2.16667" stroke="black"/>
<path id="cap" opacity="0.4" d="M359.333 21V25C360.138 24.6612 360.662 23.8731 360.662 23C360.662 22.1269 360.138 21.3388 359.333 21Z" fill="black"/>
<rect id="fill" x="338.333" y="19.334" width="18" height="7.33333" rx="1.33333" fill="black"/>
</g>
<path id="wi-fi" fill-rule="evenodd" clip-rule="evenodd" d="M323.667 19.7845C325.892 19.7846 328.031 20.6387 329.644 22.1703C329.765 22.2885 329.959 22.287 330.079 22.1669L331.239 20.9966C331.3 20.9357 331.334 20.8532 331.333 20.7673C331.333 20.6815 331.298 20.5994 331.237 20.5392C327.005 16.4869 320.329 16.4869 316.097 20.5392C316.035 20.5993 316.001 20.6814 316 20.7673C315.999 20.8531 316.033 20.9356 316.094 20.9966L317.255 22.1669C317.374 22.2872 317.568 22.2887 317.69 22.1703C319.302 20.6386 321.442 19.7845 323.667 19.7845ZM323.667 23.5921C324.889 23.592 326.068 24.0459 326.974 24.8657C327.097 24.9821 327.29 24.9795 327.409 24.86L328.569 23.6897C328.63 23.6283 328.663 23.545 328.663 23.4585C328.662 23.372 328.626 23.2894 328.564 23.2293C325.805 20.6649 321.532 20.6649 318.773 23.2293C318.71 23.2894 318.675 23.372 318.674 23.4586C318.673 23.5451 318.707 23.6284 318.768 23.6897L319.927 24.86C320.047 24.9795 320.24 24.9821 320.362 24.8657C321.268 24.0465 322.446 23.5926 323.667 23.5921ZM325.989 26.1539C325.991 26.2407 325.957 26.3243 325.895 26.3851L323.89 28.4071C323.831 28.4666 323.751 28.5 323.667 28.5C323.583 28.5 323.503 28.4666 323.445 28.4071L321.439 26.3851C321.377 26.3243 321.343 26.2406 321.345 26.1538C321.347 26.067 321.384 25.9849 321.449 25.9267C322.729 24.8444 324.605 24.8444 325.886 25.9267C325.95 25.9849 325.988 26.0671 325.989 26.1539Z" fill="black"/>
<path id="cellular" fill-rule="evenodd" clip-rule="evenodd" d="M309.5 18H308.5C307.948 18 307.5 18.4617 307.5 19.0312V27.9688C307.5 28.5383 307.948 29 308.5 29H309.5C310.052 29 310.5 28.5383 310.5 27.9688V19.0312C310.5 18.4617 310.052 18 309.5 18ZM305 21H304C303.448 21 303 21.4298 303 21.96V28.04C303 28.5702 303.448 29 304 29H305C305.552 29 306 28.5702 306 28.04V21.96C306 21.4298 305.552 21 305 21ZM299.5 23H300.5C301.052 23 301.5 23.4477 301.5 24V28C301.5 28.5523 301.052 29 300.5 29H299.5C298.948 29 298.5 28.5523 298.5 28V24C298.5 23.4477 298.948 23 299.5 23ZM296 25H295C294.448 25 294 25.4478 294 26V28C294 28.5523 294.448 29 295 29H296C296.552 29 297 28.5523 297 28V26C297 25.4478 296.552 25 296 25Z" fill="black"/>
</g>
<path id="time" d="M31.9174 28V19.3354H31.7929L29.1635 21.1812V19.3647L31.9247 17.4312H33.807V28H31.9174ZM36.4674 20.522C36.4674 19.5356 36.8092 18.73 37.4928 18.105C38.1813 17.48 39.0675 17.1675 40.1515 17.1675C41.1964 17.1675 42.0558 17.4531 42.7296 18.0244C43.4083 18.5957 43.7477 19.3232 43.7477 20.207C43.7477 20.7734 43.5768 21.335 43.235 21.8916C42.8932 22.4434 42.2731 23.1636 41.3746 24.0522L39.1627 26.2715V26.396H43.9088V28H36.57V26.689L40.0929 23.0854C40.8156 22.353 41.2965 21.8037 41.5358 21.4375C41.775 21.0664 41.8947 20.6953 41.8947 20.3242C41.8947 19.8604 41.7238 19.4771 41.382 19.1743C41.0451 18.8716 40.6154 18.7202 40.0929 18.7202C39.5412 18.7202 39.0944 18.8862 38.7526 19.2183C38.4108 19.5503 38.2399 19.9849 38.2399 20.522V20.5513H36.4674V20.522ZM47.1405 26.8794C46.7987 26.8794 46.518 26.7695 46.2982 26.5498C46.0785 26.3301 45.9686 26.0542 45.9686 25.7222C45.9686 25.3853 46.0785 25.1094 46.2982 24.8945C46.518 24.6748 46.7987 24.5649 47.1405 24.5649C47.4872 24.5649 47.768 24.6748 47.9828 24.8945C48.2025 25.1094 48.3124 25.3853 48.3124 25.7222C48.3124 26.0542 48.2025 26.3301 47.9828 26.5498C47.768 26.7695 47.4872 26.8794 47.1405 26.8794ZM47.1405 21.3862C46.7987 21.3862 46.518 21.2788 46.2982 21.064C46.0785 20.8442 45.9686 20.5684 45.9686 20.2363C45.9686 19.8994 46.0785 19.6235 46.2982 19.4087C46.518 19.189 46.7987 19.0791 47.1405 19.0791C47.4872 19.0791 47.768 19.189 47.9828 19.4087C48.2025 19.6235 48.3124 19.8994 48.3124 20.2363C48.3124 20.5684 48.2025 20.8442 47.9828 21.064C47.768 21.2788 47.4872 21.3862 47.1405 21.3862ZM52.8405 23.3125V21.8477H54.1295C54.6666 21.8477 55.1036 21.7012 55.4405 21.4082C55.7775 21.1104 55.9459 20.7246 55.9459 20.251C55.9459 19.7822 55.7799 19.4087 55.4479 19.1304C55.1207 18.8472 54.6813 18.7056 54.1295 18.7056C53.5826 18.7056 53.1383 18.8496 52.7965 19.1377C52.4596 19.4258 52.274 19.8188 52.2399 20.3169H50.4747C50.5236 19.3452 50.88 18.5786 51.5441 18.0171C52.2081 17.4507 53.0895 17.1675 54.1881 17.1675C55.2135 17.1675 56.0655 17.436 56.7443 17.9731C57.4279 18.5054 57.7696 19.1768 57.7696 19.9873C57.7696 20.6074 57.5963 21.1372 57.2496 21.5767C56.9078 22.0161 56.444 22.2969 55.858 22.4189V22.5435C56.5807 22.6265 57.1495 22.8975 57.5646 23.3564C57.9845 23.8154 58.1945 24.3965 58.1945 25.0996C58.1945 26.0078 57.8136 26.7622 57.0519 27.3628C56.295 27.9634 55.3429 28.2637 54.1954 28.2637C53.0577 28.2637 52.13 27.9731 51.4122 27.3921C50.6993 26.811 50.3185 26.0371 50.2696 25.0703H52.0787C52.1178 25.5586 52.3302 25.9492 52.7159 26.2422C53.1017 26.5303 53.5997 26.6743 54.2101 26.6743C54.8155 26.6743 55.3087 26.5181 55.6896 26.2056C56.0753 25.8882 56.2682 25.4805 56.2682 24.9824C56.2682 24.4648 56.0802 24.0571 55.7042 23.7593C55.3282 23.4614 54.8155 23.3125 54.1661 23.3125H52.8405ZM64.8905 28V26.0298H59.7269V24.3452C60.5863 22.7632 62.0218 20.4585 64.0336 17.4312H66.6996V24.4331H68.1278V26.0298H66.6996V28H64.8905ZM61.4774 24.3672V24.4771H64.9198V18.9692H64.8172C63.6747 20.6587 62.5614 22.458 61.4774 24.3672Z" fill="black"/>
</g>
</g>
<g id="navbars / navs / main-screen-light">
<rect width="375" height="44" transform="translate(0 44)" fill="#F4F6F7"/>
<g id="navbars / dark / normal / notification-new">
<path id="base" d="M338 69.0003V64.9993C338 61.1331 341.134 57.9988 345 57.998C348.866 57.9988 352 61.1331 352 64.9993V69.0003L353.498 70.4979C354.052 71.0524 353.659 72.0003 352.875 72.0003H337.125C336.341 72.0003 335.948 71.0524 336.502 70.4979L338 69.0003Z" stroke="#282B2E" stroke-width="2"/>
<path id="bottom" d="M343 75H347C347 76.1046 346.105 77 345 77C343.895 77 343 76.1046 343 75Z" fill="#282B2E"/>
<path id="top" d="M343.24 57.2012H346.761V56.7611C346.761 55.789 345.973 55.001 345 55.001C344.028 55.001 343.24 55.789 343.24 56.7611V57.2012Z" fill="#282B2E"/>
</g>
<g id="img" clip-path="url(#clip0_1092_17638)">
<g id="ubrr">
<path d="M16 62.8C16 58.3196 16 56.0794 16.8719 54.3681C17.6389 52.8628 18.8628 51.6389 20.3681 50.8719C22.0794 50 24.3196 50 28.8 50H35.2C39.6804 50 41.9206 50 43.6319 50.8719C45.1372 51.6389 46.3611 52.8628 47.1281 54.3681C48 56.0794 48 58.3196 48 62.8V69.2C48 73.6804 48 75.9206 47.1281 77.6319C46.3611 79.1372 45.1372 80.3611 43.6319 81.1281C41.9206 82 39.6804 82 35.2 82H28.8C24.3196 82 22.0794 82 20.3681 81.1281C18.8628 80.3611 17.6389 79.1372 16.8719 77.6319C16 75.9206 16 73.6804 16 69.2V62.8Z" fill="#E9ECEE"/>
<path id="logo" fill-rule="evenodd" clip-rule="evenodd" d="M38.2149 72.2551C39.7511 71.9606 40.916 70.5976 40.916 68.9657C40.916 68.0701 40.565 67.2576 39.9959 66.6548C39.7443 66.3892 39.4471 66.1633 39.12 65.9914C38.6093 65.7078 38.526 65.1478 38.8571 64.6383C39.0437 64.3613 39.1784 64.0453 39.2454 63.7068C39.2774 63.5428 39.2948 63.3737 39.2948 63.2007C39.2948 61.9066 38.3415 60.8335 37.1076 60.6606C37.0766 60.6602 37.0456 60.66 37.0145 60.66C36.9737 60.66 36.9332 60.6612 36.8928 60.6623C36.8718 60.6612 36.8506 60.66 36.8284 60.66H33.422V68.7585C33.422 71.9241 30.7069 74.5 27.387 74.5C24.0945 74.5 21.4212 71.9357 21.375 68.8067C22.5004 70.8376 24.6841 72.2649 27.203 72.335C27.2684 72.3377 27.3349 72.3399 27.4013 72.3399C29.4979 72.3399 31.1945 70.7329 31.1945 68.7585V58.5H36.8284C39.1461 58.5 41.009 60.1317 41.4269 62.3149C40.8012 61.7691 40.5714 61.0326 40.5714 61.0326C40.5714 61.0326 40.7944 61.7632 41.4269 62.3149C41.4831 62.6019 41.5123 62.898 41.5123 63.2007C41.5123 63.7661 41.2668 64.3307 41.0809 64.8334C42.4169 65.8311 43.1058 67.2707 43.125 68.9001C43.125 68.9818 43.125 69.0807 43.125 69.1667C43.07 72.1569 40.5468 74.4573 37.5268 74.4573H33.9419C33.3297 74.4573 32.8328 73.9733 32.8328 73.377C32.8328 72.7808 33.3297 72.2969 33.9419 72.2969H37.5268C37.6501 72.2969 37.7712 72.2896 37.8905 72.2767C37.9995 72.2721 38.1078 72.2649 38.2149 72.2551ZM21.375 68.7332V61.5256C21.375 59.8569 22.7677 58.5 24.4803 58.5H26.6824C27.2947 58.5 27.7909 58.9832 27.7909 59.5802C27.7909 60.1764 27.2947 60.66 26.6824 60.66H24.4803C24.398 60.66 24.3164 60.6628 24.2355 60.6682C23.8648 60.772 23.5924 61.1054 23.5924 61.5003V68.7332C23.5924 70.6448 25.1923 72.2363 27.1981 72.3334C24.6792 72.2635 22.5014 70.8376 21.376 68.8067C21.376 68.7807 21.375 68.7597 21.375 68.7332Z" fill="#A7B1BA"/>
</g>
</g>
<g id="name + chevron">
<path id="name" d="M62.5576 72.2988C60.8587 72.2988 59.5168 71.7371 58.5317 70.6138C57.5467 69.4849 57.0542 67.952 57.0542 66.0151C57.0542 64.0672 57.5439 62.5316 58.5234 61.4082C59.5085 60.2848 60.8504 59.7231 62.5493 59.7231C63.9106 59.7231 65.0645 60.1243 66.0107 60.9268C66.957 61.7236 67.4938 62.7474 67.6211 63.998H65.5127C65.3633 63.2786 65.0202 62.7059 64.4834 62.2798C63.9466 61.8481 63.3019 61.6323 62.5493 61.6323C61.5311 61.6323 60.7259 62.0252 60.1338 62.811C59.5417 63.5913 59.2456 64.6566 59.2456 66.0068C59.2456 67.3571 59.5417 68.4251 60.1338 69.2109C60.7259 69.9967 61.5339 70.3896 62.5576 70.3896C63.3158 70.3896 63.9632 70.1932 64.5 69.8003C65.0368 69.4019 65.3771 68.8678 65.521 68.1982H67.6294C67.4855 69.4268 66.9487 70.4173 66.019 71.1699C65.0894 71.9225 63.9355 72.2988 62.5576 72.2988ZM73.364 64.3716C72.7497 64.3716 72.2434 64.5736 71.8449 64.9775C71.4465 65.3815 71.2251 65.9155 71.1809 66.5796H75.4558C75.4336 65.9045 75.2344 65.3677 74.8581 64.9692C74.4818 64.5708 73.9838 64.3716 73.364 64.3716ZM75.4724 69.5015H77.4231C77.2294 70.3315 76.7728 70.9873 76.0534 71.4688C75.3396 71.9447 74.4514 72.1826 73.3889 72.1826C72.0552 72.1826 71.0066 71.7676 70.2429 70.9375C69.4847 70.1019 69.1057 68.9536 69.1057 67.4927C69.1057 66.0317 69.4875 64.8752 70.2512 64.0229C71.0149 63.1652 72.0552 62.7363 73.3723 62.7363C74.6672 62.7363 75.6799 63.1431 76.4104 63.9565C77.1464 64.7645 77.5144 65.8851 77.5144 67.3184V67.9824H71.1726V68.0903C71.2002 68.8485 71.4161 69.4489 71.82 69.8916C72.2295 70.3288 72.7719 70.5474 73.447 70.5474C74.4873 70.5474 75.1625 70.1987 75.4724 69.5015ZM84.2782 62.7695C85.4293 62.7695 86.3396 63.1873 87.0092 64.0229C87.6843 64.8586 88.0219 66.0041 88.0219 67.4595C88.0219 68.9093 87.6871 70.0549 87.0175 70.896C86.3534 71.7316 85.4486 72.1494 84.3031 72.1494C83.6557 72.1494 83.0885 72.0166 82.6015 71.751C82.12 71.4798 81.7631 71.1035 81.5307 70.6221H81.3896V75.0215H79.331V62.9189H81.3149V64.4214H81.456C81.7161 63.9067 82.0951 63.5028 82.5932 63.2095C83.0968 62.9162 83.6584 62.7695 84.2782 62.7695ZM83.6308 70.3979C84.3446 70.3979 84.9008 70.1379 85.2992 69.6177C85.7032 69.0975 85.9052 68.3781 85.9052 67.4595C85.9052 66.5409 85.7032 65.8215 85.2992 65.3013C84.9008 64.7811 84.3474 64.521 83.6391 64.521C82.9363 64.521 82.3801 64.7839 81.9706 65.3096C81.5611 65.8353 81.3536 66.5519 81.3481 67.4595C81.3536 68.367 81.5583 69.0837 81.9623 69.6094C82.3718 70.1351 82.928 70.3979 83.6308 70.3979ZM95.9811 64.5625H91.922V72H89.8634V62.9189H95.9811V64.5625ZM101.193 64.3716C100.578 64.3716 100.072 64.5736 99.6737 64.9775C99.2752 65.3815 99.0539 65.9155 99.0096 66.5796H103.285C103.262 65.9045 103.063 65.3677 102.687 64.9692C102.311 64.5708 101.812 64.3716 101.193 64.3716ZM103.301 69.5015H105.252C105.058 70.3315 104.602 70.9873 103.882 71.4688C103.168 71.9447 102.28 72.1826 101.218 72.1826C99.884 72.1826 98.8353 71.7676 98.0716 70.9375C97.3135 70.1019 96.9344 68.9536 96.9344 67.4927C96.9344 66.0317 97.3162 64.8752 98.0799 64.0229C98.8436 63.1652 99.884 62.7363 101.201 62.7363C102.496 62.7363 103.509 63.1431 104.239 63.9565C104.975 64.7645 105.343 65.8851 105.343 67.3184V67.9824H99.0013V68.0903C99.029 68.8485 99.2448 69.4489 99.6488 69.8916C100.058 70.3288 100.601 70.5474 101.276 70.5474C102.316 70.5474 102.991 70.1987 103.301 69.5015ZM109.193 72H107.16V62.9189H109.193V68.9287H109.335L113.286 62.9189H115.311V72H113.286V65.9487H113.136L109.193 72ZM108.106 58.7686H109.733C109.738 59.2279 109.869 59.6097 110.123 59.9141C110.383 60.2184 110.726 60.3706 111.152 60.3706C111.578 60.3706 111.919 60.2184 112.173 59.9141C112.433 59.6097 112.569 59.2279 112.58 58.7686H114.199C114.199 59.5986 113.917 60.2793 113.352 60.8105C112.793 61.3418 112.06 61.6074 111.152 61.6074C110.245 61.6074 109.509 61.3418 108.944 60.8105C108.385 60.2793 108.106 59.5986 108.106 58.7686Z" fill="#282B2E"/>
<g id="chevron-wrapper">
<g id="16&#195;&#151;16 / static / gray / normal / chevron-small-right">
<path id="right" d="M123 71L127 67L123 63" stroke="#D3D8DD" stroke-width="2"/>
</g>
</g>
</g>
</g>
</g>
<defs>
<clipPath id="clip0_1092_17638">
<rect width="32" height="32" fill="white" transform="translate(16 50)"/>
</clipPath>
</defs>
</svg>
