<svg width="16" height="16" viewBox="0 0 16 16" fill="none" xmlns="http://www.w3.org/2000/svg">
<g id="Component 1">
<path id="Vector" fill-rule="evenodd" clip-rule="evenodd" d="M3.47002 6.53002C3.61153 6.39346 3.80102 6.31796 3.99767 6.31976C4.19432 6.32156 4.38239 6.40052 4.52138 6.53965C4.66037 6.67877 4.73916 6.86692 4.74078 7.06356C4.74239 7.26021 4.6667 7.44963 4.53002 7.59102L3.80302 8.31802C3.29697 8.83413 3.01508 9.52912 3.01864 10.2519C3.02219 10.9747 3.3109 11.6669 3.82201 12.178C4.33312 12.6891 5.0253 12.9778 5.74811 12.9814C6.47091 12.985 7.16591 12.7031 7.68202 12.197L8.40902 11.47C8.55119 11.3375 8.73924 11.2654 8.93354 11.2688C9.12784 11.2723 9.31323 11.351 9.45064 11.4884C9.58805 11.6258 9.66676 11.8112 9.67019 12.0055C9.67362 12.1998 9.6015 12.3878 9.46902 12.53L8.74302 13.257C7.94386 14.0356 6.87018 14.4681 5.75445 14.4609C4.63873 14.4536 3.57076 14.0072 2.78181 13.2182C1.99285 12.4293 1.54641 11.3613 1.53915 10.2456C1.53189 9.12986 1.9644 8.05617 2.74302 7.25702L3.47002 6.53002ZM11.47 8.40902C11.3375 8.55119 11.2654 8.73924 11.2688 8.93354C11.2723 9.12784 11.351 9.31323 11.4884 9.45064C11.6258 9.58805 11.8112 9.66676 12.0055 9.67019C12.1998 9.67362 12.3878 9.6015 12.53 9.46902L13.257 8.74302C14.0356 7.94386 14.4681 6.87018 14.4609 5.75445C14.4536 4.63873 14.0072 3.57076 13.2182 2.78181C12.4293 1.99285 11.3613 1.54641 10.2456 1.53915C9.12986 1.53189 8.05617 1.9644 7.25702 2.74302L6.53002 3.47002C6.39346 3.61153 6.31796 3.80102 6.31976 3.99767C6.32156 4.19432 6.40052 4.38239 6.53965 4.52138C6.67877 4.66037 6.86692 4.73916 7.06356 4.74078C7.26021 4.74239 7.44963 4.6667 7.59102 4.53002L8.31802 3.80302C8.83413 3.29697 9.52912 3.01508 10.2519 3.01864C10.9747 3.02219 11.6669 3.3109 12.178 3.82201C12.6891 4.33312 12.9778 5.0253 12.9814 5.74811C12.985 6.47091 12.7031 7.16591 12.197 7.68202L11.47 8.40902ZM10.53 6.53002C10.6037 6.46136 10.6628 6.37856 10.7038 6.28656C10.7448 6.19456 10.7668 6.09524 10.7686 5.99454C10.7704 5.89384 10.7519 5.79381 10.7141 5.70042C10.6764 5.60703 10.6203 5.5222 10.5491 5.45098C10.4778 5.37976 10.393 5.32362 10.2996 5.2859C10.2062 5.24817 10.1062 5.22965 10.0055 5.23143C9.90479 5.2332 9.80548 5.25524 9.71348 5.29624C9.62148 5.33723 9.53868 5.39633 9.47002 5.47002L5.47002 9.47002C5.39633 9.53868 5.33723 9.62148 5.29624 9.71348C5.25524 9.80548 5.2332 9.90479 5.23143 10.0055C5.22965 10.1062 5.24817 10.2062 5.2859 10.2996C5.32362 10.393 5.37976 10.4778 5.45098 10.5491C5.5222 10.6203 5.60703 10.6764 5.70042 10.7141C5.79381 10.7519 5.89384 10.7704 5.99454 10.7686C6.09524 10.7668 6.19456 10.7448 6.28656 10.7038C6.37856 10.6628 6.46136 10.6037 6.53002 10.53L10.53 6.53002Z" fill="#212121"/>
</g>
</svg>
