<svg width="390" height="1027" viewBox="0 0 390 1027" fill="none" xmlns="http://www.w3.org/2000/svg">
<path d="M644.688 0C546.081 78.2428 460.009 164.711 378.712 260.789C345.775 299.714 313.22 338.889 282.753 379.801C269.331 397.825 234.408 446.843 222.239 465.098C213.041 478.895 185.055 517.135 199.762 509.475C247.37 484.679 290.283 423.19 329.148 387.582C388.957 332.785 454.222 287.179 523.659 245.516C557.777 225.046 592.426 205.217 627.975 187.307C632.977 184.787 647.926 181.008 644.688 185.578C641.125 190.608 635.392 192.667 630.28 195.664C603.209 211.533 581.528 235.857 561.985 259.925C452.807 394.376 370.414 548.261 278.719 694.477C274.218 701.654 286.554 679.43 291.11 672.288C322.293 623.407 366.158 584.478 409.257 546.36C474.819 488.376 543.361 434.148 614.143 382.683C673.79 339.314 735.756 290.302 801.45 255.89C818.967 246.714 778.24 287.923 767.158 304.302C659.515 463.398 569.825 634.308 474.959 801.098C469.234 811.164 445.79 860.525 430.293 876.021C405.13 901.184 463.143 812.855 481.01 782.079C525.366 705.679 573.675 632.981 631.144 565.667C672.7 516.993 708.468 481.201 755.343 438.587C771.85 423.581 820.853 385.33 814.129 406.601C805.142 435.028 789.31 460.877 774.939 486.999C740.695 549.239 636.866 721.311 599.734 780.927C581.451 810.281 563.116 839.642 543.254 867.952C537.317 876.416 532.55 888.556 522.506 891.006C516.83 892.39 520.502 879.492 519.625 873.716C518.197 864.315 516.69 854.921 515.59 845.476C508.772 786.935 508.429 730.401 515.878 671.712C522.019 623.329 531.523 575.923 544.983 529.071C557.073 486.99 567.873 476.328 548.441 507.17C472.174 628.218 388.85 743.79 302.925 858.155C272.41 898.769 245.48 942.686 209.559 978.608C193.095 995.072 229.204 936.362 240.105 915.788C312.3 779.526 393.203 644.631 450.465 501.119C459.409 478.702 509.804 378.979 435.48 424.467C397.455 447.739 326.931 523.156 298.89 553.565C209.653 650.337 139.84 766.459 43 855.849" stroke="#FFECB3" stroke-opacity="0.5" stroke-width="90" stroke-linecap="round"/>
</svg>
