<svg width="375" height="61" viewBox="0 0 375 61" fill="none" xmlns="http://www.w3.org/2000/svg">
<rect width="75" height="49" transform="translate(0 12)" fill="white"/>
<path d="M16.7119 56H15.6133V48.9541H19.9199V49.9551H16.7119V56ZM21.7607 53.5684C21.7347 53.9688 21.6891 54.3138 21.624 54.6035C21.5589 54.89 21.4629 55.1471 21.3359 55.375C21.2122 55.5996 21.0479 55.7689 20.8428 55.8828C20.6377 55.9967 20.3919 56.0537 20.1055 56.0537C19.9655 56.0537 19.8451 56.0342 19.7441 55.9951V55.0137C19.832 55.0397 19.9264 55.0527 20.0273 55.0527C20.2715 55.0527 20.4505 54.9209 20.5645 54.6572C20.6816 54.3936 20.7581 54.0127 20.7939 53.5146L20.9795 50.6826H24.6416V56H23.5918V51.5664H21.9072L21.7607 53.5684ZM28.001 55.2041C28.3949 55.2041 28.722 55.0934 28.9824 54.8721C29.2461 54.6507 29.3779 54.374 29.3779 54.042V53.5977L28.0791 53.6807C27.7145 53.7035 27.446 53.7783 27.2734 53.9053C27.1009 54.0322 27.0146 54.2129 27.0146 54.4473C27.0146 54.6816 27.1058 54.8672 27.2881 55.0039C27.4704 55.1374 27.708 55.2041 28.001 55.2041ZM27.7324 56.0879C27.2116 56.0879 26.7852 55.943 26.4531 55.6533C26.1243 55.3604 25.96 54.9746 25.96 54.4961C25.96 54.0208 26.1309 53.6481 26.4727 53.3779C26.8145 53.1045 27.3027 52.9482 27.9375 52.9092L29.3779 52.8262V52.3672C29.3779 52.084 29.2852 51.8675 29.0996 51.7178C28.9141 51.5648 28.6439 51.4883 28.2891 51.4883C27.9961 51.4883 27.752 51.5404 27.5566 51.6445C27.3646 51.7454 27.2393 51.8903 27.1807 52.0791H26.165C26.2171 51.6234 26.4401 51.2604 26.834 50.9902C27.2311 50.7168 27.7324 50.5801 28.3379 50.5801C29.002 50.5801 29.5146 50.738 29.876 51.0537C30.2406 51.3662 30.4229 51.804 30.4229 52.3672V56H29.4121V55.2529H29.3291C29.1696 55.5199 28.9499 55.7266 28.6699 55.873C28.3932 56.0163 28.0807 56.0879 27.7324 56.0879ZM34.207 51.4883H33.0498V52.8652H34.0898C34.7148 52.8652 35.0273 52.6341 35.0273 52.1719C35.0273 51.957 34.9574 51.7894 34.8174 51.6689C34.6807 51.5485 34.4772 51.4883 34.207 51.4883ZM34.1631 53.6367H33.0498V55.1943H34.2949C34.6042 55.1943 34.8402 55.1276 35.0029 54.9941C35.1657 54.8607 35.2471 54.6686 35.2471 54.418C35.2471 53.8971 34.8857 53.6367 34.1631 53.6367ZM32.0098 56V50.6826H34.4072C34.9248 50.6826 35.3285 50.8047 35.6182 51.0488C35.9111 51.2897 36.0576 51.6185 36.0576 52.0352C36.0576 52.3053 35.9714 52.5479 35.7988 52.7627C35.6296 52.9775 35.4163 53.1094 35.1592 53.1582V53.2412C35.501 53.2803 35.776 53.4137 35.9844 53.6416C36.1927 53.8662 36.2969 54.1413 36.2969 54.4668C36.2969 54.9355 36.1309 55.3083 35.7988 55.585C35.4668 55.8617 35.0111 56 34.4316 56H32.0098ZM41.1846 56V53.6953H38.7334V56H37.6836V50.6826H38.7334V52.8115H41.1846V50.6826H42.2295V56H41.1846ZM45.5889 55.2041C45.9827 55.2041 46.3099 55.0934 46.5703 54.8721C46.834 54.6507 46.9658 54.374 46.9658 54.042V53.5977L45.667 53.6807C45.3024 53.7035 45.0339 53.7783 44.8613 53.9053C44.6888 54.0322 44.6025 54.2129 44.6025 54.4473C44.6025 54.6816 44.6937 54.8672 44.876 55.0039C45.0583 55.1374 45.2959 55.2041 45.5889 55.2041ZM45.3203 56.0879C44.7995 56.0879 44.373 55.943 44.041 55.6533C43.7122 55.3604 43.5479 54.9746 43.5479 54.4961C43.5479 54.0208 43.7188 53.6481 44.0605 53.3779C44.4023 53.1045 44.8906 52.9482 45.5254 52.9092L46.9658 52.8262V52.3672C46.9658 52.084 46.873 51.8675 46.6875 51.7178C46.502 51.5648 46.2318 51.4883 45.877 51.4883C45.584 51.4883 45.3398 51.5404 45.1445 51.6445C44.9525 51.7454 44.8271 51.8903 44.7686 52.0791H43.7529C43.805 51.6234 44.028 51.2604 44.4219 50.9902C44.819 50.7168 45.3203 50.5801 45.9258 50.5801C46.5898 50.5801 47.1025 50.738 47.4639 51.0537C47.8285 51.3662 48.0107 51.804 48.0107 52.3672V56H47V55.2529H46.917C46.7575 55.5199 46.5378 55.7266 46.2578 55.873C45.9811 56.0163 45.6686 56.0879 45.3203 56.0879ZM51.5215 53.334H52.4736V51.5664H51.5215C51.2025 51.5664 50.9486 51.6478 50.7598 51.8105C50.5742 51.9733 50.4814 52.1947 50.4814 52.4746C50.4814 52.7285 50.5758 52.9352 50.7646 53.0947C50.9567 53.2542 51.209 53.334 51.5215 53.334ZM52.4736 56V54.1787H51.6826L50.3936 56H49.1729L50.623 53.9883C50.2552 53.8841 49.9655 53.6986 49.7539 53.4316C49.5456 53.1615 49.4414 52.8441 49.4414 52.4795C49.4414 51.9294 49.6253 51.4932 49.9932 51.1709C50.361 50.8454 50.8525 50.6826 51.4678 50.6826H53.5088V56H52.4736Z" fill="#282B2E"/>
<path d="M24.75 40V27.335L35 18.331L45.25 27.335V40H24.75Z" stroke="#282B2E" stroke-width="2"/>
<rect width="75" height="49" transform="translate(75 12)" fill="white"/>
<path d="M93.9482 56V50.8047H93.8652L90.2861 56H89.2217V48.9541H90.3057V54.1641H90.3887L93.9678 48.9541H95.0322V56H93.9482ZM101.277 52.4209H100.257C100.192 52.1507 100.05 51.9326 99.832 51.7666C99.6172 51.6006 99.3405 51.5176 99.002 51.5176C98.5625 51.5176 98.2158 51.6771 97.9619 51.9961C97.7113 52.3151 97.5859 52.7578 97.5859 53.3242C97.5859 53.8971 97.7113 54.348 97.9619 54.6768C98.2158 55.0023 98.5625 55.165 99.002 55.165C99.3372 55.165 99.6123 55.0902 99.8271 54.9404C100.045 54.7907 100.188 54.5742 100.257 54.291H101.277C101.209 54.8379 100.975 55.2773 100.574 55.6094C100.174 55.9382 99.6514 56.1025 99.0068 56.1025C98.2321 56.1025 97.6217 55.8568 97.1758 55.3652C96.7331 54.8704 96.5117 54.1901 96.5117 53.3242C96.5117 52.4714 96.7331 51.8008 97.1758 51.3125C97.6185 50.8242 98.2272 50.5801 99.002 50.5801C99.6497 50.5801 100.172 50.7493 100.569 51.0879C100.97 51.4264 101.206 51.8708 101.277 52.4209ZM106.312 50.6826V51.5664H104.637V56H103.587V51.5664H101.912V50.6826H106.312ZM109.568 56.1025C108.787 56.1025 108.174 55.8568 107.728 55.3652C107.282 54.8737 107.059 54.1982 107.059 53.3389C107.059 52.4827 107.282 51.8089 107.728 51.3174C108.177 50.8258 108.79 50.5801 109.568 50.5801C110.343 50.5801 110.953 50.8258 111.399 51.3174C111.849 51.8089 112.073 52.4827 112.073 53.3389C112.073 54.1982 111.85 54.8737 111.404 55.3652C110.958 55.8568 110.346 56.1025 109.568 56.1025ZM109.568 55.1699C110.021 55.1699 110.371 55.0104 110.618 54.6914C110.869 54.3691 110.994 53.9183 110.994 53.3389C110.994 52.7627 110.869 52.3151 110.618 51.9961C110.371 51.6738 110.021 51.5127 109.568 51.5127C109.113 51.5127 108.761 51.6722 108.514 51.9912C108.266 52.3102 108.143 52.7594 108.143 53.3389C108.143 53.9215 108.266 54.3724 108.514 54.6914C108.761 55.0104 109.113 55.1699 109.568 55.1699ZM116.189 50.5947C116.867 50.5947 117.404 50.8421 117.801 51.3369C118.198 51.8285 118.396 52.4958 118.396 53.3389C118.396 54.182 118.198 54.8509 117.801 55.3457C117.407 55.8405 116.873 56.0879 116.199 56.0879C115.822 56.0879 115.49 56.0098 115.203 55.8535C114.917 55.694 114.703 55.4743 114.563 55.1943H114.48V57.7676H113.431V50.6826H114.441V51.5615H114.52C114.679 51.2588 114.907 51.0228 115.203 50.8535C115.499 50.681 115.828 50.5947 116.189 50.5947ZM115.892 55.1455C116.338 55.1455 116.686 54.986 116.937 54.667C117.19 54.3447 117.317 53.902 117.317 53.3389C117.317 52.7757 117.19 52.3346 116.937 52.0156C116.686 51.6966 116.339 51.5371 115.896 51.5371C115.454 51.5371 115.104 51.6999 114.847 52.0254C114.59 52.3477 114.461 52.7871 114.461 53.3438C114.461 53.8971 114.59 54.3366 114.847 54.6621C115.104 54.9844 115.452 55.1455 115.892 55.1455ZM120.799 56H119.759V50.6826H120.799V54.3398H120.882L123.333 50.6826H124.373V56H123.333V52.3232H123.255L120.799 56ZM127.913 53.334H128.865V51.5664H127.913C127.594 51.5664 127.34 51.6478 127.151 51.8105C126.966 51.9733 126.873 52.1947 126.873 52.4746C126.873 52.7285 126.967 52.9352 127.156 53.0947C127.348 53.2542 127.601 53.334 127.913 53.334ZM128.865 56V54.1787H128.074L126.785 56H125.564L127.015 53.9883C126.647 53.8841 126.357 53.6986 126.146 53.4316C125.937 53.1615 125.833 52.8441 125.833 52.4795C125.833 51.9294 126.017 51.4932 126.385 51.1709C126.753 50.8454 127.244 50.6826 127.859 50.6826H129.9V56H128.865Z" fill="#A7B1BA"/>
<path fill-rule="evenodd" clip-rule="evenodd" d="M102 30C102 25.5817 105.582 22 110 22C114.418 22 118 25.5817 118 30C118 34.4183 114.418 38 110 38C105.582 38 102 34.4183 102 30ZM110 20C104.477 20 100 24.4772 100 30C100 35.5228 104.477 40 110 40C115.523 40 120 35.5228 120 30C120 24.4772 115.523 20 110 20ZM108.188 26V31V32H109.188H114V30H110.188V26H108.188Z" fill="#A7B1BA"/>
<rect width="75" height="49" transform="translate(150 12)" fill="white"/>
<g filter="url(#filter0_b_1092_17672)">
<rect x="161" width="48" height="48" rx="24" fill="white" fill-opacity="0.5"/>
</g>
<g filter="url(#filter1_d_1092_17672)">
<rect x="165" y="4" width="40" height="40" rx="20" fill="#EA417F"/>
</g>
<path d="M178.5 31L191.5 18M191.5 18H181.5M191.5 18V28" stroke="white" stroke-width="2"/>
<path d="M168.943 56H167.859V49.9551H164.334V56H163.235V48.9541H168.943V56ZM172.127 53.5684C172.101 53.9688 172.055 54.3138 171.99 54.6035C171.925 54.89 171.829 55.1471 171.702 55.375C171.578 55.5996 171.414 55.7689 171.209 55.8828C171.004 55.9967 170.758 56.0537 170.472 56.0537C170.332 56.0537 170.211 56.0342 170.11 55.9951V55.0137C170.198 55.0397 170.293 55.0527 170.394 55.0527C170.638 55.0527 170.817 54.9209 170.931 54.6572C171.048 54.3936 171.124 54.0127 171.16 53.5146L171.346 50.6826H175.008V56H173.958V51.5664H172.273L172.127 53.5684ZM178.367 55.2041C178.761 55.2041 179.088 55.0934 179.349 54.8721C179.612 54.6507 179.744 54.374 179.744 54.042V53.5977L178.445 53.6807C178.081 53.7035 177.812 53.7783 177.64 53.9053C177.467 54.0322 177.381 54.2129 177.381 54.4473C177.381 54.6816 177.472 54.8672 177.654 55.0039C177.837 55.1374 178.074 55.2041 178.367 55.2041ZM178.099 56.0879C177.578 56.0879 177.151 55.943 176.819 55.6533C176.491 55.3604 176.326 54.9746 176.326 54.4961C176.326 54.0208 176.497 53.6481 176.839 53.3779C177.181 53.1045 177.669 52.9482 178.304 52.9092L179.744 52.8262V52.3672C179.744 52.084 179.651 51.8675 179.466 51.7178C179.28 51.5648 179.01 51.4883 178.655 51.4883C178.362 51.4883 178.118 51.5404 177.923 51.6445C177.731 51.7454 177.605 51.8903 177.547 52.0791H176.531C176.583 51.6234 176.806 51.2604 177.2 50.9902C177.597 50.7168 178.099 50.5801 178.704 50.5801C179.368 50.5801 179.881 50.738 180.242 51.0537C180.607 51.3662 180.789 51.804 180.789 52.3672V56H179.778V55.2529H179.695C179.536 55.5199 179.316 55.7266 179.036 55.873C178.759 56.0163 178.447 56.0879 178.099 56.0879ZM186.341 50.6826V51.5664H184.666V56H183.616V51.5664H181.941V50.6826H186.341ZM190.467 51.8496C190.232 51.599 189.922 51.4736 189.534 51.4736C189.147 51.4736 188.828 51.599 188.577 51.8496C188.326 52.1003 188.187 52.4339 188.157 52.8506H190.843C190.83 52.4307 190.704 52.097 190.467 51.8496ZM190.838 54.5645H191.849C191.728 55.043 191.465 55.4189 191.058 55.6924C190.654 55.9658 190.149 56.1025 189.544 56.1025C188.782 56.1025 188.182 55.8584 187.742 55.3701C187.306 54.8786 187.088 54.208 187.088 53.3584C187.088 52.5088 187.309 51.8333 187.752 51.332C188.195 50.8307 188.79 50.5801 189.539 50.5801C190.278 50.5801 190.857 50.8177 191.277 51.293C191.701 51.7682 191.912 52.4242 191.912 53.2607V53.627H188.157V53.6855C188.174 54.1543 188.309 54.5254 188.562 54.7988C188.816 55.0723 189.153 55.209 189.573 55.209C190.215 55.209 190.636 54.9941 190.838 54.5645ZM193.763 56H192.498L194.695 53.1631L192.581 50.6826H193.807L195.54 52.8604H195.809V50.6826H196.829V52.8604H197.098L198.831 50.6826H200.042L197.942 53.1484L200.154 56H198.875L197.103 53.6562H196.829V56H195.809V53.6562H195.535L193.763 56ZM202.312 56H201.272V50.6826H202.312V54.3398H202.396L204.847 50.6826H205.887V56H204.847V52.3232H204.769L202.312 56Z" fill="#A7B1BA"/>
<rect width="75" height="49" transform="translate(225 12)" fill="white"/>
<path d="M256.678 56H255.584V52.958H255.501C255.062 53.2998 254.505 53.4707 253.831 53.4707C252.988 53.4707 252.33 53.2298 251.858 52.748C251.39 52.263 251.155 51.638 251.155 50.873V48.9541H252.249V50.8242C252.249 51.332 252.396 51.7292 252.688 52.0156C252.981 52.3021 253.398 52.4453 253.938 52.4453C254.28 52.4453 254.593 52.39 254.876 52.2793C255.162 52.1654 255.398 52.0189 255.584 51.8398V48.9541H256.678V56ZM260.159 55.2041C260.553 55.2041 260.88 55.0934 261.141 54.8721C261.404 54.6507 261.536 54.374 261.536 54.042V53.5977L260.237 53.6807C259.873 53.7035 259.604 53.7783 259.432 53.9053C259.259 54.0322 259.173 54.2129 259.173 54.4473C259.173 54.6816 259.264 54.8672 259.446 55.0039C259.629 55.1374 259.866 55.2041 260.159 55.2041ZM259.891 56.0879C259.37 56.0879 258.943 55.943 258.611 55.6533C258.283 55.3604 258.118 54.9746 258.118 54.4961C258.118 54.0208 258.289 53.6481 258.631 53.3779C258.973 53.1045 259.461 52.9482 260.096 52.9092L261.536 52.8262V52.3672C261.536 52.084 261.443 51.8675 261.258 51.7178C261.072 51.5648 260.802 51.4883 260.447 51.4883C260.154 51.4883 259.91 51.5404 259.715 51.6445C259.523 51.7454 259.397 51.8903 259.339 52.0791H258.323C258.375 51.6234 258.598 51.2604 258.992 50.9902C259.389 50.7168 259.891 50.5801 260.496 50.5801C261.16 50.5801 261.673 50.738 262.034 51.0537C262.399 51.3662 262.581 51.804 262.581 52.3672V56H261.57V55.2529H261.487C261.328 55.5199 261.108 55.7266 260.828 55.873C260.551 56.0163 260.239 56.0879 259.891 56.0879ZM268.133 50.6826V51.5664H266.458V56H265.408V51.5664H263.733V50.6826H268.133Z" fill="#A7B1BA"/>
<path d="M260.984 36H261.984V35H260.984H260.984H260.984H260.984H260.984H260.984H260.984H260.984H260.984H260.984H260.984H260.983H260.983H260.983H260.983H260.983H260.982H260.982H260.982H260.982H260.981H260.981H260.981H260.981H260.98H260.98H260.98H260.979H260.979H260.979H260.978H260.978H260.977H260.977H260.976H260.976H260.976H260.975H260.975H260.974H260.974H260.973H260.973H260.972H260.971H260.971H260.97H260.97H260.969H260.968H260.968H260.967H260.967H260.966H260.965H260.965H260.964H260.963H260.962H260.962H260.961H260.96H260.959H260.959H260.958H260.957H260.956H260.955H260.955H260.954H260.953H260.952H260.951H260.95H260.949H260.949H260.948H260.947H260.946H260.945H260.944H260.943H260.942H260.941H260.94H260.939H260.938H260.937H260.936H260.935H260.934H260.933H260.931H260.93H260.929H260.928H260.927H260.926H260.925H260.924H260.922H260.921H260.92H260.919H260.918H260.916H260.915H260.914H260.913H260.912H260.91H260.909H260.908H260.906H260.905H260.904H260.903H260.901H260.9H260.899H260.897H260.896H260.894H260.893H260.892H260.89H260.889H260.887H260.886H260.885H260.883H260.882H260.88H260.879H260.877H260.876H260.874H260.873H260.871H260.87H260.868H260.867H260.865H260.864H260.862H260.86H260.859H260.857H260.856H260.854H260.852H260.851H260.849H260.848H260.846H260.844H260.843H260.841H260.839H260.837H260.836H260.834H260.832H260.831H260.829H260.827H260.825H260.824H260.822H260.82H260.818H260.817H260.815H260.813H260.811H260.809H260.808H260.806H260.804H260.802H260.8H260.798H260.797H260.795H260.793H260.791H260.789H260.787H260.785H260.783H260.781H260.78H260.778H260.776H260.774H260.772H260.77H260.768H260.766H260.764H260.762H260.76H260.758H260.756H260.754H260.752H260.75H260.748H260.746H260.744H260.742H260.74H260.738H260.736H260.733H260.731H260.729H260.727H260.725H260.723H260.721H260.719H260.717H260.715H260.712H260.71H260.708H260.706H260.704H260.702H260.7H260.697H260.695H260.693H260.691H260.689H260.686H260.684H260.682H260.68H260.678H260.675H260.673H260.671H260.669H260.666H260.664H260.662H260.66H260.657H260.655H260.653H260.651H260.648H260.646H260.644H260.642H260.639H260.637H260.635H260.632H260.63H260.628H260.625H260.623H260.621H260.618H260.616H260.614H260.611H260.609H260.607H260.604H260.602H260.599H260.597H260.595H260.592H260.59H260.588H260.585H260.583H260.58H260.578H260.576H260.573H260.571H260.568H260.566H260.563H260.561H260.559H260.556H260.554H260.551H260.549H260.546H260.544H260.541H260.539H260.537H260.534H260.532H260.529H260.527H260.524H260.522H260.519H260.517H260.514H260.512H260.509H260.507H260.504H260.502H260.499H260.497H260.494H260.492H260.489H260.487H260.484H260.482H260.479H260.477H260.474H260.471H260.469H260.466H260.464H260.461H260.459H260.456H260.454H260.451H260.449H260.446H260.443H260.441H260.438H260.436H260.433H260.431H260.428H260.425H260.423H260.42H260.418H260.415H260.413H260.41H260.407H260.405H260.402H260.4H260.397H260.395H260.392H260.389H260.387H260.384H260.382H260.379H260.376H260.374H260.371H260.369H260.366H260.363H260.361H260.358H260.356H260.353H260.35H260.348H260.345H260.343H260.34H260.337H260.335H260.332H260.33H260.327H260.324H260.322H260.319H260.317H260.314H260.311H260.309H260.306H260.304H260.301H260.298H260.296H260.293H260.29H260.288H260.285H260.283H260.28H260.277H260.275H260.272H260.27H260.267H260.264H260.262H260.259H260.257H260.254H260.251H260.249H260.246H260.244H260.241H260.238H260.236H260.233H260.231H260.228H260.225H260.223H260.22H260.218H260.215H260.212H260.21H260.207H260.205H260.202H260.2H260.197H260.194H260.192H260.189H260.187H260.184H260.181H260.179H260.176H260.174H260.171H260.169H260.166H260.163H260.161H260.158H260.156H260.153H260.151H260.148H260.146H260.143H260.141H260.138H260.135H260.133H260.13H260.128H260.125H260.123H260.12H260.118H260.115H260.113H260.11H260.108H260.105H260.103H260.1H260.098H260.095H260.093H260.09H260.088H260.085H260.083H260.08H260.078H260.075H260.073H260.07H260.068H260.065H260.063H260.06H260.058H260.055H260.053H260.051H260.048H260.046H260.043H260.041H260.038H260.036H260.034H260.031H260.029H260.026H260.024H260.021H260.019H260.017H260.014H260.012H260.01H260.007H260.005H260.002H260C257.379 35 255.086 34.385 253.481 33.323C251.903 32.2784 251 30.8194 251 29C251 25.3307 254.81 22 260 22C265.19 22 269 25.3307 269 29C269 31.4253 267.821 35.602 261.984 38.4607V38.4558V38.4451V38.4344V38.4237V38.413V38.4024V38.3917V38.381V38.3704V38.3597V38.3491V38.3385V38.3279V38.3173V38.3067V38.2961V38.2855V38.275V38.2644V38.2539V38.2433V38.2328V38.2223V38.2118V38.2013V38.1909V38.1804V38.1699V38.1595V38.1491V38.1386V38.1282V38.1178V38.1075V38.0971V38.0867V38.0764V38.0661V38.0557V38.0454V38.0351V38.0248V38.0146V38.0043V37.9941V37.9838V37.9736V37.9634V37.9532V37.9431V37.9329V37.9227V37.9126V37.9025V37.8924V37.8823V37.8722V37.8622V37.8521V37.8421V37.8321V37.8221V37.8121V37.8021V37.7922V37.7822V37.7723V37.7624V37.7525V37.7426V37.7327V37.7229V37.7131V37.7033V37.6935V37.6837V37.6739V37.6642V37.6544V37.6447V37.635V37.6254V37.6157V37.6061V37.5964V37.5868V37.5772V37.5677V37.5581V37.5486V37.5391V37.5296V37.5201V37.5106V37.5012V37.4918V37.4824V37.473V37.4636V37.4543V37.4449V37.4356V37.4263V37.4171V37.4078V37.3986V37.3894V37.3802V37.371V37.3619V37.3527V37.3436V37.3345V37.3255V37.3164V37.3074V37.2984V37.2894V37.2805V37.2715V37.2626V37.2537V37.2448V37.236V37.2272V37.2184V37.2096V37.2008V37.1921V37.1833V37.1747V37.166V37.1573V37.1487V37.1401V37.1315V37.123V37.1144V37.1059V37.0974V37.089V37.0805V37.0721V37.0637V37.0554V37.047V37.0387V37.0304V37.0221V37.0139V37.0057V36.9975V36.9893V36.9812V36.9731V36.965V36.9569V36.9489V36.9408V36.9328V36.9249V36.9169V36.909V36.9011V36.8933V36.8855V36.8777V36.8699V36.8621V36.8544V36.8467V36.839V36.8314V36.8238V36.8162V36.8086V36.8011V36.7936V36.7861V36.7786V36.7712V36.7638V36.7565V36.7491V36.7418V36.7345V36.7273V36.7201V36.7129V36.7057V36.6986V36.6915V36.6844V36.6774V36.6703V36.6634V36.6564V36.6495V36.6426V36.6357V36.6289V36.6221V36.6153V36.6086V36.6019V36.5952V36.5885V36.5819V36.5753V36.5688V36.5622V36.5557V36.5493V36.5428V36.5364V36.5301V36.5237V36.5174V36.5112V36.5049V36.4987V36.4926V36.4864V36.4803V36.4742V36.4682V36.4622V36.4562V36.4503V36.4444V36.4385V36.4327V36.4269V36.4211V36.4154V36.4097V36.404V36.3984V36.3928V36.3872V36.3817V36.3762V36.3707V36.3653V36.3599V36.3545V36.3492V36.3439V36.3387V36.3335V36.3283V36.3232V36.3181V36.313V36.308V36.303V36.298V36.2931V36.2882V36.2833V36.2785V36.2738V36.269V36.2643V36.2597V36.255V36.2504V36.2459V36.2414V36.2369V36.2325V36.2281V36.2237V36.2194V36.2151V36.2109V36.2067V36.2025V36.1984V36.1943V36.1902V36.1862V36.1823V36.1783V36.1744V36.1706V36.1668V36.163V36.1593V36.1556V36.1519V36.1483V36.1447V36.1412V36.1377V36.1343V36.1309V36.1275V36.1242V36.1209V36.1177V36.1145V36.1113V36.1082V36.1051V36.1021V36.0991V36.0961V36.0932V36.0904V36.0875V36.0847V36.082V36.0793V36.0767V36.0741V36.0715V36.069V36.0665V36.0641V36.0617V36.0593V36.057V36.0547V36.0525V36.0504V36.0482V36.0461V36.0441V36.0421V36.0402V36.0383V36.0364V36.0346V36.0328V36.0311V36.0294V36.0278V36.0262V36.0246V36.0231V36.0217V36.0203V36.0189V36.0176V36.0163V36.0151V36.0139V36.0128V36.0117V36.0107V36.0097V36.0088V36.0079V36.007V36.0062V36.0055V36.0048V36.0041V36.0035V36.003V36.0024V36.002V36.0016V36.0012V36.0009V36.0006V36.0004V36.0002V36.0001V36L260.984 36Z" stroke="#A7B1BA" stroke-width="2"/>
<rect x="264" y="18" width="8" height="8" rx="4" fill="#EA417F"/>
<rect width="75" height="49" transform="translate(300 12)" fill="white"/>
<path d="M329.524 55.0039V56H325.052V48.9541H329.524V49.9502H326.146V51.9424H329.344V52.8896H326.146V55.0039H329.524ZM338.704 57.3916H337.732V56H331.077V50.6826H332.127V55.1162H333.958V50.6826H335.008V55.1162H336.839V50.6826H337.889V55.1162H338.704V57.3916ZM342.889 51.8496C342.654 51.599 342.343 51.4736 341.956 51.4736C341.569 51.4736 341.25 51.599 340.999 51.8496C340.748 52.1003 340.608 52.4339 340.579 52.8506H343.265C343.252 52.4307 343.126 52.097 342.889 51.8496ZM343.26 54.5645H344.271C344.15 55.043 343.886 55.4189 343.479 55.6924C343.076 55.9658 342.571 56.1025 341.966 56.1025C341.204 56.1025 340.604 55.8584 340.164 55.3701C339.728 54.8786 339.51 54.208 339.51 53.3584C339.51 52.5088 339.731 51.8333 340.174 51.332C340.617 50.8307 341.212 50.5801 341.961 50.5801C342.7 50.5801 343.279 50.8177 343.699 51.293C344.122 51.7682 344.334 52.4242 344.334 53.2607V53.627H340.579V53.6855C340.595 54.1543 340.73 54.5254 340.984 54.7988C341.238 55.0723 341.575 55.209 341.995 55.209C342.636 55.209 343.058 54.9941 343.26 54.5645ZM340.921 49.9551C340.735 49.9551 340.579 49.8932 340.452 49.7695C340.328 49.6426 340.267 49.4863 340.267 49.3008C340.267 49.1152 340.328 48.959 340.452 48.832C340.579 48.7051 340.735 48.6416 340.921 48.6416C341.103 48.6416 341.256 48.7051 341.38 48.832C341.507 48.959 341.57 49.1152 341.57 49.3008C341.57 49.4863 341.507 49.6426 341.38 49.7695C341.256 49.8932 341.103 49.9551 340.921 49.9551ZM343.465 49.7695C343.341 49.8932 343.188 49.9551 343.006 49.9551C342.824 49.9551 342.669 49.8932 342.542 49.7695C342.415 49.6426 342.352 49.4863 342.352 49.3008C342.352 49.1152 342.415 48.959 342.542 48.832C342.669 48.7051 342.824 48.6416 343.006 48.6416C343.188 48.6416 343.341 48.7051 343.465 48.832C343.592 48.959 343.655 49.1152 343.655 49.3008C343.655 49.4863 343.592 49.6426 343.465 49.7695Z" fill="#A7B1BA"/>
<mask id="path-13-inside-1_1092_17672" fill="white">
<path fill-rule="evenodd" clip-rule="evenodd" d="M328 23H344V25H328V23ZM328 29H340V31H328V29ZM344 35H328V37H344V35Z"/>
</mask>
<path d="M344 23H345V22H344V23ZM328 23V22H327V23H328ZM344 25V26H345V25H344ZM328 25H327V26H328V25ZM340 29H341V28H340V29ZM328 29V28H327V29H328ZM340 31V32H341V31H340ZM328 31H327V32H328V31ZM328 35V34H327V35H328ZM344 35H345V34H344V35ZM328 37H327V38H328V37ZM344 37V38H345V37H344ZM344 22H328V24H344V22ZM345 25V23H343V25H345ZM328 26H344V24H328V26ZM327 23V25H329V23H327ZM340 28H328V30H340V28ZM341 31V29H339V31H341ZM328 32H340V30H328V32ZM327 29V31H329V29H327ZM328 36H344V34H328V36ZM329 37V35H327V37H329ZM344 36H328V38H344V36ZM343 35V37H345V35H343Z" fill="#A7B1BA" mask="url(#path-13-inside-1_1092_17672)"/>
<defs>
<filter id="filter0_b_1092_17672" x="153" y="-8" width="64" height="64" filterUnits="userSpaceOnUse" color-interpolation-filters="sRGB">
<feFlood flood-opacity="0" result="BackgroundImageFix"/>
<feGaussianBlur in="BackgroundImageFix" stdDeviation="4"/>
<feComposite in2="SourceAlpha" operator="in" result="effect1_backgroundBlur_1092_17672"/>
<feBlend mode="normal" in="SourceGraphic" in2="effect1_backgroundBlur_1092_17672" result="shape"/>
</filter>
<filter id="filter1_d_1092_17672" x="159" y="0" width="52" height="52" filterUnits="userSpaceOnUse" color-interpolation-filters="sRGB">
<feFlood flood-opacity="0" result="BackgroundImageFix"/>
<feColorMatrix in="SourceAlpha" type="matrix" values="0 0 0 0 0 0 0 0 0 0 0 0 0 0 0 0 0 0 127 0" result="hardAlpha"/>
<feOffset dy="2"/>
<feGaussianBlur stdDeviation="3"/>
<feColorMatrix type="matrix" values="0 0 0 0 0.731441 0 0 0 0 0.0638813 0 0 0 0 0.308785 0 0 0 0.2 0"/>
<feBlend mode="normal" in2="BackgroundImageFix" result="effect1_dropShadow_1092_17672"/>
<feBlend mode="normal" in="SourceGraphic" in2="effect1_dropShadow_1092_17672" result="shape"/>
</filter>
</defs>
</svg>
