<svg width="375" height="52" viewBox="0 0 375 52" fill="none" xmlns="http://www.w3.org/2000/svg">
<g clip-path="url(#clip0_1092_17660)">
<path d="M30.5093 36H26.7563V24.2285H20.9834V36H17.2202V21.2036H30.5093V36ZM40.1358 24.6694C41.544 24.6694 42.6378 25.1719 43.4171 26.1768C44.2032 27.1816 44.5963 28.5967 44.5963 30.4219C44.5963 32.2402 44.21 33.6519 43.4376 34.6567C42.6651 35.6616 41.5816 36.1641 40.1871 36.1641C39.3736 36.1641 38.6695 35.9829 38.0748 35.6206C37.48 35.2515 37.046 34.7422 36.7725 34.0928H36.7008V39.6094H33.0606V24.8335H36.6802V26.8228H36.752C37.0391 26.146 37.4732 25.6196 38.0543 25.2437C38.6422 24.8608 39.336 24.6694 40.1358 24.6694ZM37.2545 32.5444C37.6304 33.064 38.1397 33.3237 38.7823 33.3237C39.4249 33.3237 39.9341 33.064 40.3101 32.5444C40.6929 32.0181 40.8843 31.3105 40.8843 30.4219C40.8843 29.5332 40.6929 28.8257 40.3101 28.2993C39.9341 27.7729 39.4249 27.5098 38.7823 27.5098C38.1466 27.5098 37.6373 27.7764 37.2545 28.3096C36.8785 28.8359 36.6871 29.54 36.6802 30.4219C36.6871 31.3105 36.8785 32.0181 37.2545 32.5444ZM51.8849 27.1509C51.3312 27.1509 50.8629 27.3389 50.4801 27.7148C50.1041 28.084 49.8922 28.5591 49.8444 29.1401H53.9049C53.8707 28.5454 53.6691 28.0669 53.2999 27.7046C52.9308 27.3354 52.4591 27.1509 51.8849 27.1509ZM53.9869 32.4727H57.2682C57.0905 33.6279 56.5231 34.5508 55.5661 35.2412C54.609 35.9248 53.4025 36.2666 51.9464 36.2666C50.1691 36.2666 48.778 35.7539 47.7731 34.7285C46.7682 33.6963 46.2658 32.2778 46.2658 30.4731C46.2658 28.6685 46.7648 27.2329 47.7628 26.1665C48.7677 25.1001 50.1212 24.5669 51.8234 24.5669C53.505 24.5669 54.8414 25.0762 55.8327 26.0947C56.8307 27.1133 57.3297 28.4771 57.3297 30.186V31.2114H49.7931V31.437C49.7931 32.1069 49.9948 32.6504 50.3981 33.0674C50.8082 33.4844 51.3414 33.6929 51.9977 33.6929C52.483 33.6929 52.9035 33.5835 53.2589 33.3647C53.6144 33.146 53.8571 32.8486 53.9869 32.4727ZM66.6691 33.3237V27.4995H63.7468L63.552 30.4321C63.4631 31.6353 63.2067 32.5718 62.7829 33.2417V33.3237H66.6691ZM61.6755 38.8608H58.3942V33.3237H59.2043C59.5871 33.1255 59.864 32.7598 60.0349 32.2266C60.2126 31.6934 60.3288 31.0063 60.3835 30.1655L60.7219 24.8335H70.2888V33.3237H71.8884V38.8608H68.6071V36H61.6755V38.8608ZM78.2542 30.4321C78.2132 31.1431 78.1414 31.7822 78.0388 32.3496C77.9363 32.9102 77.7791 33.4331 77.5672 33.9185C77.3621 34.4038 77.1057 34.8071 76.7981 35.1284C76.4973 35.4429 76.1179 35.6924 75.6599 35.877C75.2088 36.0547 74.6926 36.1436 74.1116 36.1436C73.6741 36.1436 73.3015 36.0957 72.9939 36V32.9956C73.199 33.0435 73.4314 33.0674 73.6912 33.0674C73.9441 33.0674 74.1594 32.9956 74.3372 32.8521C74.5149 32.7017 74.6551 32.4863 74.7576 32.2061C74.8601 31.9258 74.9353 31.625 74.9832 31.3037C75.031 30.9824 75.0652 30.603 75.0857 30.1655L75.3421 24.8335H84.386V36H80.7664V27.52H78.4182L78.2542 30.4321ZM96.2581 34.7285C95.2396 35.7539 93.8451 36.2666 92.0746 36.2666C90.304 36.2666 88.9095 35.7539 87.891 34.7285C86.8724 33.6963 86.3631 32.2573 86.3631 30.4116C86.3631 28.6001 86.8792 27.1748 87.9115 26.1357C88.9437 25.0898 90.3314 24.5669 92.0746 24.5669C93.8314 24.5669 95.2225 25.0864 96.2479 26.1255C97.2733 27.1646 97.786 28.5933 97.786 30.4116C97.786 32.2642 97.2767 33.7031 96.2581 34.7285ZM90.5877 32.77C90.95 33.3237 91.4456 33.6006 92.0746 33.6006C92.7035 33.6006 93.1991 33.3237 93.5614 32.77C93.9237 32.2163 94.1048 31.4336 94.1048 30.4219C94.1048 29.4238 93.9203 28.6445 93.5511 28.084C93.1888 27.5166 92.6966 27.2329 92.0746 27.2329C91.4525 27.2329 90.9603 27.5166 90.598 28.084C90.2357 28.6445 90.0545 29.4238 90.0545 30.4219C90.0545 31.4336 90.2323 32.2163 90.5877 32.77ZM112.273 29.9707L116.169 36H111.945L109.094 31.5088H109.012V36H105.434V31.5088H105.351L102.491 36H98.3173L102.183 30.0527L98.4608 24.8335H102.552L105.351 29.1094H105.434V24.8335H109.012V29.1094H109.094L111.883 24.8335H115.923L112.273 29.9707ZM122.371 27.1509C121.817 27.1509 121.349 27.3389 120.966 27.7148C120.59 28.084 120.378 28.5591 120.331 29.1401H124.391C124.357 28.5454 124.155 28.0669 123.786 27.7046C123.417 27.3354 122.945 27.1509 122.371 27.1509ZM124.473 32.4727H127.754C127.577 33.6279 127.009 34.5508 126.052 35.2412C125.095 35.9248 123.889 36.2666 122.433 36.2666C120.655 36.2666 119.264 35.7539 118.259 34.7285C117.254 33.6963 116.752 32.2778 116.752 30.4731C116.752 28.6685 117.251 27.2329 118.249 26.1665C119.254 25.1001 120.607 24.5669 122.31 24.5669C123.991 24.5669 125.328 25.0762 126.319 26.0947C127.317 27.1133 127.816 28.4771 127.816 30.186V31.2114H120.279V31.437C120.279 32.1069 120.481 32.6504 120.884 33.0674C121.294 33.4844 121.828 33.6929 122.484 33.6929C122.969 33.6929 123.39 33.5835 123.745 33.3647C124.101 33.146 124.343 32.8486 124.473 32.4727ZM137.084 36V31.6523H133.402V36H129.773V24.8335H133.402V28.9761H137.084V24.8335H140.713V36H137.084ZM146.577 36H143.029V24.8335H146.577V31.1396H146.659L150.535 24.8335H154.072V36H150.535V29.5708H150.453L146.577 36ZM161.351 30.145H163.012V27.4688H161.351C160.906 27.4688 160.554 27.5952 160.295 27.8481C160.035 28.0942 159.905 28.4189 159.905 28.8223C159.905 29.2119 160.035 29.5298 160.295 29.7759C160.561 30.022 160.913 30.145 161.351 30.145ZM163.012 36V32.5854H162.161L159.864 36H155.875L158.726 32.0728C157.967 31.8198 157.372 31.4131 156.942 30.8525C156.518 30.2852 156.306 29.5981 156.306 28.7915C156.306 27.5884 156.723 26.6279 157.557 25.9102C158.391 25.1924 159.502 24.8335 160.889 24.8335H166.549V36H163.012ZM180.512 36V27.52H176.933V36H173.303V24.8335H184.141V36H180.512ZM191.081 33.6621C191.649 33.6621 192.134 33.5049 192.537 33.1904C192.948 32.876 193.153 32.4761 193.153 31.9907V31.2217L191.122 31.355C190.651 31.3892 190.285 31.5122 190.025 31.7241C189.766 31.9292 189.636 32.1958 189.636 32.5239C189.636 32.8726 189.766 33.1494 190.025 33.3545C190.292 33.5596 190.644 33.6621 191.081 33.6621ZM189.789 36.1641C188.737 36.1641 187.848 35.8462 187.123 35.2104C186.399 34.5747 186.037 33.7612 186.037 32.77C186.037 31.731 186.423 30.9209 187.195 30.3398C187.968 29.7588 189.082 29.4238 190.538 29.335L193.153 29.1812V28.5454C193.153 28.1079 193.009 27.7695 192.722 27.5303C192.435 27.2842 192.049 27.1611 191.563 27.1611C191.085 27.1611 190.692 27.2739 190.384 27.4995C190.083 27.7183 189.906 28.0054 189.851 28.3608H186.58C186.635 27.2056 187.123 26.2861 188.046 25.6025C188.969 24.9121 190.203 24.5669 191.748 24.5669C193.238 24.5669 194.438 24.9155 195.347 25.6128C196.256 26.3032 196.711 27.2124 196.711 28.3403V36H193.173V34.4106H193.101C192.808 34.9575 192.356 35.3882 191.748 35.7026C191.14 36.0103 190.487 36.1641 189.789 36.1641ZM206.091 24.6694C207.499 24.6694 208.593 25.1719 209.373 26.1768C210.159 27.1816 210.552 28.5967 210.552 30.4219C210.552 32.2402 210.165 33.6519 209.393 34.6567C208.621 35.6616 207.537 36.1641 206.143 36.1641C205.329 36.1641 204.625 35.9829 204.03 35.6206C203.436 35.2515 203.001 34.7422 202.728 34.0928H202.656V39.6094H199.016V24.8335H202.636V26.8228H202.707C202.995 26.146 203.429 25.6196 204.01 25.2437C204.598 24.8608 205.291 24.6694 206.091 24.6694ZM203.21 32.5444C203.586 33.064 204.095 33.3237 204.738 33.3237C205.38 33.3237 205.89 33.064 206.266 32.5444C206.648 32.0181 206.84 31.3105 206.84 30.4219C206.84 29.5332 206.648 28.8257 206.266 28.2993C205.89 27.7729 205.38 27.5098 204.738 27.5098C204.102 27.5098 203.593 27.7764 203.21 28.3096C202.834 28.8359 202.643 29.54 202.636 30.4219C202.643 31.3105 202.834 32.0181 203.21 32.5444ZM221.798 24.8335V27.52H218.609V36H214.98V27.52H211.801V24.8335H221.798ZM230.933 36V31.6523H227.252V36H223.622V24.8335H227.252V28.9761H230.933V24.8335H234.563V36H230.933ZM242.159 27.1509C241.605 27.1509 241.137 27.3389 240.754 27.7148C240.378 28.084 240.166 28.5591 240.118 29.1401H244.179C244.145 28.5454 243.943 28.0669 243.574 27.7046C243.205 27.3354 242.733 27.1509 242.159 27.1509ZM244.261 32.4727H247.542C247.364 33.6279 246.797 34.5508 245.84 35.2412C244.883 35.9248 243.676 36.2666 242.22 36.2666C240.443 36.2666 239.052 35.7539 238.047 34.7285C237.042 33.6963 236.54 32.2778 236.54 30.4731C236.54 28.6685 237.039 27.2329 238.037 26.1665C239.042 25.1001 240.395 24.5669 242.097 24.5669C243.779 24.5669 245.115 25.0762 246.107 26.0947C247.105 27.1133 247.604 28.4771 247.604 30.186V31.2114H240.067V31.437C240.067 32.1069 240.269 32.6504 240.672 33.0674C241.082 33.4844 241.615 33.6929 242.272 33.6929C242.757 33.6929 243.177 33.5835 243.533 33.3647C243.888 33.146 244.131 32.8486 244.261 32.4727ZM239.893 23.3979C239.469 23.3979 239.11 23.2578 238.816 22.9775C238.529 22.6973 238.385 22.3589 238.385 21.9624C238.385 21.5591 238.529 21.2173 238.816 20.937C239.103 20.6567 239.462 20.5166 239.893 20.5166C240.323 20.5166 240.682 20.6567 240.969 20.937C241.257 21.2173 241.4 21.5591 241.4 21.9624C241.4 22.3589 241.257 22.6973 240.969 22.9775C240.682 23.2578 240.323 23.3979 239.893 23.3979ZM244.271 23.3979C243.847 23.3979 243.488 23.2578 243.194 22.9775C242.907 22.6973 242.764 22.3589 242.764 21.9624C242.764 21.5591 242.907 21.2173 243.194 20.937C243.482 20.6567 243.84 20.5166 244.271 20.5166C244.702 20.5166 245.061 20.6567 245.348 20.937C245.635 21.2173 245.778 21.5591 245.778 21.9624C245.778 22.3589 245.635 22.6973 245.348 22.9775C245.061 23.2578 244.702 23.3979 244.271 23.3979ZM256.635 24.6694C258.044 24.6694 259.137 25.1719 259.917 26.1768C260.703 27.1816 261.096 28.5967 261.096 30.4219C261.096 32.2402 260.71 33.6519 259.937 34.6567C259.165 35.6616 258.081 36.1641 256.687 36.1641C255.873 36.1641 255.169 35.9829 254.574 35.6206C253.98 35.2515 253.546 34.7422 253.272 34.0928H253.2V39.6094H249.56V24.8335H253.18V26.8228H253.252C253.539 26.146 253.973 25.6196 254.554 25.2437C255.142 24.8608 255.836 24.6694 256.635 24.6694ZM253.754 32.5444C254.13 33.064 254.639 33.3237 255.282 33.3237C255.925 33.3237 256.434 33.064 256.81 32.5444C257.193 32.0181 257.384 31.3105 257.384 30.4219C257.384 29.5332 257.193 28.8257 256.81 28.2993C256.434 27.7729 255.925 27.5098 255.282 27.5098C254.646 27.5098 254.137 27.7764 253.754 28.3096C253.378 28.8359 253.187 29.54 253.18 30.4219C253.187 31.3105 253.378 32.0181 253.754 32.5444ZM272.66 34.7285C271.642 35.7539 270.247 36.2666 268.477 36.2666C266.706 36.2666 265.312 35.7539 264.293 34.7285C263.275 33.6963 262.765 32.2573 262.765 30.4116C262.765 28.6001 263.282 27.1748 264.314 26.1357C265.346 25.0898 266.734 24.5669 268.477 24.5669C270.234 24.5669 271.625 25.0864 272.65 26.1255C273.676 27.1646 274.188 28.5933 274.188 30.4116C274.188 32.2642 273.679 33.7031 272.66 34.7285ZM266.99 32.77C267.352 33.3237 267.848 33.6006 268.477 33.6006C269.106 33.6006 269.601 33.3237 269.964 32.77C270.326 32.2163 270.507 31.4336 270.507 30.4219C270.507 29.4238 270.323 28.6445 269.953 28.084C269.591 27.5166 269.099 27.2329 268.477 27.2329C267.855 27.2329 267.363 27.5166 267 28.084C266.638 28.6445 266.457 29.4238 266.457 30.4219C266.457 31.4336 266.635 32.2163 266.99 32.77ZM281.067 26.9663H279.703V29.2939H280.985C281.463 29.2939 281.836 29.1914 282.102 28.9863C282.376 28.7812 282.513 28.4976 282.513 28.1353C282.513 27.7661 282.386 27.479 282.133 27.2739C281.88 27.0688 281.525 26.9663 281.067 26.9663ZM281.139 31.1807H279.703V33.8672H281.18C281.733 33.8672 282.157 33.751 282.451 33.5186C282.752 33.2793 282.902 32.9409 282.902 32.5034C282.902 32.0796 282.748 31.7549 282.441 31.5293C282.133 31.2969 281.699 31.1807 281.139 31.1807ZM276.155 36V24.8335H282.164C283.388 24.8335 284.341 25.083 285.025 25.582C285.715 26.0742 286.06 26.7578 286.06 27.6328C286.06 28.2412 285.859 28.7778 285.455 29.2427C285.052 29.7007 284.55 29.9673 283.948 30.0425V30.1245C284.721 30.2202 285.349 30.5107 285.835 30.9961C286.32 31.4746 286.563 32.0625 286.563 32.7598C286.563 33.7373 286.177 34.5234 285.404 35.1182C284.639 35.7061 283.606 36 282.307 36H276.155Z" fill="#282B2E"/>
<path d="M304 32.5L300 28.5L296 32.5" stroke="#D3D8DD" stroke-width="2"/>
</g>
<defs>
<clipPath id="clip0_1092_17660">
<rect width="296" height="24" fill="white" transform="translate(16 16)"/>
</clipPath>
</defs>
</svg>
