<svg width="375" height="52" viewBox="0 0 375 52" fill="none" xmlns="http://www.w3.org/2000/svg">
<g id="tableviews / headers / large">
<g id="title+chevron" clip-path="url(#clip0_1092_17643)">
<path id="title" d="M23.998 36.3691C21.7764 36.3691 20.0229 35.6787 18.7378 34.2979C17.4526 32.9102 16.8101 31.0098 16.8101 28.5967C16.8101 26.1904 17.4526 24.2969 18.7378 22.916C20.0298 21.5283 21.7832 20.8345 23.998 20.8345C25.8027 20.8345 27.3271 21.3643 28.5713 22.4238C29.8154 23.4766 30.5161 24.8301 30.6733 26.4844H27.0229C26.8657 25.7119 26.5137 25.1001 25.9668 24.6489C25.4199 24.1909 24.7637 23.9619 23.998 23.9619C22.9658 23.9619 22.1489 24.3755 21.5474 25.2026C20.9458 26.0298 20.645 27.1577 20.645 28.5864C20.645 30.0356 20.9458 31.1738 21.5474 32.001C22.1489 32.8281 22.9692 33.2417 24.0083 33.2417C24.7808 33.2417 25.4336 33.0229 25.9668 32.5854C26.5068 32.1479 26.8623 31.5464 27.0332 30.7808H30.6938C30.5161 32.4624 29.8154 33.8159 28.5918 34.8413C27.375 35.8599 25.8438 36.3691 23.998 36.3691ZM43.376 36H39.7462V31.4473H39.6436C38.9805 32.2676 38.003 32.6777 36.711 32.6777C35.46 32.6777 34.462 32.3052 33.7169 31.5601C32.9717 30.8149 32.5992 29.7964 32.5992 28.5044V24.8335H36.2291V27.8481C36.2291 28.4429 36.3863 28.9043 36.7008 29.2324C37.022 29.5605 37.4595 29.7246 38.0133 29.7246C38.8062 29.7246 39.3839 29.4648 39.7462 28.9453V24.8335H43.376V36ZM50.962 27.1509C50.4083 27.1509 49.9401 27.3389 49.5573 27.7148C49.1813 28.084 48.9694 28.5591 48.9215 29.1401H52.9821C52.9479 28.5454 52.7462 28.0669 52.3771 27.7046C52.0079 27.3354 51.5363 27.1509 50.962 27.1509ZM53.0641 32.4727H56.3453C56.1676 33.6279 55.6002 34.5508 54.6432 35.2412C53.6862 35.9248 52.4796 36.2666 51.0236 36.2666C49.2462 36.2666 47.8551 35.7539 46.8502 34.7285C45.8453 33.6963 45.3429 32.2778 45.3429 30.4731C45.3429 28.6685 45.8419 27.2329 46.84 26.1665C47.8449 25.1001 49.1984 24.5669 50.9005 24.5669C52.5822 24.5669 53.9186 25.0762 54.9098 26.0947C55.9078 27.1133 56.4069 28.4771 56.4069 30.186V31.2114H48.8703V31.437C48.8703 32.1069 49.0719 32.6504 49.4752 33.0674C49.8854 33.4844 50.4186 33.6929 51.0748 33.6929C51.5602 33.6929 51.9806 33.5835 52.3361 33.3647C52.6915 33.146 52.9342 32.8486 53.0641 32.4727ZM67.5407 24.8335V27.52H64.3518V36H60.7219V27.52H57.5432V24.8335H67.5407ZM73.886 33.6621C74.4534 33.6621 74.9387 33.5049 75.3421 33.1904C75.7522 32.876 75.9573 32.4761 75.9573 31.9907V31.2217L73.927 31.355C73.4553 31.3892 73.0896 31.5122 72.8299 31.7241C72.5701 31.9292 72.4402 32.1958 72.4402 32.5239C72.4402 32.8726 72.5701 33.1494 72.8299 33.3545C73.0965 33.5596 73.4485 33.6621 73.886 33.6621ZM72.594 36.1641C71.5413 36.1641 70.6526 35.8462 69.928 35.2104C69.2034 34.5747 68.8411 33.7612 68.8411 32.77C68.8411 31.731 69.2273 30.9209 69.9998 30.3398C70.7722 29.7588 71.8865 29.4238 73.3426 29.335L75.9573 29.1812V28.5454C75.9573 28.1079 75.8137 27.7695 75.5266 27.5303C75.2395 27.2842 74.8533 27.1611 74.3679 27.1611C73.8894 27.1611 73.4964 27.2739 73.1887 27.4995C72.888 27.7183 72.7102 28.0054 72.6555 28.3608H69.3845C69.4392 27.2056 69.928 26.2861 70.8509 25.6025C71.7737 24.9121 73.0076 24.5669 74.5525 24.5669C76.0427 24.5669 77.2425 24.9155 78.1516 25.6128C79.0608 26.3032 79.5154 27.2124 79.5154 28.3403V36H75.9778V34.4106H75.906C75.6121 34.9575 75.1609 35.3882 74.5525 35.7026C73.9441 36.0103 73.2913 36.1641 72.594 36.1641ZM89.8065 36H86.2587V24.8335H89.8065V31.1396H89.8886L93.7646 24.8335H97.3022V36H93.7646V29.5708H93.6825L89.8065 36ZM110.926 29.9502L115.325 36H111.018L107.768 31.5088H107.686V36H104.056V24.8335H107.686V29.1094H107.768L110.946 24.8335H115.007L110.926 29.9502ZM121.26 33.6621C121.827 33.6621 122.313 33.5049 122.716 33.1904C123.126 32.876 123.331 32.4761 123.331 31.9907V31.2217L121.301 31.355C120.829 31.3892 120.463 31.5122 120.204 31.7241C119.944 31.9292 119.814 32.1958 119.814 32.5239C119.814 32.8726 119.944 33.1494 120.204 33.3545C120.47 33.5596 120.822 33.6621 121.26 33.6621ZM119.968 36.1641C118.915 36.1641 118.026 35.8462 117.302 35.2104C116.577 34.5747 116.215 33.7612 116.215 32.77C116.215 31.731 116.601 30.9209 117.374 30.3398C118.146 29.7588 119.26 29.4238 120.716 29.335L123.331 29.1812V28.5454C123.331 28.1079 123.188 27.7695 122.9 27.5303C122.613 27.2842 122.227 27.1611 121.742 27.1611C121.263 27.1611 120.87 27.2739 120.563 27.4995C120.262 27.7183 120.084 28.0054 120.029 28.3608H116.758C116.813 27.2056 117.302 26.2861 118.225 25.6025C119.148 24.9121 120.381 24.5669 121.926 24.5669C123.417 24.5669 124.616 24.9155 125.525 25.6128C126.435 26.3032 126.889 27.2124 126.889 28.3403V36H123.352V34.4106H123.28C122.986 34.9575 122.535 35.3882 121.926 35.7026C121.318 36.0103 120.665 36.1641 119.968 36.1641ZM136.27 24.6694C137.678 24.6694 138.772 25.1719 139.551 26.1768C140.337 27.1816 140.73 28.5967 140.73 30.4219C140.73 32.2402 140.344 33.6519 139.571 34.6567C138.799 35.6616 137.716 36.1641 136.321 36.1641C135.507 36.1641 134.803 35.9829 134.209 35.6206C133.614 35.2515 133.18 34.7422 132.906 34.0928H132.835V39.6094H129.195V24.8335H132.814V26.8228H132.886C133.173 26.146 133.607 25.6196 134.188 25.2437C134.776 24.8608 135.47 24.6694 136.27 24.6694ZM133.388 32.5444C133.764 33.064 134.274 33.3237 134.916 33.3237C135.559 33.3237 136.068 33.064 136.444 32.5444C136.827 32.0181 137.018 31.3105 137.018 30.4219C137.018 29.5332 136.827 28.8257 136.444 28.2993C136.068 27.7729 135.559 27.5098 134.916 27.5098C134.28 27.5098 133.771 27.7764 133.388 28.3096C133.012 28.8359 132.821 29.54 132.814 30.4219C132.821 31.3105 133.012 32.0181 133.388 32.5444ZM151.977 24.8335V27.52H148.788V36H145.158V27.52H141.979V24.8335H151.977ZM164.967 36V24.8335H168.596V36H164.967ZM158.907 30.4937H157.43V33.3545H158.907C159.365 33.3545 159.73 33.2246 160.004 32.9648C160.284 32.6982 160.424 32.3496 160.424 31.9189C160.424 31.4951 160.284 31.1533 160.004 30.8936C159.73 30.627 159.365 30.4937 158.907 30.4937ZM153.8 36V24.8335H157.43V27.8892H159.645C160.985 27.8892 162.051 28.2583 162.844 28.9966C163.637 29.728 164.034 30.7124 164.034 31.9497C164.034 33.187 163.637 34.1714 162.844 34.9028C162.051 35.6343 160.985 36 159.645 36H153.8Z" fill="#282B2E"/>
<g id="24&#195;&#151;24 / static / gray / normal / chevron-small-up">
<path id="up" d="M186 32.5L182 28.5L178 32.5" stroke="#D3D8DD" stroke-width="2"/>
</g>
</g>
</g>
<defs>
<clipPath id="clip0_1092_17643">
<rect width="178" height="24" fill="white" transform="translate(16 16)"/>
</clipPath>
</defs>
</svg>
