<svg width="375" height="52" viewBox="0 0 375 52" fill="none" xmlns="http://www.w3.org/2000/svg">
<g clip-path="url(#clip0_1092_17649)">
<path d="M18.7788 23.0083C20.0981 21.6343 21.8789 20.9473 24.1211 20.9473C26.3633 20.9473 28.1406 21.6343 29.4531 23.0083C30.7656 24.3823 31.4219 26.2485 31.4219 28.6069C31.4219 30.9653 30.7656 32.8315 29.4531 34.2056C28.1406 35.5728 26.3633 36.2563 24.1211 36.2563C21.8721 36.2563 20.0913 35.5728 18.7788 34.2056C17.4663 32.8315 16.8101 30.9653 16.8101 28.6069C16.8101 26.2485 17.4663 24.3823 18.7788 23.0083ZM26.6436 25.2539C26.0146 24.4199 25.1738 24.0029 24.1211 24.0029C23.0684 24.0029 22.2241 24.4199 21.5884 25.2539C20.9595 26.0811 20.645 27.1987 20.645 28.6069C20.645 30.0083 20.9595 31.126 21.5884 31.96C22.2173 32.7871 23.0615 33.2007 24.1211 33.2007C25.1738 33.2007 26.0146 32.7871 26.6436 31.96C27.2793 31.126 27.5972 30.0083 27.5972 28.6069C27.5972 27.1987 27.2793 26.0811 26.6436 25.2539ZM39.4591 33.5288V27.3047C38.6798 27.332 38.0577 27.6226 37.5928 28.1763C37.128 28.7231 36.8956 29.4717 36.8956 30.4219C36.8956 31.3857 37.1246 32.1377 37.5826 32.6777C38.0406 33.2178 38.6661 33.5015 39.4591 33.5288ZM45.4883 30.4219C45.4883 29.458 45.2593 28.7061 44.8013 28.166C44.3433 27.626 43.7178 27.3389 42.9249 27.3047V33.5288C43.7042 33.5015 44.3262 33.2144 44.7911 32.6675C45.2559 32.1138 45.4883 31.3652 45.4883 30.4219ZM39.418 36.1743C37.4971 36.1265 35.983 35.5967 34.8756 34.585C33.775 33.5732 33.2247 32.1821 33.2247 30.4116C33.2247 28.6753 33.7818 27.2944 34.8961 26.269C36.0172 25.2437 37.5245 24.707 39.418 24.6592V21.3677H42.9761V24.6592C44.8902 24.707 46.3975 25.2368 47.4981 26.2485C48.5987 27.2603 49.149 28.6514 49.149 30.4219C49.149 32.1582 48.5919 33.5391 47.4776 34.5645C46.3633 35.5898 44.8629 36.1265 42.9761 36.1743V39.6094H39.418V36.1743ZM60.693 34.7285C59.6744 35.7539 58.2799 36.2666 56.5094 36.2666C54.7389 36.2666 53.3444 35.7539 52.3258 34.7285C51.3073 33.6963 50.798 32.2573 50.798 30.4116C50.798 28.6001 51.3141 27.1748 52.3463 26.1357C53.3786 25.0898 54.7662 24.5669 56.5094 24.5669C58.2662 24.5669 59.6574 25.0864 60.6828 26.1255C61.7081 27.1646 62.2208 28.5933 62.2208 30.4116C62.2208 32.2642 61.7116 33.7031 60.693 34.7285ZM55.0226 32.77C55.3849 33.3237 55.8805 33.6006 56.5094 33.6006C57.1383 33.6006 57.6339 33.3237 57.9962 32.77C58.3585 32.2163 58.5397 31.4336 58.5397 30.4219C58.5397 29.4238 58.3551 28.6445 57.986 28.084C57.6237 27.5166 57.1315 27.2329 56.5094 27.2329C55.8873 27.2329 55.3952 27.5166 55.0328 28.084C54.6705 28.6445 54.4894 29.4238 54.4894 30.4219C54.4894 31.4336 54.6671 32.2163 55.0226 32.77ZM71.2629 24.6694C72.6711 24.6694 73.7648 25.1719 74.5441 26.1768C75.3303 27.1816 75.7233 28.5967 75.7233 30.4219C75.7233 32.2402 75.3371 33.6519 74.5647 34.6567C73.7922 35.6616 72.7087 36.1641 71.3142 36.1641C70.5007 36.1641 69.7966 35.9829 69.2019 35.6206C68.6071 35.2515 68.173 34.7422 67.8996 34.0928H67.8278V39.6094H64.1877V24.8335H67.8073V26.8228H67.8791C68.1662 26.146 68.6003 25.6196 69.1814 25.2437C69.7692 24.8608 70.4631 24.6694 71.2629 24.6694ZM68.3815 32.5444C68.7575 33.064 69.2668 33.3237 69.9094 33.3237C70.552 33.3237 71.0612 33.064 71.4372 32.5444C71.82 32.0181 72.0114 31.3105 72.0114 30.4219C72.0114 29.5332 71.82 28.8257 71.4372 28.2993C71.0612 27.7729 70.552 27.5098 69.9094 27.5098C69.2736 27.5098 68.7644 27.7764 68.3815 28.3096C68.0056 28.8359 67.8142 29.54 67.8073 30.4219C67.8142 31.3105 68.0056 32.0181 68.3815 32.5444ZM81.0945 36H77.7312V24.8335H82.5198L84.8987 31.4165H84.9705L87.3494 24.8335H92.1072V36H88.7542V28.7607H88.6721L86.1394 35.231H83.699L81.1663 28.7607H81.0945V36ZM99.037 30.4321C98.9959 31.1431 98.9242 31.7822 98.8216 32.3496C98.7191 32.9102 98.5619 33.4331 98.3499 33.9185C98.1449 34.4038 97.8885 34.8071 97.5809 35.1284C97.2801 35.4429 96.9007 35.6924 96.4427 35.877C95.9915 36.0547 95.4754 36.1436 94.8944 36.1436C94.4569 36.1436 94.0843 36.0957 93.7767 36V32.9956C93.9818 33.0435 94.2142 33.0674 94.474 33.0674C94.7269 33.0674 94.9422 32.9956 95.12 32.8521C95.2977 32.7017 95.4378 32.4863 95.5404 32.2061C95.6429 31.9258 95.7181 31.625 95.766 31.3037C95.8138 30.9824 95.848 30.603 95.8685 30.1655L96.1248 24.8335H105.169V36H101.549V27.52H99.201L99.037 30.4321ZM112.765 27.1509C112.211 27.1509 111.743 27.3389 111.36 27.7148C110.984 28.084 110.772 28.5591 110.725 29.1401H114.785C114.751 28.5454 114.549 28.0669 114.18 27.7046C113.811 27.3354 113.339 27.1509 112.765 27.1509ZM114.867 32.4727H118.148C117.971 33.6279 117.403 34.5508 116.446 35.2412C115.489 35.9248 114.283 36.2666 112.827 36.2666C111.049 36.2666 109.658 35.7539 108.653 34.7285C107.648 33.6963 107.146 32.2778 107.146 30.4731C107.146 28.6685 107.645 27.2329 108.643 26.1665C109.648 25.1001 111.001 24.5669 112.704 24.5669C114.385 24.5669 115.722 25.0762 116.713 26.0947C117.711 27.1133 118.21 28.4771 118.21 30.186V31.2114H110.673V31.437C110.673 32.1069 110.875 32.6504 111.278 33.0674C111.688 33.4844 112.222 33.6929 112.878 33.6929C113.363 33.6929 113.784 33.5835 114.139 33.3647C114.495 33.146 114.737 32.8486 114.867 32.4727ZM127.478 36V31.6523H123.796V36H120.166V24.8335H123.796V28.9761H127.478V24.8335H131.107V36H127.478ZM136.971 36H133.423V24.8335H136.971V31.1396H137.053L140.929 24.8335H144.466V36H140.929V29.5708H140.847L136.971 36ZM152.063 27.1509C151.509 27.1509 151.041 27.3389 150.658 27.7148C150.282 28.084 150.07 28.5591 150.022 29.1401H154.083C154.048 28.5454 153.847 28.0669 153.478 27.7046C153.109 27.3354 152.637 27.1509 152.063 27.1509ZM154.165 32.4727H157.446C157.268 33.6279 156.701 34.5508 155.744 35.2412C154.787 35.9248 153.58 36.2666 152.124 36.2666C150.347 36.2666 148.956 35.7539 147.951 34.7285C146.946 33.6963 146.443 32.2778 146.443 30.4731C146.443 28.6685 146.942 27.2329 147.941 26.1665C148.945 25.1001 150.299 24.5669 152.001 24.5669C153.683 24.5669 155.019 25.0762 156.01 26.0947C157.008 27.1133 157.507 28.4771 157.507 30.186V31.2114H149.971V31.437C149.971 32.1069 150.172 32.6504 150.576 33.0674C150.986 33.4844 151.519 33.6929 152.175 33.6929C152.661 33.6929 153.081 33.5835 153.437 33.3647C153.792 33.146 154.035 32.8486 154.165 32.4727ZM171.111 36V27.52H167.532V36H163.902V24.8335H174.74V36H171.111ZM184.131 24.6694C185.539 24.6694 186.633 25.1719 187.412 26.1768C188.199 27.1816 188.592 28.5967 188.592 30.4219C188.592 32.2402 188.205 33.6519 187.433 34.6567C186.66 35.6616 185.577 36.1641 184.182 36.1641C183.369 36.1641 182.665 35.9829 182.07 35.6206C181.475 35.2515 181.041 34.7422 180.768 34.0928H180.696V39.6094H177.056V24.8335H180.676V26.8228H180.747C181.034 26.146 181.469 25.6196 182.05 25.2437C182.638 24.8608 183.331 24.6694 184.131 24.6694ZM181.25 32.5444C181.626 33.064 182.135 33.3237 182.778 33.3237C183.42 33.3237 183.93 33.064 184.305 32.5444C184.688 32.0181 184.88 31.3105 184.88 30.4219C184.88 29.5332 184.688 28.8257 184.305 28.2993C183.93 27.7729 183.42 27.5098 182.778 27.5098C182.142 27.5098 181.633 27.7764 181.25 28.3096C180.874 28.8359 180.682 29.54 180.676 30.4219C180.682 31.3105 180.874 32.0181 181.25 32.5444ZM200.156 34.7285C199.138 35.7539 197.743 36.2666 195.973 36.2666C194.202 36.2666 192.808 35.7539 191.789 34.7285C190.77 33.6963 190.261 32.2573 190.261 30.4116C190.261 28.6001 190.777 27.1748 191.809 26.1357C192.842 25.0898 194.229 24.5669 195.973 24.5669C197.729 24.5669 199.12 25.0864 200.146 26.1255C201.171 27.1646 201.684 28.5933 201.684 30.4116C201.684 32.2642 201.175 33.7031 200.156 34.7285ZM194.486 32.77C194.848 33.3237 195.344 33.6006 195.973 33.6006C196.601 33.6006 197.097 33.3237 197.459 32.77C197.822 32.2163 198.003 31.4336 198.003 30.4219C198.003 29.4238 197.818 28.6445 197.449 28.084C197.087 27.5166 196.595 27.2329 195.973 27.2329C195.35 27.2329 194.858 27.5166 194.496 28.084C194.134 28.6445 193.953 29.4238 193.953 30.4219C193.953 31.4336 194.13 32.2163 194.486 32.77ZM211.034 33.3237V27.4995H208.111L207.916 30.4321C207.828 31.6353 207.571 32.5718 207.147 33.2417V33.3237H211.034ZM206.04 38.8608H202.759V33.3237H203.569C203.952 33.1255 204.228 32.7598 204.399 32.2266C204.577 31.6934 204.693 31.0063 204.748 30.1655L205.086 24.8335H214.653V33.3237H216.253V38.8608H212.972V36H206.04V38.8608ZM219.45 40.1118C218.603 40.1118 218.162 40.1084 218.127 40.1016V37.3535C218.196 37.3672 218.459 37.374 218.917 37.374C219.491 37.374 219.918 37.2954 220.199 37.1382C220.479 36.9878 220.643 36.7451 220.691 36.4102L220.711 36.2256C220.718 36.1025 220.718 36.0273 220.711 36L216.948 24.8335H220.958L222.978 33.2725H223.039L225.049 24.8335H228.884L225.315 35.9692C224.837 37.4663 224.15 38.5293 223.254 39.1582C222.359 39.7939 221.091 40.1118 219.45 40.1118ZM237.239 29.9502L241.638 36H237.331L234.081 31.5088H233.999V36H230.369V24.8335H233.999V29.1094H234.081L237.259 24.8335H241.32L237.239 29.9502ZM252.167 24.8335V27.52H248.978V36H245.348V27.52H242.169V24.8335H252.167ZM263.342 34.7285C262.323 35.7539 260.928 36.2666 259.158 36.2666C257.387 36.2666 255.993 35.7539 254.974 34.7285C253.956 33.6963 253.447 32.2573 253.447 30.4116C253.447 28.6001 253.963 27.1748 254.995 26.1357C256.027 25.0898 257.415 24.5669 259.158 24.5669C260.915 24.5669 262.306 25.0864 263.331 26.1255C264.357 27.1646 264.869 28.5933 264.869 30.4116C264.869 32.2642 264.36 33.7031 263.342 34.7285ZM257.671 32.77C258.033 33.3237 258.529 33.6006 259.158 33.6006C259.787 33.6006 260.282 33.3237 260.645 32.77C261.007 32.2163 261.188 31.4336 261.188 30.4219C261.188 29.4238 261.004 28.6445 260.634 28.084C260.272 27.5166 259.78 27.2329 259.158 27.2329C258.536 27.2329 258.044 27.5166 257.681 28.084C257.319 28.6445 257.138 29.4238 257.138 30.4219C257.138 31.4336 257.316 32.2163 257.671 32.77ZM271.748 26.9663H270.384V29.2939H271.666C272.144 29.2939 272.517 29.1914 272.783 28.9863C273.057 28.7812 273.194 28.4976 273.194 28.1353C273.194 27.7661 273.067 27.479 272.814 27.2739C272.561 27.0688 272.206 26.9663 271.748 26.9663ZM271.82 31.1807H270.384V33.8672H271.861C272.414 33.8672 272.838 33.751 273.132 33.5186C273.433 33.2793 273.583 32.9409 273.583 32.5034C273.583 32.0796 273.429 31.7549 273.122 31.5293C272.814 31.2969 272.38 31.1807 271.82 31.1807ZM266.836 36V24.8335H272.845C274.069 24.8335 275.022 25.083 275.706 25.582C276.396 26.0742 276.742 26.7578 276.742 27.6328C276.742 28.2412 276.54 28.7778 276.137 29.2427C275.733 29.7007 275.231 29.9673 274.629 30.0425V30.1245C275.402 30.2202 276.031 30.5107 276.516 30.9961C277.001 31.4746 277.244 32.0625 277.244 32.7598C277.244 33.7373 276.858 34.5234 276.085 35.1182C275.32 35.7061 274.287 36 272.989 36H266.836Z" fill="#282B2E"/>
<path d="M295 32.5L291 28.5L287 32.5" stroke="#D3D8DD" stroke-width="2"/>
</g>
<defs>
<clipPath id="clip0_1092_17649">
<rect width="287" height="24" fill="white" transform="translate(16 16)"/>
</clipPath>
</defs>
</svg>
